<svg xmlns="http://www.w3.org/2000/svg" id="Group_1" data-name="Group 1" width="80.998" height="32.95" viewBox="0 0 80.998 32.95"><path id="Path_1" data-name="Path 1" d="M91.05,505.561c0-6.016,4.548-10.124,10.417-10.124a8.96,8.96,0,0,1,8.186,4.783l-3.58,1.761a5.3,5.3,0,0,0-4.606-2.846,6.433,6.433,0,0,0,0,12.852,5.246,5.246,0,0,0,4.606-2.846l3.58,1.73a9.013,9.013,0,0,1-8.186,4.813c-5.869,0-10.417-4.108-10.417-10.124" transform="translate(-60.192 -484.797)" fill="#223e4d"></path><path id="Path_2" data-name="Path 2" d="M119.954,515.478V495.906h4.167v15.9h7.744v3.668Z" transform="translate(-69.169 -484.941)" fill="#223e4d"></path><path id="Path_3" data-name="Path 3" d="M136.584,505.561c0-6.191,4.695-10.124,10.417-10.124a9.152,9.152,0,0,1,8.1,4.373l-3.463,1.878A5.542,5.542,0,0,0,147,499.135a6.433,6.433,0,0,0,0,12.852,6.6,6.6,0,0,0,4.167-1.5v-2.347H146V504.5h9.331v7.512a10.862,10.862,0,0,1-8.333,3.7c-5.723,0-10.417-3.991-10.417-10.153" transform="translate(-74.336 -484.797)" fill="#223e4d"></path><path id="Path_4" data-name="Path 4" d="M79.385,505.274l-9.613-.963-.05,0v.032l1.63,16.156h1.626l6.434-15.178Z" transform="translate(-53.565 -487.553)" fill="#7fcac1"></path><path id="Path_5" data-name="Path 5" d="M69.268,496.8l9.689.978,7.106-16.762L85.052,480,68.29,487.105l-.028.065.973,9.589Z" transform="translate(-53.112 -480)" fill="#44b7b1"></path><path id="Path_6" data-name="Path 6" d="M61.464,490.308l-15.178,6.435v1.625L62.441,500Z" transform="translate(-46.286 -483.201)" fill="#223e4d"></path></svg>