<svg width="132.68" height="30.94" version="1.1" viewBox="0 0 132.68 30.94" xml:space="preserve" xmlns="http://www.w3.org/2000/svg" xmlns:cc="http://creativecommons.org/ns#" xmlns:dc="http://purl.org/dc/elements/1.1/" xmlns:rdf="http://www.w3.org/1999/02/22-rdf-syntax-ns#"><metadata><rdf:RDF><cc:Work rdf:about=""><dc:format>image/svg+xml</dc:format><dc:type rdf:resource="http://purl.org/dc/dcmitype/StillImage"/><dc:title/></cc:Work></rdf:RDF></metadata><defs><clipPath id="clipPath118"><rect transform="scale(1,-1)" x="145.52" y="-421.13" width="995.07" height="271.38" style="fill-rule:evenodd;fill:#00f;stroke-width:7.5"/></clipPath></defs><g transform="matrix(1.3333 0 0 -1.3333 -20.714 38.583)"><g transform="matrix(.1 0 0 .1 .98327 -9.2428)" clip-path="url(#clipPath118)"><path d="m260.7 331.22h18.223c8.445 0 14.578 3.515 14.578 12.969 0 9.765-6.277 13.711-14.578 13.711h-18.223zm-27.109 48.398h49.414c19.394 0 37.598-8.886 37.598-33.535 0-25.781-14.727-35.859-37.598-35.859h-22.305v-34.668h-27.109v104.06" style="fill:#33a200"/><path d="m359.25 334.42h22.734c8.164 0 12.528 4.395 12.528 12.266 0 7.714-6.121 11.211-13.7 11.211h-21.562zm-27.121 45.195h53.058c18.379 0 36.446-8.32 36.446-29.316 0-11.211-5.383-21.856-16.328-26.074v-0.293c11.082-2.637 14.285-15.02 15.164-24.922 0.285-4.356 0.715-19.668 4.375-23.457h-26.825c-2.343 3.496-2.753 13.691-3.066 16.621-0.723 10.469-2.461 21.269-15.156 21.269h-20.547v-37.89h-27.121v104.06" style="fill:#33a200"/><path d="m575.82 310.51c0.586-12.227 8.176-16.172 19.68-16.172 8.164 0 16.621 2.91 16.621 10.644 0 9.18-14.863 10.938-29.883 15.157-14.883 4.218-30.469 10.937-30.469 30.019 0 22.754 22.891 31.641 42.422 31.641 20.692 0 41.551-10.059 41.668-33.535h-27.097c0.449 9.472-8.457 12.539-16.758 12.539-5.84 0-13.125-2.032-13.125-8.867 0-8.028 15.019-9.512 30.176-13.731 15.019-4.219 30.175-11.211 30.175-30.019 0-26.368-22.441-34.844-45.332-34.844-23.918 0-45.039 10.508-45.195 37.168h27.117" style="fill:#33a200"/><path d="m675.67 331.22h18.203c8.477 0 14.59 3.515 14.59 12.969 0 9.765-6.25 13.711-14.59 13.711h-18.203zm-27.109 48.398h49.394c19.375 0 37.617-8.886 37.617-33.535 0-25.781-14.726-35.859-37.617-35.859h-22.285v-34.668h-27.109v104.06" style="fill:#33a200"/><path d="m745.04 379.61h82.949v-21.718h-55.82v-18.223h50.996v-20.996h-50.996v-19.805h57.285v-23.32h-84.414v104.06" style="fill:#33a200"/><path d="m1039.7 356.29h-31.05v-80.742h-27.153v80.742h-31.015v23.32h89.218v-23.32" style="fill:#33a200"/><path d="m486.48 296.59c16.407 0 29.688 13.301 29.688 29.687 0 16.368-13.281 29.668-29.688 29.668-16.367 0-29.648-13.3-29.648-29.668 0-16.386 13.281-29.687 29.648-29.687zm-55.097 29.687c0 30.43 24.668 55.098 55.097 55.098 30.438 0 55.118-24.668 55.118-55.098 0-30.468-24.68-55.117-55.118-55.117-30.429 0-55.097 24.649-55.097 55.117" style="fill:#33a200"/><path d="m917.91 343.4c-5.391 7.578-14.219 12.539-24.258 12.539-16.367 0-29.648-13.3-29.648-29.668 0-16.386 13.281-29.687 29.648-29.687 13.438 0 24.785 8.926 28.457 21.172l25.567-2.559c-5.157-25.117-27.364-44.043-54.024-44.043-30.429 0-55.097 24.649-55.097 55.117 0 30.43 24.668 55.098 55.097 55.098 24.512 0 45.274-15.976 52.442-38.086l-28.184 0.117" style="fill:#33a200"/><path d="m1081.9 186.86c-112.37 49.707-260.45 80.879-440.61 80.879-180.85 0-343.44-31.425-455.86-81.445l-8e-3 0.039c102.11 62.031 268.18 102.4 455.69 102.4 186.95 0 338.63-40.117 440.82-101.86l-0.04-0.02" style="fill:#33a200"/><path d="m9.1328 30.02c1.8945-0.3125 4.4102-0.4101 7.6641-0.4101 9.4492 0 18.164 3.457 18.164 13.75 0 9.5508-8.2968 13.633-18.27 13.633h-7.5586zm0 33.809h8.293c9.5547 0 15.223 5.1367 15.223 11.973 0 8.1836-6.1914 11.543-15.43 11.543-4.1993 0-6.6133-0.3125-8.086-0.625zm-9.1328 28.965c440.1-119.96 418.52 96.554 36.008-3.5547 3.6758-2.7344 5.9844-6.9336 5.9844-12.5 0-6.9336-4.6211-12.91-11.969-15.547v-0.3125c6.7188-1.5625 14.594-7.1289 14.594-17.637 0-6.0742-2.4141-10.801-6.0899-14.16-4.8242-4.5117-12.805-6.6211-24.359-6.6211-6.2969 0-11.121 0.4297-14.168 0.8399v69.492" style="fill:#231f20"/><path d="m54.492 58.047c0 5.9961-0.1016 11.133-0.418 15.859h8.0821l0.4218-10.078h0.3125c2.3164 6.8164 7.9766 11.133 14.176 11.133 0.9414 0 1.6797-0.1171 2.5195-0.2148v-8.7109c-0.9414 0.1953-1.8906 0.1953-3.1523 0.1953-6.5078 0-11.125-4.8242-12.387-11.758-0.2071-1.25-0.3164-2.8321-0.3164-4.2969v-27.09h-9.2383v34.961" style="fill:#231f20"/><path d="m117.91 53.438c0.11 5.7617-2.414 14.902-12.808 14.902-9.4457 0-13.438-8.496-14.176-14.902zm-27.086-6.6211c0.211-12.5 8.0821-17.637 17.43-17.637 6.609 0 10.707 1.1523 14.066 2.6172l1.68-6.6016c-3.258-1.4648-8.922-3.2617-17.008-3.2617-15.644 0-24.984 10.391-24.984 25.723 0 15.332 9.0274 27.305 23.832 27.305 16.687 0 20.996-14.492 20.996-23.848 0-1.875-0.106-3.2422-0.316-4.2969h-35.696" style="fill:#231f20"/><path d="m162.95 49.023c-10.078 0.2149-21.515-1.582-21.515-11.445 0-6.0937 3.984-8.8086 8.601-8.8086 6.719 0 11.024 4.1993 12.496 8.4961 0.317 1.0547 0.418 2.0899 0.418 2.9297zm8.922-13.75c0-4.414 0.215-8.7109 0.738-12.188h-8.297l-0.73 6.4063h-0.316c-2.836-3.9844-8.293-7.5586-15.536-7.5586-10.293 0-15.539 7.2461-15.539 14.59 0 12.285 10.918 19.004 30.547 18.906v1.0547c0 4.082-1.148 11.758-11.547 11.641-4.828 0-9.757-1.3672-13.336-3.7695l-2.097 6.1914c4.199 2.6172 10.394 4.414 16.797 4.414 15.539 0 19.316-10.605 19.316-20.684v-19.004" style="fill:#231f20"/><path d="m193.83 50.606h0.211c1.258 1.7773 2.938 3.9843 4.406 5.7617l15.012 17.539h11.023l-19.523-20.898 22.356-29.922h-11.336l-17.422 24.356-4.727-5.2344v-19.121h-9.133v74.551h9.133v-47.031" style="fill:#231f20"/><path d="m261.13 43.457c0-1.1523 0.105-2.3047 0.422-3.3593 1.675-6.4063 7.136-10.82 13.855-10.82 9.766 0 15.43 7.8907 15.43 19.531 0 10.195-5.242 18.906-15.219 18.906-6.195 0-12.074-4.414-13.961-11.348-0.316-1.1524-0.527-2.4024-0.527-3.8867zm-9.129 54.18h9.129v-31.914h0.211c3.258 5.664 9.136 9.2382 17.316 9.2382 12.707 0 21.528-10.508 21.528-25.84 0-18.164-11.551-27.188-22.887-27.188-7.352 0-13.231 2.832-17.113 9.4531h-0.208l-0.527-8.3008h-7.871c0.203 3.4766 0.422 8.6133 0.422 13.125v61.426" style="fill:#231f20"/><path d="m336.41 49.023c-10.078 0.2149-21.523-1.582-21.523-11.445 0-6.0937 3.996-8.8086 8.613-8.8086 6.719 0 11.02 4.1993 12.488 8.4961 0.317 1.0547 0.422 2.0899 0.422 2.9297zm8.926-13.75c0-4.414 0.203-8.7109 0.731-12.188h-8.29l-0.738 6.4063h-0.316c-2.832-3.9844-8.289-7.5586-15.535-7.5586-10.286 0-15.539 7.2461-15.539 14.59 0 12.285 10.918 19.004 30.55 18.906v1.0547c0 4.082-1.156 11.758-11.547 11.641-4.828 0-9.765-1.3672-13.332-3.7695l-2.097 6.1914c4.199 2.6172 10.39 4.414 16.797 4.414 15.539 0 19.316-10.605 19.316-20.684v-19.004" style="fill:#231f20"/><path d="m358.14 58.047c0 5.9961-0.102 11.133-0.418 15.859h8.086l0.417-10.078h0.313c2.312 6.8164 7.977 11.133 14.176 11.133 0.941 0 1.679-0.1171 2.519-0.2148v-8.7109c-0.941 0.1953-1.89 0.1953-3.148 0.1953-6.512 0-11.129-4.8242-12.391-11.758-0.211-1.25-0.316-2.8321-0.316-4.2969v-27.09h-9.238v34.961" style="fill:#231f20"/><path d="m390.8 58.047c0 5.9961-0.102 11.133-0.418 15.859h8.086l0.418-10.078h0.312c2.317 6.8164 7.981 11.133 14.176 11.133 0.941 0 1.68-0.1171 2.52-0.2148v-8.7109c-0.946 0.1953-1.891 0.1953-3.153 0.1953-6.508 0-11.125-4.8242-12.387-11.758-0.21-1.25-0.316-2.8321-0.316-4.2969v-27.09h-9.238v34.961" style="fill:#231f20"/><path d="m423.46 23.086v50.82h9.238v-50.82zm10.293 65.098c0-3.1445-2.207-5.6641-5.879-5.6641-3.359 0-5.566 2.5196-5.566 5.6641s2.308 5.7617 5.769 5.7617c3.364 0 5.676-2.5195 5.676-5.7617" style="fill:#231f20"/><path d="m478.16 53.438c0.102 5.7617-2.418 14.902-12.808 14.902-9.45 0-13.438-8.496-14.168-14.902zm-27.086-6.6211c0.211-12.5 8.086-17.637 17.426-17.637 6.617 0 10.711 1.1523 14.066 2.6172l1.68-6.6016c-3.25-1.4648-8.926-3.2617-17.004-3.2617-15.64 0-24.984 10.391-24.984 25.723 0 15.332 9.027 27.305 23.828 27.305 16.691 0 20.992-14.492 20.992-23.848 0-1.875-0.101-3.2422-0.308-4.2969h-35.696" style="fill:#231f20"/><path d="m496.44 58.047c0 5.9961-0.11 11.133-0.422 15.859h8.082l0.418-10.078h0.32c2.305 6.8164 7.977 11.133 14.168 11.133 0.945 0 1.68-0.1171 2.519-0.2148v-8.7109c-0.949 0.1953-1.89 0.1953-3.148 0.1953-6.512 0-11.129-4.8242-12.391-11.758-0.207-1.25-0.308-2.8321-0.308-4.2969v-27.09h-9.238v34.961" style="fill:#231f20"/><path d="m527.41 32.441c2.832-1.6797 7.664-3.5742 12.281-3.5742 6.618 0 9.762 3.2617 9.762 7.5586 0 4.414-2.621 6.7187-9.34 9.2383-9.238 3.3593-13.543 8.3007-13.543 14.375 0 8.2031 6.723 14.922 17.532 14.922 5.144 0 9.66-1.3671 12.386-3.164l-2.203-6.7188c-1.996 1.2696-5.672 3.0469-10.394 3.0469-5.457 0-8.399-3.1445-8.399-6.9336 0-4.1992 2.942-6.0742 9.559-8.7109 8.711-3.2422 13.328-7.6563 13.328-15.215 0-9.0234-7.031-15.332-18.899-15.332-5.562 0-10.707 1.4648-14.277 3.5742l2.207 6.9336" style="fill:#231f20"/><path d="m564.8 28.555c0 3.7695 2.625 6.6016 6.297 6.6016s6.191-2.7149 6.191-6.6016c0-3.7891-2.519-6.6211-6.402-6.6211-3.57 0-6.086 2.832-6.086 6.6211" style="fill:#231f20"/><path d="m643.64 56.27h-27.399v-25.508h30.66v-7.6758h-39.894v70.762h38.312v-7.6563h-29.078v-22.363h27.399v-7.5586" style="fill:#231f20"/><path d="m656.35 60.156c0 5.3515-0.215 9.5507-0.43 13.75h8.086l0.43-8.3008h0.312c2.832 4.8242 7.559 9.3554 16.055 9.3554 6.836 0 12.07-4.1992 14.277-10.195h0.215c1.582 2.9492 3.672 5.0391 5.781 6.6211 3.027 2.3047 6.289 3.5742 11.113 3.5742 6.836 0 16.797-4.414 16.797-22.051v-29.824h-9.023v28.672c0 9.8633-3.672 15.644-11.016 15.644-5.351 0-9.355-3.8867-11.035-8.3007-0.41-1.3672-0.723-2.9493-0.723-4.6289v-31.387h-9.043v30.449c0 8.0859-3.554 13.867-10.585 13.867-5.684 0-9.981-4.6289-11.446-9.2382-0.527-1.2696-0.742-2.9493-0.742-4.5313v-30.547h-9.023v37.07" style="fill:#231f20"/><path d="m750.94 43.77c0-1.3672 0.118-2.6172 0.43-3.7695 1.68-6.4062 7.246-10.82 13.848-10.82 9.765 0 15.429 7.9883 15.429 19.629 0 10.078-5.351 18.789-15.117 18.789-6.289 0-12.285-4.3946-13.965-11.328-0.312-1.1523-0.625-2.5195-0.625-3.6718zm-9.121 13.555c0 6.5039-0.215 11.758-0.429 16.582h8.183l0.528-8.711h0.214c3.672 6.1914 9.766 9.7656 18.047 9.7656 12.403 0 21.641-10.41 21.641-25.723 0-18.281-11.231-27.305-23.203-27.305-6.719 0-12.598 2.9492-15.645 7.9883h-0.215v-27.617h-9.121v55.02" style="fill:#231f20"/><path d="m799.46 97.637h9.238v-74.551h-9.238v74.551" style="fill:#231f20"/><path d="m827.91 48.398c0-11.133 6.289-19.531 15.313-19.531 8.828 0 15.449 8.3008 15.449 19.727 0 8.6132-4.317 19.434-15.235 19.434-10.8 0-15.527-10.078-15.527-19.629zm40.195 0.5274c0-18.809-13.125-26.992-25.293-26.992-13.652 0-24.355 10.078-24.355 26.152 0 16.895 11.23 26.875 25.195 26.875 14.59 0 24.453-10.605 24.453-26.035" style="fill:#231f20"/><path d="m880.32 73.906 11.016-30.02c1.25-3.3594 2.52-7.3633 3.359-10.41h0.215c0.938 3.0468 1.992 6.9336 3.242 10.605l10.079 29.824h9.765l-13.847-36.23c-6.622-17.422-11.133-26.23-17.442-31.797-4.609-3.8867-9.023-5.4688-11.328-5.8789l-2.305 7.6562c2.305 0.74219 5.352 2.207 8.086 4.5118 2.52 1.9922 5.547 5.5664 7.754 10.293 0.43 0.9375 0.742 1.6797 0.742 2.2071 0 0.5273-0.214 1.25-0.742 2.4218l-18.672 46.816h10.078" style="fill:#231f20"/><path d="m980.67 24.883c-2.402-1.1523-7.754-2.9492-14.59-2.9492-15.312 0-25.293 10.391-25.293 25.938 0 15.644 10.703 27.09 27.285 27.09 5.469 0 10.293-1.3671 12.813-2.7343l-2.09-7.0313c-2.207 1.1524-5.684 2.4024-10.723 2.4024-11.64 0-17.949-8.711-17.949-19.199 0-11.758 7.559-19.004 17.637-19.004 5.254 0 8.711 1.25 11.347 2.4024l1.563-6.9141" style="fill:#231f20"/><path d="m989.4 97.637h9.239v-31.816h0.215c1.468 2.6172 3.768 5.0391 6.598 6.6211 2.74 1.5625 6 2.5195 9.46 2.5195 6.83 0 17.75-4.1992 17.75-21.641v-30.234h-9.24v29.199c0 8.1836-3.04 15-11.75 15-6 0-10.61-4.1993-12.408-9.1211-0.528-1.3672-0.625-2.7344-0.625-4.4141v-30.664h-9.239v74.551" style="fill:#231f20"/><path d="m1072.4 49.023c-10.08 0.2149-21.52-1.582-21.52-11.445 0-6.0937 3.98-8.8086 8.61-8.8086 6.72 0 11.01 4.1993 12.48 8.4961 0.31 1.0547 0.43 2.0899 0.43 2.9297zm8.92-13.75c0-4.414 0.2-8.7109 0.73-12.188h-8.28l-0.75 6.4063h-0.31c-2.83-3.9844-8.3-7.5586-15.55-7.5586-10.27 0-15.52 7.2461-15.52 14.59 0 12.285 10.91 19.004 30.54 18.906v1.0547c0 4.082-1.15 11.758-11.54 11.641-4.84 0-9.76-1.3672-13.34-3.7695l-2.09 6.1914c4.2 2.6172 10.39 4.414 16.8 4.414 15.53 0 19.31-10.605 19.31-20.684v-19.004" style="fill:#231f20"/><path d="m1094.1 60.156c0 5.3515-0.12 9.5507-0.43 13.75h8.18l0.53-8.3985h0.21c2.52 4.7266 8.4 9.4531 16.8 9.4531 7.03 0 17.95-4.1992 17.95-21.641v-30.234h-9.24v29.297c0 8.1836-3.05 15.02-11.76 15.02-5.97 0-10.7-4.3164-12.38-9.4531-0.43-1.1523-0.62-2.7344-0.62-4.3164v-30.547h-9.24v37.07" style="fill:#231f20"/><path d="m1184.5 53.848c0 1.582-0.12 2.9492-0.53 4.1015-1.68 5.4492-6.09 9.8633-12.91 9.8633-8.83 0-15.12-7.4609-15.12-19.219 0-9.961 5.14-18.262 15-18.262 5.78 0 10.92 3.5743 12.82 9.4532 0.52 1.582 0.74 3.3593 0.74 4.9414zm9.24-23.301c0-11.758-2.43-18.789-7.25-23.301-5.04-4.5117-12.19-6.0938-18.57-6.0938-6.1 0-12.82 1.4648-16.92 4.1992l2.31 7.1289c3.36-2.1875 8.61-4.0821 14.92-4.0821 9.43 0 16.37 4.9219 16.37 17.852v5.5469h-0.22c-2.71-4.7071-8.28-8.4961-16.15-8.4961-12.6 0-21.64 10.703-21.64 24.785 0 17.207 11.25 26.875 23.01 26.875 8.8 0 13.53-4.5312 15.84-8.7304h0.21l0.31 7.6758h8.19c-0.32-3.5743-0.41-7.7735-0.41-13.867v-29.492" style="fill:#231f20"/><path d="m1239.1 53.438c0.11 5.7617-2.4 14.902-12.82 14.902-9.43 0-13.43-8.496-14.16-14.902zm-27.09-6.6211c0.21-12.5 8.08-17.637 17.44-17.637 6.6 0 10.7 1.1523 14.06 2.6172l1.68-6.6016c-3.26-1.4648-8.92-3.2617-17.01-3.2617-15.65 0-24.98 10.391-24.98 25.723 0 15.332 9.02 27.305 23.83 27.305 16.7 0 20.99-14.492 20.99-23.848 0-1.875-0.09-3.2422-0.31-4.2969h-35.7" style="fill:#231f20"/><path d="m1253.9 28.555c0 3.7695 2.62 6.6016 6.29 6.6016s6.19-2.7149 6.19-6.6016c0-3.7891-2.52-6.6211-6.4-6.6211-3.56 0-6.08 2.832-6.08 6.6211" style="fill:#231f20"/></g></g></svg>
