<svg width="168" height="74" viewBox="0 0 168 74" fill="none" xmlns="http://www.w3.org/2000/svg">
<g clip-path="url(#clip0)">
<path d="M46.5202 31.1099C46.5202 32.9742 45.0557 34.4307 43.3097 34.4307C41.5637 34.4307 40.0992 32.916 40.0992 31.1099C40.0992 29.2456 41.5637 27.7891 43.3097 27.7891C45.0557 27.7891 46.5202 29.2456 46.5202 31.1099Z" fill="#FFCF01"/>
<path d="M58.5734 42.5296C58.5734 45.2096 56.4894 47.4234 53.8422 47.4234C51.195 47.4234 49.111 45.2678 49.111 42.5296C49.111 39.8496 51.2513 37.6357 53.8422 37.6357C56.4331 37.6357 58.5734 39.8496 58.5734 42.5296Z" fill="#FFCF01"/>
<path d="M46.4075 47.7143C46.4075 49.8117 44.7741 51.5595 42.6901 51.5595C40.6625 51.5595 38.9728 49.8699 38.9728 47.7143C38.9728 45.6169 40.6062 43.8691 42.6901 43.8691C44.7178 43.8691 46.4075 45.5587 46.4075 47.7143Z" fill="#FFCF01"/>
<path d="M43.873 56.2204C43.873 58.7256 41.9016 60.7064 39.536 60.7064C37.1141 60.7064 35.1991 58.6673 35.1991 56.2204C35.1991 53.7152 37.1704 51.7344 39.536 51.7344C41.9016 51.7344 43.873 53.7152 43.873 56.2204Z" fill="#FFCF01"/>
<path d="M34.1853 57.0366C34.1853 57.8522 33.5658 58.4931 32.7772 58.4931C31.9887 58.4931 31.3691 57.8522 31.3691 57.0366C31.3691 56.2209 31.9887 55.5801 32.7772 55.5801C33.5658 55.5801 34.1853 56.2209 34.1853 57.0366Z" fill="#FFCF01"/>
<path d="M57.447 56.4532C57.447 60.0071 54.6308 62.9201 51.1951 62.9201C47.7593 62.9201 44.9431 60.0071 44.9431 56.4532C44.9431 52.8993 47.7593 49.9863 51.1951 49.9863C54.6871 50.0446 57.447 52.8993 57.447 56.4532Z" fill="#FFCF01"/>
<path d="M31.2565 60.2406C31.2565 61.2311 30.4679 62.0467 29.5104 62.0467C28.5529 62.0467 27.7644 61.2311 27.7644 60.2406C27.7644 59.2502 28.5529 58.4346 29.5104 58.4346C30.4679 58.4346 31.2565 59.2502 31.2565 60.2406Z" fill="#FFCF01"/>
<path d="M37.1142 62.6871C37.1142 64.2601 35.8751 65.4836 34.4106 65.4836C32.8899 65.4836 31.7071 64.2019 31.7071 62.6871C31.7071 61.1141 32.9462 59.8906 34.4106 59.8906C35.8751 59.8906 37.1142 61.1141 37.1142 62.6871Z" fill="#FFCF01"/>
<path d="M46.1259 66.0081C46.1259 68.6298 44.0983 70.7272 41.5637 70.7272C39.0291 70.7272 37.0015 68.6298 37.0015 66.0081C37.0015 63.3864 39.0291 61.2891 41.5637 61.2891C44.0983 61.2891 46.1259 63.3864 46.1259 66.0081Z" fill="#FFCF01"/>
<path d="M52.6594 67.6399C52.6594 69.3294 51.364 70.6694 49.7306 70.6694C48.0972 70.6694 46.8018 69.3294 46.8018 67.6399C46.8018 65.9503 48.0972 64.6104 49.7306 64.6104C51.3077 64.6104 52.6594 65.9503 52.6594 67.6399Z" fill="#FFCF01"/>
<path d="M57.8976 66.0661C57.8976 67.4061 56.8275 68.513 55.532 68.513C54.2366 68.513 53.1664 67.4061 53.1664 66.0661C53.1664 64.7261 54.2366 63.6191 55.532 63.6191C56.8275 63.6191 57.8976 64.7261 57.8976 66.0661Z" fill="#FFCF01"/>
<path d="M64.9943 52.0256C64.9943 53.8899 63.5299 55.4047 61.7275 55.4047C59.9252 55.4047 58.4608 53.8899 58.4608 52.0256C58.4608 50.1612 59.9252 48.6465 61.7275 48.6465C63.5299 48.6465 64.9943 50.1612 64.9943 52.0256Z" fill="#FFCF01"/>
<path d="M63.9805 58.5511C63.9805 60.0076 62.7977 61.2311 61.3896 61.2311C59.9815 61.2311 58.7987 60.0076 58.7987 58.5511C58.7987 57.0946 59.9815 55.8711 61.3896 55.8711C62.854 55.8711 63.9805 57.0946 63.9805 58.5511Z" fill="#FFCF01"/>
<path d="M59.9816 62.4542C59.9816 63.2116 59.4184 63.7942 58.6862 63.7942C57.954 63.7942 57.3907 63.2116 57.3907 62.4542C57.3907 61.6969 57.954 61.1143 58.6862 61.1143C59.4184 61.1143 59.9816 61.6969 59.9816 62.4542Z" fill="#FFCF01"/>
<path d="M65.614 47.3068C65.614 48.0059 65.0507 48.6467 64.3185 48.6467C63.5863 48.6467 63.0231 48.0641 63.0231 47.3068C63.0231 46.5494 63.5863 45.9668 64.3185 45.9668C65.0507 45.9668 65.614 46.5494 65.614 47.3068Z" fill="#FFCF01"/>
<path d="M58.2919 49.462C58.2919 50.3359 57.616 50.9768 56.8275 50.9768C55.9827 50.9768 55.3631 50.2777 55.3631 49.462C55.3631 48.5881 56.039 47.9473 56.8275 47.9473C57.616 47.9473 58.2919 48.5881 58.2919 49.462Z" fill="#FFCF01"/>
<path d="M50.3502 47.7146C50.3502 48.6468 49.6179 49.4042 48.7168 49.4042C47.8156 49.4042 47.0834 48.6468 47.0834 47.7146C47.0834 46.7824 47.8156 45.9668 48.7168 45.9668C49.6179 45.9668 50.3502 46.7242 50.3502 47.7146Z" fill="#FFCF01"/>
<path d="M48.6042 39.4998C48.6042 41.7137 46.8581 43.5198 44.7178 43.5198C42.5775 43.5198 40.8315 41.7137 40.8315 39.4998C40.8315 37.286 42.5775 35.4799 44.7178 35.4799C46.8581 35.4216 48.6042 37.2277 48.6042 39.4998Z" fill="#FFCF01"/>
<path d="M54.7434 33.3829C54.7434 35.422 53.1664 37.1116 51.1387 37.1116C49.1674 37.1116 47.534 35.4803 47.534 33.3829C47.534 31.3438 49.1111 29.6543 51.1387 29.6543C53.11 29.7126 54.7434 31.3438 54.7434 33.3829Z" fill="#FFCF01"/>
<path d="M67.9796 32.742C67.9796 36.2376 65.2197 39.0923 61.8403 39.0923C58.4609 39.0923 55.701 36.2376 55.701 32.742C55.701 29.2464 58.4609 26.3916 61.8403 26.3916C65.2197 26.3916 67.9796 29.2464 67.9796 32.742Z" fill="#FFCF01"/>
<path d="M55.7572 21.381C55.7572 22.0219 55.2503 22.5462 54.6308 22.5462C54.0112 22.5462 53.5043 22.0219 53.5043 21.381C53.5043 20.7402 54.0112 20.2158 54.6308 20.2158C55.2503 20.2158 55.7572 20.7402 55.7572 21.381Z" fill="#FFCF01"/>
<path d="M56.2642 26.5657C56.2642 27.964 55.1377 29.0709 53.8423 29.0709C52.4905 29.0709 51.364 27.9057 51.364 26.5657C51.364 25.1675 52.4342 24.0605 53.8423 24.0605C55.1377 24.0605 56.2642 25.1675 56.2642 26.5657Z" fill="#FFCF01"/>
<path d="M72.9923 20.7405C72.9923 23.4205 70.9084 25.6344 68.2612 25.6344C65.6703 25.6344 63.53 23.4205 63.53 20.7405C63.53 18.0606 65.6139 15.8467 68.2612 15.8467C70.9084 15.8467 72.9923 18.0606 72.9923 20.7405Z" fill="#FFCF01"/>
<path d="M70.7395 27.9062C70.7395 28.7218 70.1199 29.3627 69.3314 29.3627C68.5428 29.3627 67.9233 28.7218 67.9233 27.9062C67.9233 27.0905 68.5428 26.4497 69.3314 26.4497C70.0636 26.3914 70.7395 27.0905 70.7395 27.9062Z" fill="#FFCF01"/>
<path d="M62.9104 21.73C62.9104 23.4778 61.5587 24.8761 59.8689 24.8761C58.1792 24.8761 56.8275 23.4778 56.8275 21.73C56.8275 19.9822 58.1792 18.584 59.8689 18.584C61.5587 18.584 62.9104 19.9822 62.9104 21.73Z" fill="#FFCF01"/>
<path d="M70.4578 12.001C70.4578 13.341 69.444 14.3896 68.1485 14.3896C66.8531 14.3896 65.8392 13.341 65.8392 12.001C65.8392 10.661 66.8531 9.6123 68.1485 9.6123C69.444 9.6123 70.4578 10.661 70.4578 12.001Z" fill="#FFCF01"/>
<path d="M65.6139 7.8642C65.6139 9.37897 64.4311 10.6024 62.9667 10.6024C61.5023 10.6024 60.3195 9.37897 60.3195 7.8642C60.3195 6.34944 61.5023 5.12598 62.9667 5.12598C64.4311 5.12598 65.6139 6.34944 65.6139 7.8642Z" fill="#FFCF01"/>
<path d="M65.1634 14.7978C65.1634 16.4873 63.8117 17.8855 62.1783 17.8855C60.5449 17.8855 59.1931 16.4873 59.1931 14.7978C59.1931 13.1082 60.5449 11.71 62.1783 11.71C63.868 11.71 65.1634 13.1082 65.1634 14.7978Z" fill="#FFCF01"/>
<path d="M29.3978 50.4531C30.9749 52.6087 33.9601 53.0165 35.9877 51.327C38.0717 49.6957 38.466 46.6079 36.8326 44.5105C35.2555 42.3549 32.2704 41.9471 30.2427 43.6366C28.215 45.2679 27.8208 48.3557 29.3978 50.4531Z" fill="#FFCF01"/>
<path d="M27.1448 40.8985C28.3276 42.4715 30.4679 42.7628 31.9886 41.5393C33.5094 40.3159 33.791 38.102 32.6082 36.529C31.4254 34.9559 29.2851 34.6646 27.7643 35.8881C26.2999 37.1116 26.0183 39.3837 27.1448 40.8985Z" fill="#FFCF01"/>
<path d="M15.7674 49.2874C17.8514 52.1421 21.7941 52.6664 24.5539 50.4526C27.3138 48.2969 27.8207 44.2187 25.7367 41.364C23.6528 38.5092 19.7101 37.9849 16.9502 40.1405C14.134 42.3544 13.6271 46.4326 15.7674 49.2874Z" fill="#FFCF01"/>
<path d="M20.7238 32.9747C21.1181 33.499 21.794 33.5573 22.3009 33.2077C22.8078 32.7999 22.8641 32.1008 22.5262 31.5764C22.1319 31.0521 21.456 30.9938 20.9491 31.3434C20.4422 31.7512 20.3859 32.4503 20.7238 32.9747Z" fill="#FFCF01"/>
<path d="M22.0194 37.2858C22.8642 38.3928 24.385 38.6258 25.4551 37.7519C26.5253 36.878 26.7506 35.305 25.9057 34.1981C25.0608 33.0911 23.5401 32.8581 22.47 33.732C21.3998 34.6059 21.2308 36.1789 22.0194 37.2858Z" fill="#FFCF01"/>
<path d="M5.74174 41.7718C7.20616 43.7526 9.9097 44.1022 11.7684 42.5874C13.6834 41.0727 14.0213 38.2762 12.5569 36.3536C11.0925 34.3727 8.38896 34.0232 6.53027 35.5379C4.67159 36.9944 4.27732 39.7909 5.74174 41.7718Z" fill="#FFCF01"/>
<path d="M10.5293 46.8402C10.9799 47.481 11.8811 47.5976 12.557 47.1315C13.1765 46.6654 13.2892 45.7332 12.8386 45.0924C12.388 44.4515 11.4868 44.335 10.8673 44.8011C10.1351 45.3254 10.0224 46.1993 10.5293 46.8402Z" fill="#FFCF01"/>
<path d="M14.2466 36.8783C15.2605 38.2766 17.1755 38.5096 18.5272 37.4609C19.879 36.4122 20.1043 34.4314 19.0905 33.0331C18.0767 31.6349 16.1616 31.4019 14.8099 32.4505C13.4581 33.5575 13.1765 35.5383 14.2466 36.8783Z" fill="#FFCF01"/>
<path d="M1.85545 34.4315C2.75663 35.6549 4.44634 35.888 5.62914 34.9558C6.81194 34.0237 7.03723 32.2759 6.13605 31.0524C5.23487 29.8289 3.54516 29.5959 2.36236 30.5281C1.17956 31.4602 0.954266 33.208 1.85545 34.4315Z" fill="#FFCF01"/>
<path d="M7.82571 32.6246C8.83954 33.9646 10.6982 34.1977 11.9937 33.2072C13.2891 32.1586 13.5144 30.236 12.5569 28.896C11.5431 27.556 9.68439 27.323 8.38895 28.3134C7.0935 29.3621 6.81188 31.2847 7.82571 32.6246Z" fill="#FFCF01"/>
<path d="M40.0429 40.7812C40.0429 42.1795 38.9728 43.2864 37.621 43.2864C36.2693 43.2864 35.1991 42.1795 35.1991 40.7812C35.1991 39.383 36.2693 38.2178 37.621 38.2178C38.9728 38.276 40.0429 39.383 40.0429 40.7812Z" fill="#FFCF01"/>
<path d="M40.5498 35.9457C40.5498 36.8196 39.8739 37.577 38.9727 37.577C38.1278 37.577 37.3956 36.8779 37.3956 35.9457C37.3956 35.0718 38.0715 34.3145 38.9727 34.3145C39.8739 34.3145 40.5498 35.0718 40.5498 35.9457Z" fill="#FFCF01"/>
<path d="M36.1002 37.0529C36.1002 37.519 35.7623 37.8686 35.3117 37.8686C34.8611 37.8686 34.5231 37.519 34.5231 37.0529C34.5231 36.5869 34.8611 36.2373 35.3117 36.2373C35.7059 36.2373 36.1002 36.5869 36.1002 37.0529Z" fill="#FFCF01"/>
<path d="M63.192 1.86373C63.192 2.67937 62.5724 3.32024 61.7839 3.32024C60.9954 3.32024 60.3758 2.67937 60.3758 1.86373C60.3758 1.04809 60.9954 0.407227 61.7839 0.407227C62.5161 0.407227 63.192 1.04809 63.192 1.86373Z" fill="#FFCF01"/>
<path d="M6.86834 25.0509C7.76952 25.8082 7.9385 27.2065 7.14996 28.1386C6.41775 29.0708 5.06598 29.2456 4.1648 28.4299C3.26362 27.6726 3.09465 26.2743 3.88318 25.3422C4.67172 24.41 5.96716 24.2935 6.86834 25.0509Z" fill="#FFCF01"/>
<path d="M2.86936 21.672C3.48892 22.1964 3.54524 23.1285 3.09465 23.7694C2.58774 24.4102 1.68656 24.5268 1.067 24.0024C0.447438 23.4781 0.391115 22.5459 0.841705 21.9051C1.40494 21.2642 2.2498 21.1477 2.86936 21.672Z" fill="#FFCF01"/>
<path d="M67.4164 4.36897C67.4164 5.00983 66.9095 5.59244 66.2336 5.59244C65.614 5.59244 65.0508 5.06809 65.0508 4.36897C65.0508 3.72811 65.5577 3.14551 66.2336 3.14551C66.9095 3.20377 67.4164 3.72811 67.4164 4.36897Z" fill="#FFCF01"/>
<path d="M39.6487 28.372C39.6487 29.7703 38.5786 30.8772 37.2268 30.8772C35.875 30.8772 34.7485 29.7703 34.7485 28.372C34.7485 26.9738 35.8187 25.8086 37.2268 25.8086C38.5222 25.8086 39.6487 26.9738 39.6487 28.372Z" fill="#FFCF01"/>
<path d="M34.0163 25.7505C34.0163 26.3914 33.5094 26.8574 32.9461 26.8574C32.3266 26.8574 31.876 26.3331 31.876 25.7505C31.876 25.1096 32.3829 24.6436 32.9461 24.6436C33.5094 24.6436 34.0163 25.1679 34.0163 25.7505Z" fill="#FFCF01"/>
<path d="M37.9027 32.9742C37.9027 33.8481 37.2268 34.489 36.4383 34.489C35.5934 34.489 34.9739 33.7899 34.9739 32.9742C34.9739 32.1003 35.6498 31.4594 36.4383 31.4594C37.2268 31.4012 37.9027 32.1003 37.9027 32.9742Z" fill="#FFCF01"/>
<path d="M61.3897 46.3166C61.3897 46.9574 60.8828 47.4818 60.2632 47.4818C59.6437 47.4818 59.1368 46.9574 59.1368 46.3166C59.1368 45.6757 59.6437 45.1514 60.2632 45.1514C60.8828 45.1514 61.3897 45.6757 61.3897 46.3166Z" fill="#FFCF01"/>
<path d="M82.5671 20.915L88.0305 33.9653L93.5503 20.915L96.5917 37.3444H94.8457L92.9307 26.8576H92.8744L88.0305 37.9853L83.243 26.8576H83.1867L81.2717 37.3444H79.5256L82.5671 20.915Z" fill="#83786F"/>
<path d="M100.14 31.111C100.14 32.2762 100.084 33.558 100.816 34.5484C101.492 35.4805 102.731 36.0049 103.858 36.0049C104.928 36.0049 106.111 35.4805 106.787 34.6066C107.575 33.6162 107.519 32.2762 107.519 31.0528V21.8477H109.209V31.5771C109.209 33.2667 109.096 34.6066 107.913 35.8884C106.899 37.0536 105.379 37.6362 103.858 37.6362C102.45 37.6362 100.985 37.0536 99.9715 36.0631C98.6761 34.7814 98.5071 33.3249 98.5071 31.5771V21.8477H100.197V31.111H100.14Z" fill="#83786F"/>
<path d="M118.953 24.8768C118.333 23.8281 117.657 23.1873 116.362 23.1873C115.01 23.1873 113.883 24.1777 113.883 25.5759C113.883 26.9159 115.235 27.5568 116.249 28.0229L117.263 28.489C119.234 29.3629 120.868 30.4115 120.868 32.8585C120.868 35.5967 118.727 37.6358 116.136 37.6358C113.715 37.6358 111.912 36.0045 111.462 33.6159L113.095 33.1498C113.32 34.7228 114.503 36.0628 116.08 36.0628C117.714 36.0628 119.178 34.7811 119.178 33.0332C119.178 31.2272 117.826 30.5863 116.418 29.9455L115.517 29.5376C113.771 28.722 112.25 27.7898 112.25 25.5759C112.25 23.1873 114.221 21.6143 116.474 21.6143C118.164 21.6143 119.572 22.4882 120.361 24.0029L118.953 24.8768Z" fill="#83786F"/>
<path d="M127.289 37.3439H125.599V23.4197H121.994V21.8467H130.95V23.4197H127.289V37.3439Z" fill="#83786F"/>
<path d="M136.582 25.1092L133.991 31.343H139.06L136.582 25.1092ZM133.315 32.9743L131.513 37.402H129.654L136.582 21.1475L143.341 37.402H141.482L139.68 32.9743H133.315Z" fill="#83786F"/>
<path d="M146.664 29.0127H147.171C149.086 29.0127 151.001 28.6631 151.001 26.2162C151.001 23.6527 149.199 23.4197 147.171 23.4197H146.664V29.0127ZM146.664 37.3439H144.974V21.8467H147.171C150.043 21.8467 152.691 22.6041 152.691 26.1579C152.691 28.5466 151.226 30.2361 148.917 30.4692L153.704 37.4604H151.677L147.115 30.644H146.72V37.3439H146.664Z" fill="#83786F"/>
<path d="M158.717 35.7709C160.576 35.7709 162.097 35.4796 163.448 34.1396C164.688 32.9744 165.307 31.3431 165.307 29.5953C165.307 27.8475 164.631 26.0997 163.336 24.9345C161.984 23.6527 160.463 23.4197 158.661 23.4197H157.422V35.7709H158.717ZM155.788 21.8467H158.605C160.857 21.8467 162.716 22.138 164.462 23.711C166.152 25.2258 166.94 27.3231 166.94 29.6535C166.94 31.9257 166.152 33.9065 164.519 35.4213C162.716 37.0526 160.914 37.4021 158.605 37.4021H155.788V21.8467V21.8467Z" fill="#83786F"/>
<path d="M94.5074 48.0053C93.3246 45.8496 91.9165 44.6262 89.3819 44.6262C86.7347 44.6262 84.4254 46.607 84.4254 49.4035C84.4254 52.0835 87.0727 53.307 89.1003 54.2391L91.0717 55.113C94.958 56.8608 98.2248 58.8999 98.2248 63.7938C98.2248 69.212 94.0568 73.3485 88.875 73.3485C84.0875 73.3485 80.5391 70.1441 79.5816 65.3668L82.8484 64.4346C83.299 67.5807 85.6082 70.1441 88.8187 70.1441C92.0292 70.1441 94.958 67.5807 94.958 64.1433C94.958 60.5312 92.2545 59.3077 89.4383 58.026L87.6359 57.2104C84.1438 55.5791 81.1587 53.7148 81.1587 49.287C81.1587 44.5097 85.1013 41.4219 89.4946 41.4219C92.8177 41.4219 95.6339 43.1697 97.2109 46.1992L94.5074 48.0053Z" fill="#83786F"/>
<path d="M103.126 42.0049H118.558V45.2092H106.449V54.356H118.22V57.5603H106.449V69.6785H118.558V72.8245H103.126V42.0049Z" fill="#83786F"/>
<path d="M124.247 42.0049H139.68V45.2092H127.57V54.356H139.342V57.5603H127.57V69.6785H139.68V72.8245H124.247V42.0049Z" fill="#83786F"/>
<path d="M151.114 69.6785C154.775 69.6785 157.816 69.1541 160.52 66.4742C162.998 64.0855 164.237 60.8812 164.237 57.4438C164.237 53.9482 162.942 50.5109 160.351 48.1805C157.647 45.6753 154.606 45.2092 151.114 45.2092H148.692V69.6785H151.114ZM145.369 42.0049H151.001C155.45 42.0049 159.112 42.6457 162.604 45.7335C165.983 48.7631 167.56 52.8995 167.56 57.5021C167.56 61.9881 165.983 65.9498 162.716 68.9793C159.168 72.2419 155.619 72.8828 150.945 72.8828H145.425V42.0049H145.369Z" fill="#83786F"/>
<path d="M84.3135 17.1862H82.7364V4.48547H79.4697V2.9707H87.6366V4.48547H84.3135V17.1862Z" fill="#83786F"/>
<path d="M97.8312 8.73846V2.9707H99.3519V17.1862H97.8312V10.2532H90.7907V17.1862H89.27V2.9707H90.7907V8.73846H97.8312Z" fill="#83786F"/>
<path d="M102.224 2.9707H109.321V4.48547H103.745V8.6802H109.152V10.1367H103.745V15.7297H109.321V17.1862H102.224V2.9707Z" fill="#83786F"/>
</g>
<defs>
<clipPath id="clip0">
<rect x="0.560059" y="0.407227" width="167" height="73" fill="white"/>
</clipPath>
</defs>
</svg>
