<svg width="512" height="512" viewBox="0 0 512 512" fill="none" xmlns="http://www.w3.org/2000/svg">
<path d="M512 256C512 114.6 397.4 0 256 0C114.6 0 0 114.6 0 256C0 397.4 114.6 512 256 512C397.4 512 512 397.4 512 256ZM265.9 382.8C259.9 380.3 256 374.5 256 368V304H160C142.33 304 128 289.67 128 272V240C128 222.33 142.33 208 160 208H256V144C256 137.531 259.891 131.69 265.875 129.22C271.859 126.736 278.735 128.111 283.315 132.689L395.315 244.689C401.563 250.937 401.563 261.069 395.315 267.309L283.315 379.309C278.7 383.9 271.9 385.3 265.9 382.8Z" fill="white"/>
</svg>
