<?xml version="1.0" encoding="UTF-8"?>
<svg xmlns="http://www.w3.org/2000/svg" xmlns:xlink="http://www.w3.org/1999/xlink" width="160pt" height="65.599998pt" viewBox="0 0 160 65.599998" version="1.1">
<g id="surface1">
<path style=" stroke:none;fill-rule:nonzero;fill:rgb(0%,0%,0%);fill-opacity:1;" d="M 28.558594 15.039062 C 18.71875 15.039062 14.640625 18.320312 14.640625 18.320312 L 14.640625 33.121094 C 14.640625 41.28125 25.519531 49.761719 28.558594 50.640625 C 31.601562 49.761719 42.480469 41.28125 42.480469 33.121094 L 42.480469 18.320312 C 42.558594 18.320312 38.480469 15.039062 28.558594 15.039062 Z M 28.558594 15.039062 "/>
<path style=" stroke:none;fill-rule:nonzero;fill:rgb(77%,77%,77%);fill-opacity:1;" d="M 26.878906 33.28125 C 26.960938 33.359375 26.960938 33.441406 26.960938 33.601562 C 26.960938 33.839844 26.71875 34.078125 26.480469 34.078125 C 26.238281 34.078125 26 33.839844 26 33.601562 C 26 33.441406 26.078125 33.359375 26.160156 33.28125 C 25.761719 33.199219 25.359375 33.039062 25.359375 33.039062 C 25.441406 33.28125 25.679688 34.398438 26.398438 34.480469 C 27.28125 34.558594 27.519531 33.761719 27.519531 33.761719 C 27.519531 33.761719 27.359375 33.441406 26.878906 33.28125 Z M 26.878906 33.28125 "/>
<path style=" stroke:none;fill-rule:nonzero;fill:rgb(77%,77%,77%);fill-opacity:1;" d="M 31.039062 33.199219 C 31.199219 33.28125 31.199219 33.441406 31.199219 33.601562 C 31.199219 33.839844 30.960938 34.078125 30.71875 34.078125 C 30.480469 34.078125 30.238281 33.839844 30.238281 33.601562 C 30.238281 33.519531 30.320312 33.359375 30.320312 33.28125 C 29.839844 33.441406 29.761719 33.679688 29.761719 33.679688 C 29.761719 33.679688 30 34.480469 30.878906 34.398438 C 31.601562 34.320312 31.761719 33.28125 31.921875 32.960938 C 31.839844 32.960938 31.441406 33.121094 31.039062 33.199219 Z M 31.039062 33.199219 "/>
<path style=" stroke:none;fill-rule:nonzero;fill:rgb(77%,77%,77%);fill-opacity:1;" d="M 31.921875 30.71875 C 31.601562 30.480469 31.28125 30.800781 31.519531 31.121094 C 31.761719 31.359375 31.921875 31.519531 31.839844 31.761719 C 31.679688 32 30.398438 31.921875 28.640625 32.558594 C 26.960938 31.921875 25.601562 32 25.441406 31.761719 C 25.359375 31.601562 25.519531 31.359375 25.761719 31.121094 C 26.078125 30.800781 25.679688 30.480469 25.359375 30.71875 C 25.121094 30.878906 24.640625 31.519531 24.800781 31.921875 C 25.039062 32.558594 26.558594 32.398438 28.558594 33.199219 C 30.558594 32.398438 32.078125 32.558594 32.320312 31.921875 C 32.558594 31.519531 32.160156 30.960938 31.921875 30.71875 Z M 31.921875 30.71875 "/>
<path style=" stroke:none;fill-rule:nonzero;fill:rgb(77%,77%,77%);fill-opacity:1;" d="M 30.078125 39.199219 C 29.839844 39.121094 29.359375 38.800781 29.199219 38.320312 C 29.121094 37.921875 29.28125 37.601562 29.441406 37.519531 C 29.601562 37.441406 29.839844 37.601562 29.761719 37.839844 C 29.679688 38 29.519531 38.078125 29.441406 38.160156 C 29.359375 38.238281 29.441406 38.398438 29.601562 38.320312 C 29.921875 38.238281 30.078125 37.921875 30.078125 37.679688 C 30.078125 37.28125 29.679688 37.199219 29.441406 37.28125 C 29.121094 37.359375 28.800781 37.679688 28.960938 38.320312 C 29.121094 38.878906 29.601562 39.199219 29.921875 39.359375 C 29.679688 39.441406 29.199219 39.519531 28.71875 39.601562 C 28.238281 39.601562 27.679688 39.519531 27.519531 39.359375 C 27.761719 39.199219 28.320312 38.960938 28.480469 38.320312 C 28.640625 37.679688 28.398438 37.359375 28 37.28125 C 27.761719 37.199219 27.359375 37.359375 27.359375 37.679688 C 27.359375 37.921875 27.519531 38.238281 27.839844 38.320312 C 28 38.320312 28.078125 38.238281 28 38.160156 C 27.921875 38.078125 27.761719 38 27.679688 37.839844 C 27.601562 37.601562 27.761719 37.519531 28 37.519531 C 28.160156 37.601562 28.398438 37.839844 28.238281 38.320312 C 28.078125 38.800781 27.679688 39.039062 27.359375 39.199219 C 27.121094 39.28125 27.121094 39.519531 27.28125 39.601562 C 27.761719 39.839844 28.398438 39.921875 28.800781 39.921875 C 29.199219 39.921875 29.921875 39.839844 30.320312 39.601562 C 30.320312 39.519531 30.320312 39.28125 30.078125 39.199219 Z M 30.078125 39.199219 "/>
<path style=" stroke:none;fill-rule:nonzero;fill:rgb(77%,77%,77%);fill-opacity:1;" d="M 28.640625 19.679688 C 28.800781 19.679688 28.878906 19.601562 29.039062 19.519531 L 29.121094 19.441406 C 29.28125 19.28125 29.519531 18.960938 29.601562 18.800781 L 29.601562 18.71875 C 29.601562 18.640625 29.441406 18.558594 29.441406 18.558594 C 29.359375 18.480469 28 18.480469 27.921875 18.558594 C 27.839844 18.640625 27.761719 18.71875 27.761719 18.800781 C 27.839844 18.960938 28.160156 19.359375 28.238281 19.441406 C 28.320312 19.601562 28.480469 19.679688 28.640625 19.679688 Z M 28.640625 19.679688 "/>
<path style=" stroke:none;fill-rule:nonzero;fill:rgb(77%,77%,77%);fill-opacity:1;" d="M 27.601562 20.320312 L 27.601562 19.839844 C 27.519531 19.679688 27.199219 19.359375 27.121094 19.199219 L 27.039062 19.199219 C 26.960938 19.199219 26.878906 19.28125 26.800781 19.28125 C 26.71875 19.359375 26.320312 20.558594 26.320312 20.71875 C 26.320312 20.800781 26.398438 20.960938 26.558594 20.878906 C 26.71875 20.878906 27.199219 20.71875 27.359375 20.640625 C 27.441406 20.558594 27.601562 20.398438 27.601562 20.320312 Z M 27.601562 20.320312 "/>
<path style=" stroke:none;fill-rule:nonzero;fill:rgb(77%,77%,77%);fill-opacity:1;" d="M 27.921875 21.441406 C 27.839844 21.359375 27.679688 21.359375 27.519531 21.359375 L 27.441406 21.359375 C 27.28125 21.359375 26.800781 21.519531 26.640625 21.601562 L 26.558594 21.679688 L 26.558594 21.921875 C 26.640625 22 27.679688 22.71875 27.839844 22.800781 C 27.921875 22.800781 28.078125 22.800781 28.078125 22.640625 L 28.078125 21.839844 C 28.160156 21.679688 28.078125 21.519531 27.921875 21.441406 Z M 27.921875 21.441406 "/>
<path style=" stroke:none;fill-rule:nonzero;fill:rgb(77%,77%,77%);fill-opacity:1;" d="M 29.121094 21.441406 C 29.039062 21.519531 28.960938 21.601562 28.878906 21.761719 L 28.878906 22.640625 C 28.878906 22.640625 28.878906 22.71875 28.960938 22.71875 C 29.039062 22.800781 29.121094 22.800781 29.199219 22.800781 C 29.359375 22.800781 30.398438 22 30.480469 21.921875 C 30.480469 21.839844 30.558594 21.679688 30.398438 21.679688 C 30.238281 21.601562 29.761719 21.441406 29.601562 21.441406 C 29.441406 21.359375 29.28125 21.441406 29.121094 21.441406 Z M 29.121094 21.441406 "/>
<path style=" stroke:none;fill-rule:nonzero;fill:rgb(77%,77%,77%);fill-opacity:1;" d="M 29.519531 20.398438 C 29.601562 20.480469 29.679688 20.640625 29.761719 20.71875 L 29.839844 20.71875 C 30 20.800781 30.480469 20.960938 30.640625 20.960938 L 30.71875 20.960938 C 30.800781 20.878906 30.800781 20.800781 30.800781 20.800781 C 30.800781 20.640625 30.398438 19.519531 30.320312 19.359375 C 30.238281 19.28125 30.078125 19.28125 30 19.28125 C 29.839844 19.359375 29.601562 19.761719 29.519531 19.921875 Z M 29.519531 20.398438 "/>
<path style=" stroke:none;fill-rule:nonzero;fill:rgb(77%,77%,77%);fill-opacity:1;" d="M 29.359375 20.480469 C 29.359375 20.398438 29.28125 20.398438 29.199219 20.320312 L 29.199219 20.160156 C 29.199219 20.078125 29.121094 19.921875 29.039062 19.921875 C 28.878906 19.839844 28.640625 19.839844 28.558594 19.921875 C 28.398438 19.839844 28.238281 19.839844 28.078125 19.921875 C 28 20 27.921875 20.078125 27.921875 20.160156 L 27.921875 20.398438 L 27.839844 20.480469 C 27.761719 20.558594 27.761719 20.71875 27.839844 20.800781 C 27.921875 20.960938 28.078125 21.121094 28.238281 21.121094 C 28.320312 21.28125 28.480469 21.359375 28.640625 21.359375 C 28.800781 21.359375 28.960938 21.199219 29.039062 21.039062 C 29.199219 21.039062 29.359375 20.878906 29.359375 20.800781 C 29.441406 20.71875 29.441406 20.640625 29.359375 20.480469 Z M 28.238281 20.960938 C 28.160156 20.960938 28.078125 20.960938 28.078125 20.878906 C 28.078125 20.800781 28.078125 20.71875 28.160156 20.71875 C 28.238281 20.71875 28.320312 20.71875 28.320312 20.800781 C 28.398438 20.878906 28.320312 20.960938 28.238281 20.960938 Z M 28.320312 20.480469 C 28.238281 20.558594 28.160156 20.480469 28.078125 20.480469 C 28 20.398438 28.078125 20.320312 28.078125 20.320312 C 28.160156 20.238281 28.238281 20.320312 28.320312 20.320312 C 28.398438 20.320312 28.398438 20.398438 28.320312 20.480469 Z M 28.640625 21.199219 C 28.558594 21.199219 28.480469 21.121094 28.480469 21.039062 C 28.480469 20.960938 28.558594 20.878906 28.640625 20.878906 C 28.71875 20.878906 28.800781 20.960938 28.800781 21.039062 C 28.800781 21.121094 28.71875 21.199219 28.640625 21.199219 Z M 28.640625 20.398438 C 28.558594 20.320312 28.558594 20.238281 28.640625 20.238281 C 28.71875 20.160156 28.800781 20.160156 28.878906 20.238281 C 28.960938 20.320312 28.960938 20.398438 28.878906 20.398438 Z M 28.960938 20.800781 C 28.878906 20.800781 28.878906 20.71875 28.878906 20.640625 C 28.878906 20.558594 28.960938 20.558594 29.039062 20.558594 C 29.121094 20.558594 29.121094 20.640625 29.121094 20.71875 C 29.121094 20.800781 29.039062 20.800781 28.960938 20.800781 Z M 28.960938 20.800781 "/>
<path style=" stroke:none;fill-rule:nonzero;fill:rgb(77%,77%,77%);fill-opacity:1;" d="M 20.878906 19.039062 C 20.480469 18.640625 20.238281 18.558594 20.160156 18.558594 C 20.078125 18.558594 20 18.558594 19.839844 18.71875 L 19.761719 18.800781 C 19.601562 19.039062 19.359375 19.28125 18.878906 19.28125 C 18.71875 19.28125 18.558594 19.199219 18.398438 19.121094 L 18.398438 22.398438 C 18.558594 22.640625 18.71875 22.800781 18.878906 22.800781 C 18.960938 22.800781 19.121094 22.71875 19.28125 22.558594 C 19.761719 22.078125 20.320312 22 20.878906 22.320312 Z M 20.878906 19.039062 "/>
<path style=" stroke:none;fill-rule:nonzero;fill:rgb(77%,77%,77%);fill-opacity:1;" d="M 23.441406 19.359375 C 23.039062 19.359375 22.800781 19.121094 22.558594 18.878906 L 22.480469 18.800781 C 22.320312 18.640625 22.238281 18.640625 22.160156 18.640625 C 22.078125 18.640625 21.839844 18.71875 21.441406 19.121094 L 21.441406 22.398438 C 21.679688 22.238281 21.921875 22.238281 22.078125 22.238281 C 22.398438 22.238281 22.71875 22.398438 23.039062 22.71875 C 23.199219 22.960938 23.359375 22.960938 23.441406 22.960938 C 23.601562 22.960938 23.761719 22.800781 23.921875 22.558594 L 23.921875 19.199219 C 23.761719 19.28125 23.601562 19.359375 23.441406 19.359375 "/>
<path style=" stroke:none;fill-rule:nonzero;fill:rgb(77%,77%,77%);fill-opacity:1;" d="M 36.320312 22.320312 C 36.878906 22 37.441406 22.078125 37.921875 22.558594 C 38.078125 22.800781 38.238281 22.800781 38.320312 22.800781 C 38.480469 22.800781 38.640625 22.640625 38.800781 22.398438 L 38.800781 19.199219 C 38.640625 19.28125 38.480469 19.359375 38.320312 19.359375 C 37.921875 19.359375 37.679688 19.121094 37.441406 18.878906 L 37.359375 18.800781 C 37.199219 18.640625 37.121094 18.640625 37.039062 18.640625 C 36.960938 18.640625 36.71875 18.71875 36.320312 19.121094 Z M 36.320312 22.320312 "/>
<path style=" stroke:none;fill-rule:nonzero;fill:rgb(77%,77%,77%);fill-opacity:1;" d="M 33.761719 19.359375 C 33.601562 19.359375 33.441406 19.28125 33.28125 19.199219 L 33.28125 22.398438 C 33.441406 22.640625 33.601562 22.800781 33.761719 22.800781 C 33.839844 22.800781 34 22.71875 34.160156 22.558594 C 34.480469 22.238281 34.71875 22.078125 35.121094 22.078125 C 35.359375 22.078125 35.601562 22.160156 35.761719 22.238281 L 35.761719 18.960938 C 35.359375 18.558594 35.121094 18.480469 35.039062 18.480469 C 34.960938 18.480469 34.878906 18.480469 34.71875 18.640625 L 34.640625 18.71875 C 34.398438 19.039062 34.160156 19.359375 33.761719 19.359375 "/>
<path style=" stroke:none;fill-rule:nonzero;fill:rgb(77%,77%,77%);fill-opacity:1;" d="M 25.359375 28.960938 C 24.320312 28.640625 22.238281 27.601562 21.359375 25.121094 C 21.121094 24.480469 20.800781 24.558594 20.878906 25.28125 C 21.039062 27.039062 22.160156 29.199219 24.480469 30.160156 C 25.519531 30.558594 26.078125 29.199219 25.359375 28.960938 Z M 25.359375 28.960938 "/>
<path style=" stroke:none;fill-rule:nonzero;fill:rgb(77%,77%,77%);fill-opacity:1;" d="M 31.921875 28.960938 C 32.960938 28.640625 35.039062 27.601562 35.921875 25.121094 C 36.160156 24.480469 36.480469 24.558594 36.398438 25.28125 C 36.238281 27.039062 35.121094 29.199219 32.800781 30.160156 C 31.761719 30.558594 31.199219 29.199219 31.921875 28.960938 Z M 31.921875 28.960938 "/>
<path style=" stroke:none;fill-rule:nonzero;fill:rgb(77%,77%,77%);fill-opacity:1;" d="M 31.28125 28.480469 C 31.441406 28.480469 31.601562 28.398438 31.839844 28.320312 C 32.480469 28.078125 33.601562 27.519531 34.480469 26.398438 C 32.480469 26 30.480469 25.839844 28.71875 25.839844 C 26.878906 25.839844 24.878906 26.078125 22.878906 26.480469 C 23.761719 27.679688 24.960938 28.238281 25.601562 28.398438 C 25.761719 28.480469 26 28.480469 26.078125 28.558594 C 26.398438 28.640625 26.640625 28.640625 27.039062 28.398438 C 27.359375 28.078125 27.441406 27.921875 28.800781 27.921875 C 30.078125 27.921875 30.160156 28.078125 30.480469 28.398438 C 30.71875 28.558594 30.960938 28.480469 31.28125 28.480469 Z M 31.28125 28.480469 "/>
<path style=" stroke:none;fill-rule:nonzero;fill:rgb(77%,77%,77%);fill-opacity:1;" d="M 38 31.601562 L 35.121094 36.398438 C 36.238281 35.921875 37.839844 34.640625 38 31.601562 Z M 38 31.601562 "/>
<path style=" stroke:none;fill-rule:nonzero;fill:rgb(77%,77%,77%);fill-opacity:1;" d="M 22.078125 36.398438 L 19.199219 31.601562 C 19.359375 34.640625 20.960938 35.921875 22.078125 36.398438 Z M 22.078125 36.398438 "/>
<path style=" stroke:none;fill-rule:nonzero;fill:rgb(77%,77%,77%);fill-opacity:1;" d="M 36.640625 26.878906 C 36.238281 28 35.519531 29.121094 34.398438 29.921875 C 35.28125 30.238281 36.480469 30.238281 37.28125 29.679688 C 37.039062 30.320312 36.160156 31.28125 35.601562 31.839844 C 35.519531 31.761719 35.359375 31.679688 35.28125 31.601562 C 35.039062 31.359375 34.800781 31.601562 34.960938 31.761719 C 35.039062 31.839844 35.199219 32.078125 35.28125 32.078125 L 34.960938 32.398438 C 34.800781 32.320312 34.71875 32.238281 34.640625 32.160156 C 34.398438 31.921875 34.160156 32.160156 34.320312 32.320312 C 34.398438 32.398438 34.558594 32.640625 34.640625 32.71875 C 34.480469 32.800781 34.320312 32.960938 34.160156 33.039062 C 33.839844 32.640625 33.519531 32.238281 33.039062 32.480469 C 32.558594 32.71875 33.039062 33.121094 33.039062 33.601562 C 33.039062 35.679688 31.761719 36.480469 31.441406 37.359375 C 31.121094 38.238281 30.800781 39.839844 30.558594 40.238281 C 30.320312 40.640625 29.199219 41.121094 28.71875 40.71875 C 28.238281 41.121094 27.121094 40.640625 26.878906 40.238281 C 26.640625 39.839844 26.320312 38.238281 26 37.359375 C 25.679688 36.480469 24.398438 35.679688 24.398438 33.601562 C 24.398438 33.121094 24.878906 32.71875 24.398438 32.480469 C 23.921875 32.238281 23.601562 32.640625 23.28125 33.039062 C 23.121094 32.960938 22.960938 32.800781 22.800781 32.71875 C 22.878906 32.640625 23.039062 32.398438 23.121094 32.320312 C 23.28125 32.078125 23.039062 31.839844 22.800781 32.160156 C 22.71875 32.238281 22.558594 32.398438 22.480469 32.398438 L 22.160156 32.078125 C 22.238281 32 22.398438 31.761719 22.480469 31.761719 C 22.640625 31.519531 22.398438 31.28125 22.160156 31.601562 C 22.078125 31.679688 22 31.761719 21.839844 31.839844 C 21.199219 31.28125 20.398438 30.398438 20.160156 29.679688 C 20.960938 30.238281 22 30.160156 22.960938 29.839844 C 21.839844 28.960938 21.121094 27.921875 20.71875 26.800781 C 18.960938 27.28125 17.28125 27.921875 15.921875 28.640625 L 15.921875 33.039062 C 15.921875 40.160156 26.160156 48.398438 28.71875 49.121094 C 31.359375 48.398438 41.519531 40.160156 41.519531 33.039062 L 41.519531 28.558594 C 40.078125 28 38.398438 27.359375 36.640625 26.878906 Z M 37.28125 40.078125 C 36.71875 40.558594 36.320312 40.800781 35.921875 41.121094 C 35.121094 41.679688 34.878906 41.921875 34.878906 42.320312 L 35.039062 44 L 34 43.519531 C 33.199219 43.199219 32.800781 42.71875 32.800781 41.921875 C 32.71875 40.71875 33.441406 39.519531 34.800781 38.558594 C 35.121094 38.320312 35.441406 38.238281 35.601562 38.078125 C 35.839844 38 36 37.839844 36.078125 37.761719 C 36.160156 37.601562 35.839844 37.441406 35.121094 37.121094 C 35.039062 37.121094 34.878906 37.039062 34.800781 36.960938 L 28.640625 47.121094 L 22.480469 36.960938 C 22.320312 37.039062 22.238281 37.039062 22.160156 37.121094 C 21.441406 37.441406 21.199219 37.679688 21.199219 37.761719 C 21.199219 37.839844 21.441406 37.921875 21.679688 38.078125 C 21.921875 38.160156 22.160156 38.320312 22.480469 38.558594 C 23.839844 39.441406 24.558594 40.71875 24.480469 41.921875 C 24.398438 42.71875 24 43.199219 23.28125 43.519531 L 22.160156 44 L 22.320312 42.320312 C 22.320312 41.921875 22.078125 41.679688 21.28125 41.121094 C 20.960938 40.878906 20.480469 40.558594 19.921875 40.078125 C 16.480469 37.28125 16.320312 33.839844 17.359375 32.320312 C 17.679688 31.839844 18.640625 30.800781 18.640625 30.800781 L 18.480469 30.558594 C 18.160156 30.558594 17.839844 30.238281 17.839844 29.921875 C 17.839844 29.519531 18.160156 29.199219 18.558594 29.199219 C 18.960938 29.199219 19.28125 29.519531 19.28125 29.921875 L 19.28125 30.160156 L 28.640625 45.761719 L 38 30.160156 L 38 29.921875 C 38 29.519531 38.320312 29.199219 38.71875 29.199219 C 39.121094 29.199219 39.441406 29.519531 39.441406 29.921875 C 39.441406 30.238281 39.199219 30.558594 38.800781 30.558594 L 38.640625 30.800781 C 38.640625 30.800781 39.601562 31.839844 39.921875 32.320312 C 40.800781 33.839844 40.71875 37.28125 37.28125 40.078125 Z M 37.28125 40.078125 "/>
<path style=" stroke:none;fill-rule:nonzero;fill:rgb(29%,29%,29%);fill-opacity:1;" d="M 28.558594 16.078125 C 19.121094 16.078125 15.761719 18.960938 15.761719 18.960938 L 15.761719 27.441406 C 17.039062 26.800781 18.558594 26.238281 20.238281 25.839844 C 20.238281 25.679688 20.160156 25.519531 20.160156 25.359375 C 20.078125 24.878906 20.238281 24.558594 20.398438 24.320312 C 20.558594 24.160156 20.800781 24.078125 20.960938 24.078125 C 21.199219 24.078125 21.679688 24.160156 21.921875 24.960938 L 22.160156 25.441406 C 24.320312 25.039062 26.558594 24.800781 28.558594 24.800781 C 30.558594 24.800781 32.800781 25.039062 34.960938 25.441406 C 35.039062 25.28125 35.121094 25.121094 35.121094 24.960938 C 35.359375 24.238281 35.839844 24.078125 36.078125 24.078125 C 36.320312 24.078125 36.480469 24.160156 36.640625 24.320312 C 36.878906 24.558594 36.960938 24.878906 36.878906 25.359375 C 36.878906 25.519531 36.800781 25.679688 36.800781 25.839844 C 38.398438 26.238281 40 26.800781 41.28125 27.441406 L 41.28125 18.960938 C 41.441406 18.960938 38.078125 16.078125 28.558594 16.078125 Z M 24.71875 23.519531 L 23.441406 23.359375 L 23.359375 23.359375 L 21.679688 23.121094 L 21.679688 23.441406 L 20.71875 23.441406 L 20.71875 23.121094 L 17.679688 23.761719 L 17.679688 19.039062 L 17.921875 18.960938 L 17.921875 18.238281 L 18.398438 18.558594 C 18.71875 18.800781 18.878906 18.878906 18.960938 18.878906 C 19.121094 18.878906 19.199219 18.800781 19.359375 18.558594 C 19.359375 18.480469 19.441406 18.480469 19.441406 18.398438 C 19.679688 18.160156 19.839844 18.078125 20.160156 18.078125 C 20.480469 18.078125 20.800781 18.238281 21.199219 18.558594 C 21.601562 18.238281 21.921875 18.078125 22.238281 18.078125 C 22.480469 18.078125 22.71875 18.160156 22.960938 18.398438 C 22.960938 18.480469 23.039062 18.480469 23.039062 18.558594 C 23.199219 18.71875 23.28125 18.878906 23.441406 18.878906 C 23.519531 18.878906 23.761719 18.800781 24 18.558594 L 24.398438 18.238281 L 24.398438 18.960938 L 24.640625 19.039062 L 24.640625 23.519531 Z M 31.519531 21.519531 C 31.441406 21.679688 31.28125 21.761719 31.039062 21.761719 C 31.039062 21.921875 31.039062 22 30.960938 22.078125 C 30.800781 22.238281 29.441406 23.28125 29.199219 23.28125 L 28.878906 23.28125 C 28.800781 23.519531 28.71875 23.679688 28.558594 23.679688 C 28.398438 23.679688 28.320312 23.519531 28.238281 23.359375 C 28.160156 23.359375 28.078125 23.441406 28 23.441406 L 27.921875 23.441406 C 27.679688 23.359375 26.320312 22.398438 26.160156 22.238281 C 26.160156 22.160156 26.078125 22.078125 26.078125 22 C 25.839844 22 25.679688 21.921875 25.601562 21.761719 C 25.519531 21.601562 25.679688 21.441406 25.839844 21.359375 C 25.761719 21.28125 25.679688 21.121094 25.679688 21.039062 C 25.679688 20.800781 26.238281 19.199219 26.320312 19.039062 C 26.320312 18.960938 26.480469 18.960938 26.558594 18.878906 C 26.480469 18.71875 26.480469 18.480469 26.640625 18.398438 C 26.71875 18.320312 26.960938 18.320312 27.121094 18.480469 C 27.199219 18.398438 27.28125 18.238281 27.359375 18.238281 C 27.519531 18.160156 28.078125 18.160156 28.320312 18.160156 C 28.71875 18.160156 29.359375 18.160156 29.519531 18.238281 C 29.601562 18.238281 29.679688 18.320312 29.761719 18.480469 C 29.921875 18.320312 30.160156 18.320312 30.238281 18.398438 C 30.320312 18.480469 30.398438 18.640625 30.320312 18.878906 C 30.480469 18.878906 30.558594 18.960938 30.640625 19.039062 C 30.800781 19.199219 31.28125 20.800781 31.28125 21.039062 C 31.28125 21.121094 31.199219 21.199219 31.121094 21.359375 C 31.441406 21.199219 31.601562 21.359375 31.519531 21.519531 Z M 39.519531 23.679688 L 36.480469 23.039062 L 36.480469 23.359375 L 35.519531 23.359375 L 35.519531 23.039062 L 33.839844 23.28125 L 33.761719 23.28125 L 32.480469 23.441406 L 32.480469 18.960938 L 32.71875 18.878906 L 32.71875 18.160156 L 33.121094 18.480469 C 33.441406 18.71875 33.601562 18.800781 33.679688 18.800781 C 33.839844 18.800781 33.921875 18.71875 34.078125 18.480469 C 34.078125 18.398438 34.160156 18.398438 34.160156 18.320312 C 34.398438 18.078125 34.558594 18 34.878906 18 C 35.199219 18 35.519531 18.160156 35.921875 18.480469 C 36.320312 18.160156 36.640625 18 36.960938 18 C 37.199219 18 37.441406 18.078125 37.679688 18.320312 C 37.679688 18.398438 37.761719 18.398438 37.761719 18.480469 C 37.921875 18.640625 38 18.800781 38.160156 18.800781 C 38.238281 18.800781 38.480469 18.71875 38.71875 18.480469 L 39.199219 18.160156 L 39.199219 18.878906 L 39.441406 18.960938 L 39.441406 23.679688 Z M 39.519531 23.679688 "/>
<path style=" stroke:none;fill-rule:nonzero;fill:rgb(29%,29%,29%);fill-opacity:1;" d="M 35.921875 36.800781 C 36.320312 37.039062 36.800781 37.359375 36.800781 37.839844 C 36.800781 38.320312 36.398438 38.558594 35.921875 38.800781 C 35.679688 38.878906 35.441406 39.039062 35.199219 39.199219 C 34.800781 39.441406 33.441406 40.480469 33.519531 41.839844 C 33.601562 42.320312 33.761719 42.558594 34.238281 42.800781 L 34.160156 42.160156 C 34.160156 41.519531 34.71875 41.039062 35.519531 40.480469 C 35.839844 40.238281 36.320312 39.921875 36.800781 39.519531 C 39.761719 37.121094 40.078125 34.078125 39.199219 32.71875 C 39.121094 32.558594 38.878906 32.320312 38.71875 32.078125 C 38.480469 34.71875 37.121094 36.078125 35.921875 36.800781 Z M 35.921875 36.800781 "/>
<path style=" stroke:none;fill-rule:nonzero;fill:rgb(29%,29%,29%);fill-opacity:1;" d="M 18.480469 32.078125 C 18.320312 32.320312 18.160156 32.558594 18 32.71875 C 17.121094 34.078125 17.441406 37.121094 20.398438 39.519531 C 20.960938 39.921875 21.359375 40.238281 21.679688 40.480469 C 22.480469 41.039062 23.039062 41.519531 23.039062 42.160156 L 22.960938 42.800781 C 23.441406 42.558594 23.601562 42.320312 23.679688 41.839844 C 23.839844 40.480469 22.480469 39.441406 22 39.199219 C 21.679688 39.039062 21.441406 38.878906 21.28125 38.800781 C 20.878906 38.558594 20.398438 38.398438 20.398438 37.839844 C 20.398438 37.359375 20.800781 37.039062 21.28125 36.800781 C 20.160156 36.078125 18.71875 34.71875 18.480469 32.078125 Z M 18.480469 32.078125 "/>
<path style=" stroke:none;fill-rule:nonzero;fill:rgb(0%,0%,0%);fill-opacity:1;" d="M 49.039062 22.800781 L 49.039062 18.398438 L 50.71875 18.398438 L 50.71875 22.800781 C 50.71875 24.078125 51.359375 24.71875 52.320312 24.71875 C 53.359375 24.71875 53.921875 24.078125 53.921875 22.878906 L 53.921875 18.398438 L 55.601562 18.398438 L 55.601562 22.800781 C 55.601562 25.121094 54.320312 26.320312 52.320312 26.320312 C 50.320312 26.238281 49.039062 25.039062 49.039062 22.800781 Z M 49.039062 22.800781 "/>
<path style=" stroke:none;fill-rule:nonzero;fill:rgb(0%,0%,0%);fill-opacity:1;" d="M 58 18.320312 L 59.519531 18.320312 L 63.039062 23.121094 L 63.039062 18.320312 L 64.71875 18.320312 L 64.71875 26.078125 L 63.28125 26.078125 L 59.601562 21.121094 L 59.601562 26.078125 L 57.921875 26.078125 L 57.921875 18.320312 Z M 58 18.320312 "/>
<path style=" stroke:none;fill-rule:nonzero;fill:rgb(0%,0%,0%);fill-opacity:1;" d="M 67.199219 18.320312 L 68.878906 18.320312 L 68.878906 26.078125 L 67.199219 26.078125 Z M 67.199219 18.320312 "/>
<path style=" stroke:none;fill-rule:nonzero;fill:rgb(0%,0%,0%);fill-opacity:1;" d="M 70.800781 18.320312 L 72.640625 18.320312 L 74.640625 23.761719 L 76.640625 18.320312 L 78.398438 18.320312 L 75.359375 26.160156 L 73.921875 26.160156 Z M 70.800781 18.320312 "/>
<path style=" stroke:none;fill-rule:nonzero;fill:rgb(0%,0%,0%);fill-opacity:1;" d="M 80.160156 18.320312 L 85.839844 18.320312 L 85.839844 19.839844 L 81.761719 19.839844 L 81.761719 21.441406 L 85.359375 21.441406 L 85.359375 22.960938 L 81.761719 22.960938 L 81.761719 24.558594 L 85.839844 24.558594 L 85.839844 26.078125 L 80.078125 26.078125 L 80.078125 18.320312 Z M 80.160156 18.320312 "/>
<path style=" stroke:none;fill-rule:nonzero;fill:rgb(0%,0%,0%);fill-opacity:1;" d="M 88.480469 18.320312 L 91.921875 18.320312 C 92.878906 18.320312 93.601562 18.558594 94.160156 19.121094 C 94.558594 19.519531 94.800781 20.160156 94.800781 20.878906 C 94.800781 22.160156 94.160156 22.960938 93.199219 23.28125 L 95.039062 26.078125 L 93.121094 26.078125 L 91.519531 23.601562 L 90.238281 23.601562 L 90.238281 26.078125 L 88.558594 26.078125 L 88.558594 18.320312 Z M 91.839844 22.160156 C 92.640625 22.160156 93.121094 21.679688 93.121094 21.039062 C 93.121094 20.320312 92.640625 19.921875 91.839844 19.921875 L 90.160156 19.921875 L 90.160156 22.160156 Z M 91.839844 22.160156 "/>
<path style=" stroke:none;fill-rule:nonzero;fill:rgb(0%,0%,0%);fill-opacity:1;" d="M 96.878906 24.960938 L 97.839844 23.761719 C 98.558594 24.320312 99.199219 24.71875 100.078125 24.71875 C 100.800781 24.71875 101.199219 24.480469 101.199219 24 C 101.199219 23.601562 100.960938 23.359375 99.679688 23.039062 C 98.160156 22.640625 97.199219 22.238281 97.199219 20.640625 C 97.199219 19.199219 98.320312 18.320312 99.839844 18.320312 C 100.960938 18.320312 101.921875 18.640625 102.640625 19.28125 L 101.761719 20.558594 C 101.121094 20.078125 100.398438 19.761719 99.761719 19.761719 C 99.121094 19.761719 98.800781 20.078125 98.800781 20.398438 C 98.800781 20.878906 99.121094 21.039062 100.398438 21.441406 C 101.921875 21.839844 102.800781 22.398438 102.800781 23.761719 C 102.800781 25.28125 101.679688 26.160156 100 26.160156 C 98.878906 26.238281 97.761719 25.839844 96.878906 24.960938 Z M 96.878906 24.960938 "/>
<path style=" stroke:none;fill-rule:nonzero;fill:rgb(0%,0%,0%);fill-opacity:1;" d="M 105.199219 18.320312 L 106.878906 18.320312 L 106.878906 26.078125 L 105.199219 26.078125 Z M 105.199219 18.320312 "/>
<path style=" stroke:none;fill-rule:nonzero;fill:rgb(0%,0%,0%);fill-opacity:1;" d="M 111.199219 19.921875 L 108.878906 19.921875 L 108.878906 18.320312 L 115.121094 18.320312 L 115.121094 19.921875 L 112.800781 19.921875 L 112.800781 26.078125 L 111.199219 26.078125 Z M 111.199219 19.921875 "/>
<path style=" stroke:none;fill-rule:nonzero;fill:rgb(0%,0%,0%);fill-opacity:1;" d="M 119.441406 23.039062 L 116.558594 18.320312 L 118.480469 18.320312 L 120.320312 21.441406 L 122.160156 18.320312 L 124.078125 18.320312 L 121.199219 22.960938 L 121.199219 26.078125 L 119.519531 26.078125 L 119.519531 23.039062 Z M 119.441406 23.039062 "/>
<path style=" stroke:none;fill-rule:nonzero;fill:rgb(0%,0%,0%);fill-opacity:1;" d="M 129.28125 22.238281 L 129.28125 22.238281 C 129.28125 20 130.960938 18.238281 133.28125 18.238281 C 135.601562 18.238281 137.28125 20 137.28125 22.238281 C 137.28125 24.480469 135.601562 26.238281 133.28125 26.238281 C 130.960938 26.238281 129.28125 24.480469 129.28125 22.238281 Z M 135.601562 22.238281 L 135.601562 22.238281 C 135.601562 20.878906 134.640625 19.761719 133.28125 19.761719 C 131.921875 19.761719 131.039062 20.878906 131.039062 22.160156 C 131.039062 23.519531 132 24.640625 133.359375 24.640625 C 134.640625 24.640625 135.601562 23.601562 135.601562 22.238281 Z M 135.601562 22.238281 "/>
<path style=" stroke:none;fill-rule:nonzero;fill:rgb(0%,0%,0%);fill-opacity:1;" d="M 139.121094 18.320312 L 144.878906 18.320312 L 144.878906 19.839844 L 140.800781 19.839844 L 140.800781 21.519531 L 144.398438 21.519531 L 144.398438 23.039062 L 140.800781 23.039062 L 140.800781 26.078125 L 139.121094 26.078125 Z M 139.121094 18.320312 "/>
<path style=" stroke:none;fill-rule:nonzero;fill:rgb(0%,0%,0%);fill-opacity:1;" d="M 55.359375 29.199219 C 51.199219 29.199219 48.078125 32.398438 48.078125 36.71875 L 48.078125 36.800781 C 48.078125 38.800781 48.800781 40.71875 50.078125 42.078125 C 51.441406 43.441406 53.199219 44.238281 55.199219 44.238281 C 57.519531 44.238281 59.199219 43.519531 60.878906 41.679688 L 59.359375 40.078125 C 58.160156 41.199219 57.039062 41.921875 55.28125 41.921875 C 52.640625 41.921875 50.558594 39.601562 50.558594 36.640625 L 50.558594 36.558594 C 50.558594 33.601562 52.558594 31.359375 55.28125 31.359375 C 56.71875 31.359375 57.921875 31.921875 59.28125 33.121094 L 60.800781 31.28125 C 59.679688 30.320312 58.160156 29.199219 55.359375 29.199219 Z M 55.359375 29.199219 "/>
<path style=" stroke:none;fill-rule:nonzero;fill:rgb(0%,0%,0%);fill-opacity:1;" d="M 73.839844 43.921875 L 76.480469 43.921875 L 70.320312 29.359375 L 67.839844 29.359375 L 61.679688 43.921875 L 64.238281 43.921875 L 65.679688 40.398438 L 72.480469 40.398438 Z M 71.601562 38.320312 L 66.558594 38.320312 L 69.121094 32.238281 Z M 71.601562 38.320312 "/>
<path style=" stroke:none;fill-rule:nonzero;fill:rgb(0%,0%,0%);fill-opacity:1;" d="M 115.28125 43.921875 L 117.921875 43.921875 L 111.761719 29.359375 L 109.28125 29.359375 L 103.121094 43.921875 L 105.679688 43.921875 L 107.121094 40.398438 L 113.921875 40.398438 Z M 112.960938 38.320312 L 107.921875 38.320312 L 110.480469 32.238281 Z M 112.960938 38.320312 "/>
<path style=" stroke:none;fill-rule:nonzero;fill:rgb(0%,0%,0%);fill-opacity:1;" d="M 78 43.921875 L 88 43.921875 L 88 41.679688 L 80.558594 41.679688 L 80.558594 29.441406 L 78 29.441406 Z M 78 43.921875 "/>
<path style=" stroke:none;fill-rule:nonzero;fill:rgb(0%,0%,0%);fill-opacity:1;" d="M 95.679688 29.199219 C 91.601562 29.199219 88.320312 32.480469 88.320312 36.71875 L 88.320312 36.800781 C 88.320312 41.199219 91.441406 44.238281 95.761719 44.238281 C 98.480469 44.238281 100.398438 43.039062 101.839844 42 L 101.839844 35.921875 L 96 35.921875 L 96 38 L 99.28125 38 L 99.28125 40.800781 C 98.320312 41.519531 97.121094 41.921875 95.839844 41.921875 C 92.960938 41.921875 90.960938 39.761719 90.960938 36.640625 L 90.960938 36.558594 C 90.960938 33.679688 93.039062 31.359375 95.601562 31.359375 C 97.441406 31.359375 98.480469 32 99.601562 32.878906 L 101.121094 31.039062 C 99.441406 29.761719 97.839844 29.199219 95.679688 29.199219 Z M 95.679688 29.199219 "/>
<path style=" stroke:none;fill-rule:nonzero;fill:rgb(0%,0%,0%);fill-opacity:1;" d="M 128.71875 43.921875 L 131.519531 43.921875 L 127.679688 38.398438 L 127.761719 38.398438 C 129.921875 37.761719 131.359375 36.238281 131.359375 34 L 131.359375 33.921875 C 131.359375 32.71875 130.71875 31.601562 129.921875 30.800781 C 128.960938 29.839844 127.601562 29.359375 125.839844 29.359375 L 119.441406 29.359375 L 119.441406 43.839844 L 122 43.839844 L 122 38.71875 L 125.199219 38.71875 Z M 125.761719 36.71875 L 122.078125 36.71875 L 122.078125 31.679688 L 125.761719 31.679688 C 127.679688 31.679688 128.71875 32.558594 128.71875 34.160156 L 128.71875 34.238281 C 128.71875 35.761719 127.601562 36.71875 125.761719 36.71875 Z M 125.761719 36.71875 "/>
<path style=" stroke:none;fill-rule:nonzero;fill:rgb(0%,0%,0%);fill-opacity:1;" d="M 137.039062 43.921875 L 139.761719 43.921875 L 139.761719 38.320312 L 145.359375 29.441406 L 142.558594 29.441406 L 138.480469 36 L 134.480469 29.441406 L 131.601562 29.441406 L 137.039062 38.320312 Z M 137.039062 43.921875 "/>
</g>
</svg>
