<svg width="512" height="512" viewBox="0 0 512 512" fill="none" xmlns="http://www.w3.org/2000/svg">
<path d="M0 256C0 397.4 114.6 512 256 512C397.4 512 512 397.4 512 256C512 114.6 397.4 0 256 0C114.6 0 0 114.6 0 256ZM246.1 129.2C252.1 131.7 256 137.5 256 144V208H352C369.67 208 384 222.33 384 240V272C384 289.67 369.67 304 352 304H256V368C256 374.469 252.109 380.31 246.125 382.78C240.141 385.264 233.265 383.889 228.685 379.311L116.685 267.311C110.437 261.063 110.437 250.931 116.685 244.691L228.685 132.691C233.3 128.1 240.1 126.7 246.1 129.2Z" fill="white"/>
</svg>
