<svg width="322" height="72" viewBox="0 0 322 72" version="1.1" xmlns="http://www.w3.org/2000/svg" xmlns:xlink="http://www.w3.org/1999/xlink">
<title>Group</title>
<desc>Created using Figma</desc>
<g id="Canvas" transform="translate(-3084 115)">
<g id="Group">
<g id="Vector">
<use xlink:href="#path0_fill" transform="translate(3084.1 -115)" fill="#008441"/>
</g>
<g id="Group">
<g id="Vector">
<use xlink:href="#path1_fill" transform="translate(3110.53 -86.491)" fill="#008441"/>
</g>
<g id="Vector">
<use xlink:href="#path2_fill" transform="translate(3111.74 -80.5281)" fill="#008441"/>
</g>
<g id="Vector">
<use xlink:href="#path3_fill" transform="translate(3114.38 -85.8835)" fill="#008441"/>
</g>
<g id="Vector">
<use xlink:href="#path4_fill" transform="translate(3115.87 -81.6729)" fill="#008441"/>
</g>
<g id="Vector">
<use xlink:href="#path5_fill" transform="translate(3119.12 -82.3805)" fill="#008441"/>
</g>
<g id="Vector">
<use xlink:href="#path6_fill" transform="translate(3119.09 -80.0812)" fill="#008441"/>
</g>
<g id="Vector">
<use xlink:href="#path7_fill" transform="translate(3121.88 -79.3672)" fill="#008441"/>
</g>
<g id="Vector">
<use xlink:href="#path8_fill" transform="translate(3121.97 -75.9224)" fill="#008441"/>
</g>
<g id="Vector">
<use xlink:href="#path9_fill" transform="translate(3123.42 -76.3348)" fill="#008441"/>
</g>
<g id="Vector">
<use xlink:href="#path10_fill" transform="translate(3124.95 -75.5215)" fill="#008441"/>
</g>
<g id="Vector">
<use xlink:href="#path11_fill" transform="translate(3125.67 -74.5395)" fill="#008441"/>
</g>
<g id="Vector">
<use xlink:href="#path12_fill" transform="translate(3124.96 -73.0692)" fill="#008441"/>
</g>
<g id="Vector">
<use xlink:href="#path13_fill" transform="translate(3125.7 -71.6078)" fill="#008441"/>
</g>
<g id="Vector">
<use xlink:href="#path14_fill" transform="translate(3111.12 -75.3822)" fill="#008441"/>
</g>
<g id="Vector">
<use xlink:href="#path15_fill" transform="translate(3110.26 -72.4761)" fill="#008441"/>
</g>
</g>
<g id="Group">
<g id="Group">
<g id="Vector">
<use xlink:href="#path16_fill" transform="translate(3142.21 -94.776)" fill="#008441"/>
</g>
</g>
<g id="Vector">
<use xlink:href="#path17_fill" transform="translate(3130.22 -69.0957)" fill="#008441"/>
</g>
<g id="Vector">
<use xlink:href="#path18_fill" transform="translate(3092.72 -71.2307)" fill="#008441"/>
</g>
<g id="Vector">
<use xlink:href="#path19_fill" transform="translate(3087.82 -96.9111)" fill="#008441"/>
</g>
<g id="Vector">
<use xlink:href="#path20_fill" transform="translate(3103.76 -79.6525)" fill="#008441"/>
</g>
<g id="Vector">
<use xlink:href="#path21_fill" transform="translate(3106.95 -110.671)" fill="#008441"/>
</g>
<g id="Vector">
<use xlink:href="#path22_fill" transform="translate(3099.51 -92.1072)" fill="#008441"/>
</g>
<g id="Vector">
<use xlink:href="#path23_fill" transform="translate(3095.73 -101.305)" fill="#008441"/>
</g>
<g id="Vector">
<use xlink:href="#path24_fill" transform="translate(3116.46 -112.865)" fill="#008441"/>
</g>
<g id="Vector">
<use xlink:href="#path25_fill" transform="translate(3135.3 -104.087)" fill="#008441"/>
</g>
<g id="Vector">
<use xlink:href="#path26_fill" transform="translate(3115.22 -111.738)" fill="#008441"/>
</g>
<g id="Group">
<g id="Group">
<g id="Vector">
<use xlink:href="#path27_fill" transform="translate(3122.36 -81.9655)" fill="#008441"/>
</g>
</g>
<g id="Vector">
<use xlink:href="#path28_fill" transform="translate(3114.45 -93.1154)" fill="#008441"/>
</g>
<g id="Vector">
<use xlink:href="#path29_fill" transform="translate(3119.06 -98.3346)" fill="#008441"/>
</g>
</g>
<g id="Vector">
<use xlink:href="#path30_fill" transform="translate(3110.14 -90.7431)" fill="#008441"/>
</g>
<g id="Vector">
<use xlink:href="#path31_fill" transform="translate(3110.08 -93.3526)" fill="#008441"/>
</g>
<g id="Vector">
<use xlink:href="#path32_fill" transform="translate(3085.75 -89.4976)" fill="#008441"/>
</g>
</g>
<g id="Vector">
<use xlink:href="#path33_fill" transform="translate(3160.22 -92.285)" fill="#008441"/>
</g>
<g id="Vector">
<use xlink:href="#path34_fill" transform="translate(3193.35 -86.2949)" fill="#008441"/>
</g>
<g id="Vector">
<use xlink:href="#path35_fill" transform="translate(3217.32 -86.2949)" fill="#008441"/>
</g>
<g id="Vector">
<use xlink:href="#path36_fill" transform="translate(3240.47 -85.5832)" fill="#008441"/>
</g>
<g id="Vector">
<use xlink:href="#path37_fill" transform="translate(3259.84 -92.9374)" fill="#008441"/>
</g>
<g id="Vector">
<use xlink:href="#path38_fill" transform="translate(3266.63 -86.2949)" fill="#008441"/>
</g>
<g id="Vector">
<use xlink:href="#path39_fill" transform="translate(3291.97 -92.285)" fill="#008441"/>
</g>
<g id="Vector">
<use xlink:href="#path40_fill" transform="translate(3322.56 -86.2949)" fill="#008441"/>
</g>
<g id="Vector">
<use xlink:href="#path41_fill" transform="translate(3345.71 -85.5832)" fill="#008441"/>
</g>
<g id="Vector">
<use xlink:href="#path42_fill" transform="translate(3373.17 -85.5832)" fill="#008441"/>
</g>
<g id="Vector">
<use xlink:href="#path43_fill" transform="translate(3394.25 -86.2949)" fill="#008441"/>
</g>
<g id="Group">
<g id="Vector">
<use xlink:href="#path44_fill" transform="translate(3170.08 -63.7578)" fill="#008441"/>
</g>
<g id="Vector">
<use xlink:href="#path45_fill" transform="translate(3180.71 -63.224)" fill="#008441"/>
</g>
<g id="Vector">
<use xlink:href="#path46_fill" transform="translate(3188.86 -63.1054)" fill="#008441"/>
</g>
<g id="Vector">
<use xlink:href="#path47_fill" transform="translate(3195.53 -63.1054)" fill="#008441"/>
</g>
<g id="Vector">
<use xlink:href="#path48_fill" transform="translate(3203.33 -63.1054)" fill="#008441"/>
</g>
<g id="Vector">
<use xlink:href="#path49_fill" transform="translate(3207.05 -63.1054)" fill="#008441"/>
</g>
<g id="Vector">
<use xlink:href="#path50_fill" transform="translate(3215.02 -63.224)" fill="#008441"/>
</g>
<g id="Vector">
<use xlink:href="#path51_fill" transform="translate(3224.94 -63.6985)" fill="#008441"/>
</g>
<g id="Vector">
<use xlink:href="#path52_fill" transform="translate(3231.56 -63.224)" fill="#008441"/>
</g>
<g id="Vector">
<use xlink:href="#path53_fill" transform="translate(3239.71 -63.1054)" fill="#008441"/>
</g>
<g id="Vector">
<use xlink:href="#path54_fill" transform="translate(3249.63 -64.0544)" fill="#008441"/>
</g>
<g id="Vector">
<use xlink:href="#path55_fill" transform="translate(3257.3 -63.1054)" fill="#008441"/>
</g>
<g id="Vector">
<use xlink:href="#path56_fill" transform="translate(3265.45 -63.1054)" fill="#008441"/>
</g>
<g id="Vector">
<use xlink:href="#path57_fill" transform="translate(3269.11 -63.1054)" fill="#008441"/>
</g>
<g id="Vector">
<use xlink:href="#path58_fill" transform="translate(3275.26 -63.1054)" fill="#008441"/>
</g>
<g id="Vector">
<use xlink:href="#path59_fill" transform="translate(3282.7 -63.1054)" fill="#008441"/>
</g>
<g id="Vector">
<use xlink:href="#path60_fill" transform="translate(3289.43 -63.1054)" fill="#008441"/>
</g>
<g id="Vector">
<use xlink:href="#path61_fill" transform="translate(3295.63 -63.1054)" fill="#008441"/>
</g>
<g id="Vector">
<use xlink:href="#path62_fill" transform="translate(3303.78 -63.2833)" fill="#008441"/>
</g>
<g id="Vector">
<use xlink:href="#path63_fill" transform="translate(3306.38 -63.3426)" fill="#008441"/>
</g>
<g id="Vector">
<use xlink:href="#path64_fill" transform="translate(3314.23 -63.6985)" fill="#008441"/>
</g>
<g id="Vector">
<use xlink:href="#path65_fill" transform="translate(3323.98 -63.1054)" fill="#008441"/>
</g>
<g id="Vector">
<use xlink:href="#path61_fill" transform="translate(3330.18 -63.1054)" fill="#008441"/>
</g>
<g id="Vector">
<use xlink:href="#path66_fill" transform="translate(3337.38 -63.0461)" fill="#008441"/>
</g>
<g id="Vector">
<use xlink:href="#path67_fill" transform="translate(3343.82 -63.2833)" fill="#008441"/>
</g>
<g id="Vector">
<use xlink:href="#path57_fill" transform="translate(3351.2 -63.1054)" fill="#008441"/>
</g>
<g id="Vector">
<use xlink:href="#path68_fill" transform="translate(3360.12 -63.6985)" fill="#008441"/>
</g>
<g id="Vector">
<use xlink:href="#path60_fill" transform="translate(3369.15 -63.1054)" fill="#008441"/>
</g>
<g id="Vector">
<use xlink:href="#path69_fill" transform="translate(3374.47 -63.2833)" fill="#008441"/>
</g>
<g id="Vector">
<use xlink:href="#path70_fill" transform="translate(3381.85 -63.0461)" fill="#008441"/>
</g>
<g id="Vector">
<use xlink:href="#path71_fill" transform="translate(3387.52 -63.0461)" fill="#008441"/>
</g>
<g id="Vector">
<use xlink:href="#path72_fill" transform="translate(3394.78 -63.1054)" fill="#008441"/>
</g>
</g>
<g id="Group">
<g id="Vector">
<use xlink:href="#path73_fill" transform="translate(3258.84 -50.6507)" fill="#008441"/>
</g>
<g id="Vector">
<use xlink:href="#path74_fill" transform="translate(3264.39 -49.7019)" fill="#008441"/>
</g>
<g id="Vector">
<use xlink:href="#path75_fill" transform="translate(3268.11 -49.7019)" fill="#008441"/>
</g>
<g id="Vector">
<use xlink:href="#path76_fill" transform="translate(3275.85 -49.8204)" fill="#008441"/>
</g>
<g id="Vector">
<use xlink:href="#path77_fill" transform="translate(3282.87 -49.7019)" fill="#008441"/>
</g>
<g id="Vector">
<use xlink:href="#path78_fill" transform="translate(3292.8 -51.3032)" fill="#008441"/>
</g>
<g id="Vector">
<use xlink:href="#path79_fill" transform="translate(3297.76 -51.3625)" fill="#008441"/>
</g>
<g id="Vector">
<use xlink:href="#path78_fill" transform="translate(3304.61 -51.3032)" fill="#008441"/>
</g>
<g id="Vector">
<use xlink:href="#path80_fill" transform="translate(3309.33 -51.2439)" fill="#008441"/>
</g>
</g>
</g>
</g>
<defs>
<path id="path0_fill" d="M 69.0343 31.2554C 69.0343 25.2059 64.428 20.2241 58.5817 19.631C 58.1683 14.7677 54.8022 10.7941 50.3141 9.42999C 48.1291 3.91433 42.8142 0 36.5545 0C 32.9522 0 29.7042 1.30478 27.1649 3.38056C 25.6885 3.49918 24.3303 4.09226 23.2673 5.1005C 22.7949 4.98188 22.2634 4.86326 21.7319 4.86326C 18.6611 4.86326 16.1808 7.3542 16.1808 10.4382C 16.1808 11.0313 16.2989 11.6244 16.417 12.1582C 15.8265 12.3954 15.3541 12.7512 14.9997 13.285C 13.5234 13.8781 12.3423 15.0643 11.6927 16.4876C 11.6337 16.4876 11.6337 16.4876 11.5746 16.4876C 10.6888 16.4876 9.92109 16.9028 9.3896 17.5552C 9.15339 17.5552 8.91717 17.4959 8.74001 17.4959C 5.6692 17.4959 3.18892 19.9868 3.18892 23.0708C 3.18892 23.7232 3.30703 24.3756 3.54325 24.9687C 3.12987 25.4432 2.8346 26.0956 2.8346 26.8073C 1.06297 28.4679 0 30.7216 0 33.2125C 0 37.2455 2.65743 40.5667 6.31879 41.6343C 6.61406 42.6425 7.44082 43.4728 8.44474 43.7101C 8.91717 47.3279 11.988 50.1153 15.7674 50.1153C 17.8934 50.1153 19.7831 49.2257 21.1414 47.8023C 21.5548 47.6244 21.9681 47.3872 22.2634 47.0313C 22.4996 47.0906 22.7949 47.0906 23.2083 47.0906C 25.098 47.0906 28.405 46.6162 29.8814 45.3114L 29.8814 45.43L 29.9995 47.1499L 30.59 48.3954C 30.59 48.3954 30.6491 52.0132 30.8853 53.1994C 31.1215 54.3855 31.0034 55.2158 31.0034 55.2158L 30.7081 62.6886L 30.4719 67.5519L 29.8814 67.9671L 29.7633 68.2043L 10.5116 68.2043C 10.5116 68.2043 29.3499 75.9144 58.4636 68.2043L 37.9127 68.2043L 37.8537 67.6705C 37.9127 67.5519 37.9718 67.374 37.9718 67.1961C 38.149 65.5947 37.6765 52.9621 37.6765 52.9621C 37.6765 52.9621 38.4442 46.7348 39.5072 44.4811L 40.2749 44.5997L 43.1095 44.4811C 43.1686 46.0231 44.4087 47.2685 45.9441 47.2685C 46.0032 47.3279 46.0622 47.3872 46.1213 47.3872C 47.1842 48.6326 48.7787 49.4036 50.5503 49.4036C 52.6763 49.4036 54.5069 48.2768 55.5699 46.6162C 55.8061 46.6755 56.1014 46.7348 56.3376 46.7348C 57.9321 46.7348 59.2313 45.43 59.2313 43.8287C 59.2313 43.4728 59.1722 43.117 59.0541 42.8204C 64.6643 42.1087 69.0343 37.1862 69.0343 31.2554Z"/>
<path id="path1_fill" d="M 2.74186 5.83042C 3.15524 5.94904 3.39146 5.23734 3.2143 4.1698C 3.03713 3.10225 2.44659 1.73817 1.85605 1.02647C 1.32457 0.374079 0.556861 -0.100386 0.202536 0.0182301C -0.151789 0.136846 -0.0336806 0.433387 0.497806 0.729928C 1.02929 1.02647 1.56078 1.61955 1.797 2.03471C 1.97416 2.44986 2.09227 3.39879 2.03321 4.1698C 1.97416 4.9408 2.26943 5.71181 2.74186 5.83042Z"/>
<path id="path2_fill" d="M 1.29919 0.341995C 0.944866 0.0454546 0.531488 -0.0731616 0.354326 0.0454546C 0.177163 0.164071 -4.50547e-07 0.46061 -4.50547e-07 0.697842C -4.50547e-07 0.935075 0.413378 1.46885 0.885811 1.8247C 1.35824 2.18055 1.83068 2.41778 1.88973 2.35847C 1.94879 2.29916 1.94878 1.94331 1.94878 1.58746C 1.94878 1.17231 1.65351 0.638535 1.29919 0.341995Z"/>
<path id="path3_fill" d="M 0.539822 0.241037C 0.0673891 -0.352043 -0.109773 0.181728 0.0673896 1.48651C 0.244552 2.79128 0.539823 3.91814 0.657931 3.97745C 0.776039 4.03675 0.9532 3.97745 1.07131 3.79952C 1.13036 3.6216 1.24847 3.32506 1.30753 3.08782C 1.36658 2.85059 1.42563 2.37613 1.36658 2.02028C 1.42563 1.66443 1.01225 0.893426 0.539822 0.241037Z"/>
<path id="path4_fill" d="M 1.77162 0.00408989C 1.94879 -0.0552182 2.06689 0.537863 2.06689 1.30887C 2.06689 2.07987 2.12595 3.0288 2.12595 3.38465C 2.12595 3.7405 1.94878 4.03704 1.65351 4.03704C 1.35824 4.03704 0.885811 4.03704 0.590541 4.03704C 0.29527 4.03704 -4.50547e-07 3.56257 -4.50547e-07 3.0288C -4.50547e-07 2.49503 0.236217 1.72402 0.531487 1.24956C 0.767704 0.834402 1.12203 0.359937 1.29919 0.241321C 1.35824 0.182013 1.59446 0.063398 1.77162 0.00408989Z"/>
<path id="path5_fill" d="M 0.826758 0C 0.413379 0 0.0590537 0.237233 -4.50547e-07 0.533774C -4.50547e-07 0.830314 0.177163 1.18616 0.531487 1.36409C 0.826758 1.54201 1.29919 1.71993 1.53541 1.77924C 1.77162 1.83855 1.88973 1.42339 1.83068 0.948928C 1.71257 0.415156 1.24014 0 0.826758 0Z"/>
<path id="path6_fill" d="M 1.38449 0.725368C 0.675841 0.0729794 0.0852999 -0.22356 0.0262458 0.191597C 0.0262458 0.547445 -0.0328083 1.37776 0.0262458 1.97084C 0.0262458 2.56392 0.144355 3.21631 0.262463 3.39423C 0.380571 3.57216 0.734895 3.8687 1.08922 4.04662C 1.44354 4.22454 1.91598 4.10593 2.09314 3.75008C 2.2703 3.45354 2.50652 2.91977 2.50652 2.62323C 2.50652 2.32669 2.15219 1.61499 1.67976 1.02191C 1.67976 1.02191 1.67976 1.02191 1.5026 0.784678C 1.38449 0.72537 1.38449 0.725368 1.38449 0.725368Z"/>
<path id="path7_fill" d="M 1.19253 0.960425C 0.956311 0.48596 0.601986 0.070802 0.365769 0.0114939C 0.129553 -0.0478142 -0.0476085 0.130111 0.0114456 0.367344C 0.0704997 0.604576 0.0704988 1.13835 0.0704988 1.55351C 0.0704988 1.96866 0.188606 2.38382 0.424822 2.50244C 0.661039 2.62105 1.01537 2.50243 1.19253 2.2652C 1.42874 2.02797 1.42874 1.43489 1.19253 0.960425Z"/>
<path id="path8_fill" d="M 1.04036 0.896043C 1.04036 0.302962 0.804143 -0.0528864 0.449819 0.00642172C 0.095494 0.125038 -0.081671 0.421576 0.0364372 0.718117C 0.154545 1.01466 0.390762 1.42981 0.626978 1.60774C 0.863195 1.78566 1.04036 1.48912 1.04036 0.896043Z"/>
<path id="path9_fill" d="M 1.31051 1.48644C 1.13334 0.596821 0.719966 -0.0555681 0.424695 0.00374C 0.129425 0.122356 -0.0477401 0.537515 0.011314 1.07129C 0.0703681 1.54575 0.188477 2.02021 0.247531 2.07952C 0.306585 2.13883 0.306586 2.37607 0.188478 2.55399C 0.0703699 2.73191 0.188478 3.14707 0.483749 3.44361C 0.719965 3.74015 1.07429 3.79946 1.31051 3.56222C 1.54672 3.32499 1.54672 2.37606 1.31051 1.48644Z"/>
<path id="path10_fill" d="M 0.422558 0.0800641C 0.658774 0.317296 0.717827 0.613839 0.481611 0.851071C 0.245394 1.029 0.00917624 0.851073 0.00917624 0.435916C -0.0498779 0.0207596 0.186341 -0.0978601 0.422558 0.0800641Z"/>
<path id="path11_fill" d="M 1.4173 0.106257C 1.00392 -0.130975 0.354326 0.0469485 9.01094e-07 0.462105C 9.01094e-07 0.462105 -1.81275e-06 0.462107 0.177161 0.640031C 0.354323 0.817955 0.295272 0.936568 0.531489 0.87726C 0.767705 0.817952 0.767702 0.817953 0.767702 0.817953C 1.59446 0.640028 1.88973 0.284182 1.4173 0.106257Z"/>
<path id="path12_fill" d="M 1.83068 0.0593099C 1.4173 -0.0593063 0.944867 -9.01434e-07 0.70865 0.237231C 0.472434 0.474464 0.177164 0.830312 0.0590559 1.12685C -0.0590523 1.42339 -8.97574e-07 1.66063 0.236216 1.66063C 0.472432 1.66063 1.00392 1.4827 1.4173 1.30478C 1.83068 1.06755 2.42122 0.889619 2.71649 0.889619C 2.95271 0.889619 3.07081 0.771003 2.89365 0.593079C 2.71649 0.415155 2.24406 0.177926 1.83068 0.0593099Z"/>
<path id="path13_fill" d="M 1.56493 0.0213894C 1.21061 0.0806975 0.620069 0.258624 0.265744 0.436549C -0.0885803 0.614473 -0.0885803 0.733088 0.265744 0.792396C 0.265744 0.792396 0.265742 0.792396 0.442904 0.792396C 0.620066 0.792396 0.620068 0.792396 0.620068 0.792396C 1.21061 0.733088 1.97831 0.673778 2.27358 0.61447C 2.56886 0.555162 2.68696 0.377239 2.56886 0.258623C 2.33264 0.0213903 1.91926 -0.0379187 1.56493 0.0213894Z"/>
<path id="path14_fill" d="M 0.31505 1.80994e-06C 0.255996 0.118618 0.196943 0.237233 0.137889 0.355849C -0.216436 1.06755 0.137888 1.66063 0.905592 1.77924C 1.08275 1.77924 1.20086 1.77924 1.37802 1.83855L 1.0237 0.711697L 0.31505 1.80994e-06Z"/>
<path id="path15_fill" d="M 2.48027 0.0593099C 1.12203 0.237234 -4.50547e-07 0.830314 -4.50547e-07 1.30478C -4.50547e-07 1.83855 0.944867 2.07578 2.12595 1.89786C 2.65744 1.83855 3.12987 1.66062 3.54325 1.4827L 2.9527 -1.80994e-06C 2.77554 0.0593063 2.59838 0.0593099 2.48027 0.0593099Z"/>
<path id="path16_fill" d="M 9.15339 11.3278C 9.15339 5.93081 5.49203 1.36408 0.472431 -9.04969e-07C 0.472431 0.0593072 0.472431 0.177924 0.472431 0.237232C 4.72433 1.83855 7.73609 5.93081 7.73609 10.7941C 7.73609 15.7759 4.48811 20.0461 9.01094e-07 21.4695C 0.354326 21.7661 0.590539 22.1219 0.767702 22.5371C 5.66919 21.1137 9.15339 16.6063 9.15339 11.3278Z"/>
<path id="path17_fill" d="M 4.07473 2.01648C 2.95271 2.01648 1.88973 1.66062 1.00392 1.06754C 0.649597 1.24547 0.472432 1.30478 -9.01094e-07 1.30478C 1.06297 2.31301 2.24406 2.9061 3.77946 2.9061C 5.7873 2.9061 7.55892 1.89786 8.6219 0.355848C 8.44474 0.237232 8.32663 0.118617 8.14947 9.0497e-07C 7.2046 1.30478 5.72825 2.01648 4.07473 2.01648Z"/>
<path id="path18_fill" d="M 9.92109 3.73641C 9.03528 4.09226 8.09041 4.32949 7.02744 4.32949C 4.07473 4.32949 1.53541 2.55025 0.354324 0.059309C 0.236216 0.059309 0.118108 0.0593099 2.25274e-07 1.80994e-06C 0.767704 3.26195 3.66135 5.69358 7.14555 5.69358C 8.79906 5.69358 10.2754 5.1598 11.5155 4.27018C 11.5155 4.27018 11.5155 4.27018 11.4565 4.27018C 10.925 4.21087 10.3935 4.03295 9.92109 3.73641Z"/>
<path id="path19_fill" d="M 1.12637e-07 5.63427C 1.12637e-07 5.93081 5.71984e-08 6.22735 0.0590542 6.52389C 0.118108 6.46458 0.236217 6.40527 0.295271 6.34597C 0.295271 6.22735 0.295271 6.10873 0.295271 6.04942C 0.295271 3.38056 2.30311 1.18616 4.90149 0.889621C 4.96055 0.593081 5.0196 0.29654 5.19676 0C 2.30311 0.237232 1.12637e-07 2.66886 1.12637e-07 5.63427Z"/>
<path id="path20_fill" d="M 3.01176 -9.04969e-07C 4.37 0.771004 5.31487 2.25371 5.31487 3.91433C 5.31487 6.40527 3.30703 8.48106 0.767703 8.48106C 0.472432 8.48106 0.236216 8.48106 -4.50547e-07 8.42175C 0.649595 8.7776 1.4173 9.01483 2.24406 9.01483C 4.72433 9.01483 6.79122 6.99835 6.79122 4.4481C 6.73217 2.25371 5.13771 0.415156 3.01176 -9.04969e-07Z"/>
<path id="path21_fill" d="M 0.649595 7.3542C 0.649595 3.6771 3.66135 0.652389 7.32271 0.652389C 8.38568 0.652389 9.33055 0.889621 10.2164 1.30478C 9.15339 0.474465 7.8542 1.13121e-07 6.37784 1.13121e-07C 2.8346 1.13121e-07 4.50547e-07 2.84679 4.50547e-07 6.40527C 4.50547e-07 7.88797 0.531487 9.25206 1.35824 10.3789C 0.944866 9.48929 0.649595 8.42175 0.649595 7.3542Z"/>
<path id="path22_fill" d="M 2.25274e-07 -9.0497e-07C 3.48419 1.30478 6.20068 4.56672 6.20068 8.54036C 6.20068 10.3196 5.49203 12.0988 4.60622 13.4629C 6.25974 12.0395 7.32271 9.96376 7.32271 7.59143C 7.38176 3.49918 4.07473 0.118615 2.25274e-07 -9.0497e-07Z"/>
<path id="path23_fill" d="M 0.476067 8.60438C 0.653229 8.60438 0.830391 8.60438 1.00755 8.60438C 0.712283 7.95199 0.594175 7.2403 0.535121 6.46929C 0.476067 3.32596 2.95634 0.6571 6.08621 0.597792C 8.50743 0.538484 10.6334 2.02119 11.5192 4.15628C 11.8735 4.3342 12.2278 4.57143 12.5231 4.86797C 11.8145 2.02118 9.21608 -0.113905 6.20432 0.00471093C 2.66107 0.064019 -0.114474 3.02942 0.00363429 6.58791C 0.00363429 7.2996 0.180796 8.0113 0.417012 8.66369C 0.417012 8.60438 0.476067 8.60438 0.476067 8.60438Z"/>
<path id="path24_fill" d="M 4.66528 -5.65606e-08C 3.01176 -5.65606e-08 1.47635 0.29654 -4.50547e-07 0.830313C 1.12203 0.474465 2.36217 0.29654 3.6023 0.29654C 10.866 0.29654 16.7123 6.16804 16.7123 13.4629C 16.7123 16.0132 16.0037 18.3855 14.7635 20.402C 15.4131 20.4613 16.0627 20.6392 16.6533 20.8764C 17.8343 18.8007 18.543 16.4283 18.543 13.8781C 18.543 6.22735 12.3423 -5.65606e-08 4.66528 -5.65606e-08Z"/>
<path id="path25_fill" d="M 4.90149 9.5486C 4.90149 12.2768 4.01568 14.7084 2.48027 16.7249C 2.65744 17.2587 2.8346 17.7924 2.9527 18.3262C 4.84244 16.2504 6.08257 13.4036 6.08257 10.3196C 6.08257 5.8715 3.6023 2.01647 -1.80219e-06 -2.26242e-07C 2.9527 2.13509 4.90149 5.63427 4.90149 9.5486Z"/>
<path id="path26_fill" d="M 4.48811 0C 2.89365 0 1.35824 0.29654 4.50547e-07 0.889621C 1.12203 0.474465 2.30311 0.29654 3.6023 0.29654C 9.74393 0.29654 14.7045 5.27842 14.7045 11.4465C 14.7045 12.9885 14.4092 14.4712 13.8187 15.7759C 14.173 16.2504 14.4683 16.7842 14.7045 17.3773C 15.6493 15.7166 16.1808 13.7595 16.1808 11.6837C 16.1218 5.21911 10.925 0 4.48811 0Z"/>
<path id="path27_fill" d="M 0.236215 4.52485e-07C 0.177161 4.52485e-07 0.0590559 -4.55136e-07 1.80219e-06 0.0593076C 0.885813 3.43987 3.95662 5.93081 7.61798 5.93081C 9.44866 5.93081 11.1022 5.33773 12.4014 4.27018C 11.1022 5.1598 9.56676 5.63427 7.91325 5.63427C 4.31095 5.63427 1.24013 3.26194 0.236215 4.52485e-07Z"/>
<path id="path28_fill" d="M 8.14947 9.66722C 3.77946 9.66722 0.295271 6.10873 0.295271 1.77924C 0.295271 1.18616 0.354325 0.593082 0.472433 9.0497e-07C 0.177163 0.830314 9.01094e-07 1.71994 9.01094e-07 2.66886C 9.01094e-07 7.05766 3.54324 10.5568 7.85419 10.5568C 11.5746 10.5568 14.7045 7.94728 15.5312 4.44811C 14.4683 7.47282 11.5746 9.66722 8.14947 9.66722Z"/>
<path id="path29_fill" d="M 3.6023 2.26242e-07C 3.6023 2.26242e-07 3.54325 2.26242e-07 3.6023 2.26242e-07C 7.02744 0.355849 9.68487 3.26194 9.68487 6.76112C 9.68487 10.4975 6.67311 13.5222 2.89365 13.5222C 1.83068 13.5222 0.885812 13.285 4.50547e-07 12.8699C 1.06297 13.5222 2.30311 13.8781 3.6023 13.8781C 7.44082 13.8781 10.5116 10.7941 10.5116 6.93904C 10.5116 3.14333 7.38177 2.26242e-07 3.6023 2.26242e-07Z"/>
<path id="path30_fill" d="M 3.6023 2.9654C 2.24406 2.1944 1.00392 1.18616 -9.01094e-07 9.0497e-07C -9.01094e-07 0.118617 -9.01094e-07 0.237233 -9.01094e-07 0.296541C 1.06297 1.71994 2.42122 2.9061 3.89757 3.79572C 3.77946 3.49918 3.66136 3.26195 3.6023 2.9654Z"/>
<path id="path31_fill" d="M 0 0C 0.885812 1.30478 2.06689 2.43163 3.42514 3.26194C 3.42514 3.14333 3.42514 3.02471 3.42514 2.9061C 2.06689 2.1944 0.944866 1.18616 0 0Z"/>
<path id="path32_fill" d="M 1.24014 6.04942C 1.24014 3.73641 2.06689 1.60132 3.48419 0C 1.35824 1.60132 -2.81592e-08 4.15156 -2.81592e-08 6.99835C -2.81592e-08 10.3789 1.88973 13.285 4.60622 14.7677C 4.72433 14.3526 4.90149 13.9967 5.13771 13.6409C 2.77554 11.9802 1.24014 9.19275 1.24014 6.04942Z"/>
<path id="path33_fill" d="M 11.7518 24.6722L 11.2203 24.6722L 4.78338 4.32949C 3.83852 1.36408 3.36608 0.830314 -3.60438e-06 0.830314L -3.60438e-06 -4.52485e-07L 11.2203 -4.52485e-07L 11.2203 0.830314C 7.85419 0.830314 7.38177 1.66063 8.09042 3.85502L 12.4604 17.6738L 18.0115 -4.52485e-07L 18.602 -4.52485e-07L 24.1531 17.6738L 28.5231 3.91433C 29.1727 1.71994 28.5822 0.889621 25.7476 0.889621L 25.7476 0.059309L 34.7238 0.059309L 34.7238 0.889621C 31.3577 0.889621 30.8262 1.71993 29.9995 4.3888L 23.5626 24.7315L 23.0311 24.7315L 17.3619 6.93905L 11.7518 24.6722Z"/>
<path id="path34_fill" d="M 9.74393 1.54201C 5.0196 1.54201 3.30703 5.93081 3.30703 9.37068C 3.30703 12.8699 5.07865 17.1993 9.74393 17.1993C 14.4683 17.1993 16.1808 12.8699 16.1808 9.37068C 16.1808 5.8715 14.4092 1.54201 9.74393 1.54201ZM 9.74393 18.682C 4.42906 18.682 0 14.4712 0 9.31137C 0 4.21087 4.37 9.0497e-07 9.74393 9.0497e-07C 15.0588 9.0497e-07 19.4879 4.27018 19.4879 9.31137C 19.4288 14.4712 15.0588 18.682 9.74393 18.682Z"/>
<path id="path35_fill" d="M 9.74393 1.54201C 5.0196 1.54201 3.30703 5.93081 3.30703 9.37068C 3.30703 12.8699 5.07866 17.1993 9.74393 17.1993C 14.4683 17.1993 16.1808 12.8699 16.1808 9.37068C 16.1808 5.8715 14.4092 1.54201 9.74393 1.54201ZM 9.74393 18.682C 4.42906 18.682 3.60438e-06 14.4712 3.60438e-06 9.31137C 3.60438e-06 4.21087 4.37001 9.0497e-07 9.74393 9.0497e-07C 15.0588 9.0497e-07 19.4879 4.27018 19.4879 9.31137C 19.4879 14.4712 15.0588 18.682 9.74393 18.682Z"/>
<path id="path36_fill" d="M 8.6219 1.42339C 8.38568 1.42339 6.73217 1.42339 6.02352 1.42339L 6.02352 12.8105C 6.02352 15.4201 6.31878 15.8353 8.26757 15.8353L 8.56284 15.8353C 13.8187 15.8353 14.8816 11.8616 14.8816 8.65898C 14.8816 5.45634 13.8777 1.42339 8.6219 1.42339ZM -7.20875e-06 16.4876C 2.65743 16.4876 3.12987 15.8353 3.12987 11.8023L 3.12987 5.39704C 3.12987 1.36409 2.65743 0.771006 -7.20875e-06 0.771006L -7.20875e-06 -9.04969e-07L 8.44474 -9.04969e-07C 15.236 -9.04969e-07 18.1887 3.91433 18.1887 8.65898C 18.1887 13.4036 15.236 17.318 8.44474 17.318L -7.20875e-06 17.318L -7.20875e-06 16.4876Z"/>
<path id="path37_fill" d="M 1.94878 3.85503C 0.885808 3.85503 0.0590613 2.9061 0.0590613 1.95717C 0.0590613 0.889621 0.885808 4.52485e-07 1.94878 4.52485e-07C 3.01176 4.52485e-07 4.07473 0.771005 4.07473 2.55025C 4.07473 4.32949 2.89364 6.99835 0.413372 8.54036L 3.60438e-06 8.12521C 1.47636 6.5832 2.00784 5.39704 2.24405 3.85503C 2.185 3.85503 2.00784 3.85503 1.94878 3.85503Z"/>
<path id="path38_fill" d="M 5.96447 18.682C 3.89758 18.682 2.24406 17.6738 1.47636 17.1993C 1.24014 17.4959 0.82675 17.9704 0.708642 18.682L 3.60438e-06 18.682L 3.60438e-06 11.8023L 0.7677 11.8023C 1.06297 15.1829 3.24798 17.14 6.20068 17.14C 7.91325 17.14 9.27149 16.1911 9.27149 14.4712C 9.27149 13.0478 8.14946 11.9802 6.02351 10.9127L 3.30704 9.48929C 1.41731 8.48106 3.60438e-06 6.82043 3.60438e-06 4.62603C 3.60438e-06 2.07578 2.12595 0.0593081 4.96054 0.0593081C 6.61406 0.0593081 7.91325 0.652389 8.74 1.24547C 8.91717 1.00824 9.27149 0.65239 9.33055 9.0497e-07L 10.0983 9.0497e-07L 10.0983 6.76112L 9.33055 6.76112C 9.09433 4.3888 8.03135 1.54201 5.1377 1.54201C 3.60229 1.54201 2.24405 2.37232 2.24405 3.85503C 2.24405 5.27842 3.30702 5.99012 5.72824 7.29489L 8.38568 8.71829C 10.6297 9.90445 11.5156 11.6837 11.5156 13.2257C 11.6337 16.4876 9.03528 18.682 5.96447 18.682Z"/>
<path id="path39_fill" d="M 6.96838 18.4448C 6.96838 22.4185 7.44083 23.1302 10.7479 23.1302L 10.7479 23.9605L 0 23.9605L 0 23.1302C 3.30703 23.1302 3.77946 22.4778 3.77946 18.4448L 3.77946 5.45634C 3.77946 1.42339 3.30703 0.830314 0 0.830314L 0 -4.52485e-07L 10.7479 -4.52485e-07L 10.7479 0.830314C 7.44083 0.830314 6.96838 1.4827 6.96838 5.45634L 6.96838 10.4975L 20.4918 10.4975L 20.4918 5.45634C 20.4918 1.42339 19.9603 0.830314 16.6533 0.830314L 16.6533 -4.52485e-07L 27.4602 -4.52485e-07L 27.4602 0.830314C 24.0941 0.830314 23.6216 1.4827 23.6216 5.45634L 23.6216 18.4448C 23.6216 22.4185 24.0941 23.1302 27.4602 23.1302L 27.4602 23.9605L 16.6533 23.9605L 16.6533 23.1302C 19.9603 23.1302 20.4918 22.4778 20.4918 18.4448L 20.4918 11.9802L 6.96838 11.9802L 6.96838 18.4448Z"/>
<path id="path40_fill" d="M 9.74392 1.54201C 5.01959 1.54201 3.30703 5.93081 3.30703 9.37068C 3.30703 12.8699 5.07865 17.1993 9.74392 17.1993C 14.4683 17.1993 16.1808 12.8699 16.1808 9.37068C 16.1808 5.8715 14.4092 1.54201 9.74392 1.54201ZM 9.74392 18.682C 4.42905 18.682 -7.20875e-06 14.4712 -7.20875e-06 9.31137C -7.20875e-06 4.21087 4.37 9.0497e-07 9.74392 9.0497e-07C 15.0588 9.0497e-07 19.4879 4.27018 19.4879 9.31137C 19.4288 14.4712 15.0588 18.682 9.74392 18.682Z"/>
<path id="path41_fill" d="M 4.60621 11.8023C 4.60621 15.7759 5.07866 16.4876 7.73609 16.4876L 7.73609 17.2586L 0 17.2586L 0 16.4876C 2.65743 16.4876 3.12986 15.8353 3.12986 11.8023L 3.12986 5.39704C 3.12986 1.36409 2.65743 0.771006 0 0.771006L 0 -9.04969e-07L 5.96447 -9.04969e-07L 11.9289 13.3443L 17.8343 -9.04969e-07L 23.3854 -9.04969e-07L 23.3854 0.771006C 20.728 0.771006 20.1965 1.42339 20.1965 5.39704L 20.1965 11.8023C 20.1965 15.7759 20.728 16.4876 23.3854 16.4876L 23.3854 17.2586L 14.232 17.2586L 14.232 16.4876C 16.8895 16.4876 17.3619 15.8353 17.3619 11.8023L 17.3619 4.32949L 11.3384 17.9703L 10.8069 17.9703L 4.60621 3.79572L 4.60621 11.8023Z"/>
<path id="path42_fill" d="M 14.173 13.2257L 14.3501 12.4547L 15.1769 12.4547L 14.8816 17.318L 3.35684e-14 17.318L 3.35684e-14 16.547C 2.65744 16.547 3.12986 15.8946 3.12986 11.8616L 3.12986 5.39704C 3.12986 1.36409 2.65744 0.771006 3.35684e-14 0.771006L 3.35684e-14 -9.04969e-07L 8.79906 -9.04969e-07L 13.9368 -9.04969e-07L 14.232 4.80395L 13.4053 4.80395L 13.2281 4.03295C 12.8147 2.1944 12.2833 1.4827 8.6219 1.4827L 5.96447 1.4827L 5.96447 7.3542L 6.20068 7.3542C 10.2164 7.3542 10.5116 6.87974 10.5116 4.21087L 11.2793 4.21087L 11.2793 12.0395L 10.5116 12.0395C 10.5116 9.37068 10.2164 8.89621 6.20068 8.89621L 5.96447 8.89621L 5.96447 11.2092C 5.96447 15.1829 6.43689 15.8353 9.09433 15.8353L 9.56677 15.8353C 13.1691 15.8353 13.7006 15.1236 14.173 13.2257Z"/>
<path id="path43_fill" d="M 5.96446 18.682C 3.89756 18.682 2.24406 17.6738 1.47636 17.1993C 1.24014 17.4959 0.826772 17.9704 0.708664 18.682L 7.20875e-06 18.682L 7.20875e-06 11.8023L 0.767703 11.8023C 1.06297 15.1829 3.24798 17.14 6.20069 17.14C 7.91326 17.14 9.27151 16.1911 9.27151 14.4712C 9.27151 13.0478 8.14948 11.9802 6.02353 10.9127L 3.30702 9.48929C 1.41729 8.48106 7.20875e-06 6.82043 7.20875e-06 4.62603C 7.20875e-06 2.07578 2.12593 0.0593081 4.96053 0.0593081C 6.61405 0.0593081 7.91325 0.652389 8.74001 1.24547C 8.91717 1.00824 9.27149 0.65239 9.33055 9.0497e-07L 10.1573 9.0497e-07L 10.1573 6.76112L 9.33055 6.76112C 9.09433 4.3888 8.03137 1.54201 5.13772 1.54201C 3.60232 1.54201 2.24406 2.37232 2.24406 3.85503C 2.24406 5.27842 3.30704 5.99012 5.72826 7.29489L 8.3857 8.71829C 10.6298 9.90445 11.5156 11.6837 11.5156 13.2257C 11.5746 16.4876 9.03527 18.682 5.96446 18.682Z"/>
<path id="path44_fill" d="M 5.13771 2.07578L 3.48419 7.29489L 3.30703 7.29489L 1.4173 1.30478C 1.29919 0.830312 1.12203 0.59308 0.944864 0.415156C 0.767702 0.237231 0.472437 0.237234 3.60438e-06 0.237234L 3.60438e-06 9.04969e-07L 3.30703 9.04969e-07L 3.30703 0.237234C 2.9527 0.237234 2.65743 0.29654 2.53932 0.355848C 2.36216 0.415157 2.30311 0.533772 2.30311 0.711696C 2.30311 0.830312 2.30311 0.948931 2.36217 1.12686L 3.66136 5.21911L 5.31487 9.04969e-07L 5.49203 9.04969e-07L 7.14555 5.21911L 8.44473 1.12686C 8.50379 1.00824 8.50379 0.830312 8.50379 0.711696C 8.50379 0.533772 8.44474 0.415157 8.32663 0.355848C 8.20852 0.29654 7.9723 0.237234 7.61798 0.237234L 7.61798 9.04969e-07L 10.2754 9.04969e-07L 10.2754 0.237234C 9.80298 0.237234 9.50771 0.296539 9.33055 0.474463C 9.15338 0.593079 9.03528 0.88962 8.91717 1.30478L 7.02744 7.29489L 6.85028 7.29489L 5.13771 2.07578Z"/>
<path id="path45_fill" d="M 7.0865 3.38056C 7.0865 4.32949 6.73217 5.10049 6.02352 5.75288C 5.31487 6.40527 4.48812 6.76112 3.54325 6.76112C 2.59838 6.76112 1.71257 6.40527 1.06297 5.75288C 0.354321 5.10049 3.60438e-06 4.27018 3.60438e-06 3.38056C 3.60438e-06 2.43163 0.354321 1.66063 1.06297 1.00824C 1.77162 0.355848 2.59838 1.80994e-06 3.54325 1.80994e-06C 4.48812 1.80994e-06 5.37393 0.355848 6.02352 1.00824C 6.73217 1.66063 7.0865 2.43163 7.0865 3.38056ZM 3.54325 0.415157C 2.71649 0.415157 2.0669 0.711695 1.59446 1.42339C 1.18108 1.95716 1.00392 2.60956 1.00392 3.38056C 1.00392 4.15157 1.18108 4.80396 1.59446 5.33773C 2.0669 5.99012 2.71649 6.34596 3.54325 6.34596C 4.37001 6.34596 5.0196 6.04943 5.49203 5.33773C 5.90541 4.80396 6.08257 4.15157 6.08257 3.38056C 6.08257 2.60956 5.90541 1.95716 5.49203 1.42339C 5.07865 0.771003 4.42906 0.415157 3.54325 0.415157Z"/>
<path id="path46_fill" d="M 3.30703 3.6771L 4.31095 4.92257C 4.66527 5.33773 4.96054 5.63427 5.31487 5.8715C 5.66919 6.10873 5.96447 6.22735 6.31879 6.28666L 6.31879 6.52389L 4.54717 6.52389L 2.42122 3.73641L 1.88973 3.73641L 1.88973 5.04119C 1.88973 5.57496 1.94878 5.93081 2.06689 6.04942C 2.185 6.16804 2.48027 6.28666 2.89365 6.28666L 2.89365 6.52389L -3.60438e-06 6.52389L -3.60438e-06 6.22735C 0.472429 6.22735 0.708651 6.16804 0.826759 5.99012C 0.944868 5.8715 1.00392 5.51565 1.00392 4.98188L 1.00392 1.4827C 1.00392 0.948929 0.944868 0.593083 0.826759 0.474466C 0.708651 0.35585 0.413375 0.237233 -3.60438e-06 0.237233L -3.60438e-06 1.68564e-14L 2.8346 1.68564e-14C 3.54324 1.68564e-14 4.13379 0.177925 4.54717 0.533774C 4.96055 0.889622 5.13771 1.30478 5.13771 1.83855C 5.13771 2.31301 4.96054 2.72817 4.60622 3.02471C 4.37 3.43987 3.89757 3.61779 3.30703 3.6771ZM 2.89365 3.26194C 3.30703 3.26194 3.66135 3.14333 3.89757 2.84679C 4.13379 2.60956 4.2519 2.25371 4.2519 1.83855C 4.2519 1.42339 4.13379 1.12685 3.89757 0.830314C 3.66135 0.533774 3.30703 0.415155 2.89365 0.415155L 1.94878 0.415155L 1.94878 3.26194L 2.89365 3.26194Z"/>
<path id="path47_fill" d="M 2.77554 2.78748L 6.08257 5.63427C 6.25974 5.81219 6.49595 5.93081 6.79122 6.04942C 7.08649 6.16804 7.26366 6.22735 7.44082 6.22735L 7.44082 6.46458L 4.42906 6.46458L 4.42906 6.22735C 4.84243 6.22735 5.07866 6.16804 5.07866 5.99012C 5.07866 5.8715 5.0196 5.75288 4.84243 5.63427L 2.185 3.32125L 1.88973 3.55849L 1.88973 5.04119C 1.88973 5.57496 1.94878 5.93081 2.06689 6.04942C 2.185 6.16804 2.48028 6.28666 2.89365 6.28666L 2.89365 6.52389L -1.80219e-06 6.52389L -1.80219e-06 6.22735C 0.472431 6.22735 0.708653 6.16804 0.826761 5.99012C 0.944869 5.8715 1.00392 5.51565 1.00392 4.98188L 1.00392 1.4827C 1.00392 0.948929 0.944869 0.593083 0.826761 0.474466C 0.708653 0.35585 0.413377 0.237233 -1.80219e-06 0.237233L -1.80219e-06 1.68564e-14L 2.89365 1.68564e-14L 2.89365 0.29654C 2.42122 0.29654 2.185 0.355849 2.06689 0.533774C 1.94878 0.65239 1.88973 1.00824 1.88973 1.54201L 1.88973 3.02471L 4.07474 1.12685C 4.42906 0.830314 4.60622 0.593083 4.60622 0.474466C 4.60622 0.35585 4.42906 0.29654 4.13379 0.29654L 4.13379 0.0593072L 6.61406 0.0593072L 6.61406 0.29654C 6.20068 0.29654 5.90541 0.35585 5.61014 0.474466C 5.37392 0.593083 5.07866 0.830314 4.66528 1.12685L 2.77554 2.78748Z"/>
<path id="path48_fill" d="M 2.89365 6.46458L -3.60438e-06 6.46458L -3.60438e-06 6.22735C 0.472429 6.22735 0.708651 6.16804 0.826759 5.99011C 0.944868 5.8715 1.00392 5.51565 1.00392 4.98188L 1.00392 1.4827C 1.00392 0.948929 0.944868 0.593083 0.826759 0.474466C 0.708651 0.35585 0.413375 0.237233 -3.60438e-06 0.237233L -3.60438e-06 1.68564e-14L 2.89365 1.68564e-14L 2.89365 0.29654C 2.42122 0.29654 2.185 0.355849 2.06689 0.533774C 1.94878 0.65239 1.88974 1.00824 1.88974 1.54201L 1.88974 5.04119C 1.88974 5.57496 1.94878 5.93081 2.06689 6.04942C 2.185 6.16804 2.48027 6.28665 2.89365 6.28665L 2.89365 6.46458Z"/>
<path id="path49_fill" d="M 5.55109 5.1598L 5.55109 1.54201C 5.55109 1.00824 5.49203 0.65239 5.37393 0.533774C 5.25582 0.415157 4.96054 0.29654 4.54716 0.29654L 4.54716 0.0593072L 6.96839 0.0593072L 6.96839 0.29654C 6.49595 0.29654 6.25974 0.355849 6.14163 0.533774C 6.02352 0.65239 5.96447 1.00824 5.96447 1.54201L 5.96447 6.6425L 5.72825 6.6425L 1.4173 1.30478L 1.4173 5.04119C 1.4173 5.57496 1.47635 5.93081 1.59446 6.04942C 1.71257 6.16804 2.00784 6.28665 2.42122 6.28665L 2.42122 6.52389L -1.80219e-06 6.52389L -1.80219e-06 6.22735C 0.472431 6.22735 0.708653 6.16804 0.826761 5.99011C 0.944869 5.8715 1.00392 5.51565 1.00392 4.98188L 1.00392 1.4827C 1.00392 0.948929 0.944869 0.593083 0.826761 0.474466C 0.708653 0.35585 0.413377 0.237233 -1.80219e-06 0.237233L -1.80219e-06 1.68564e-14L 1.53541 1.68564e-14L 5.55109 5.1598Z"/>
<path id="path50_fill" d="M 5.25582 4.86326C 5.25582 4.62603 5.19676 4.4481 5.0196 4.32949C 4.84244 4.21087 4.60622 4.15157 4.25189 4.15157L 4.25189 3.91433L 7.02744 3.91433L 7.02744 4.15157C 6.55501 4.15157 6.31879 4.21087 6.20068 4.3888C 6.08257 4.56672 6.02352 4.86326 6.02352 5.39704L 6.02352 6.22735C 5.66919 6.22735 5.13771 6.34596 4.31095 6.5832C 3.95663 6.70181 3.6023 6.76112 3.24797 6.76112C 2.36216 6.76112 1.59446 6.40527 0.944868 5.75288C 0.295272 5.10049 -1.80219e-06 4.27018 -1.80219e-06 3.38056C -1.80219e-06 2.43163 0.295272 1.66063 0.944868 1.00824C 1.59446 0.355848 2.36216 1.80994e-06 3.24797 1.80994e-06C 3.6023 1.80994e-06 3.95663 0.0593063 4.31095 0.23723C 4.66528 0.415155 4.96055 0.593082 5.25582 0.94893C 5.31487 0.889622 5.37392 0.830313 5.49203 0.711697C 5.55109 0.593081 5.61014 0.474466 5.6692 0.355849L 5.90541 0.355849L 5.90541 2.72817L 5.6692 2.72817C 5.55109 2.01648 5.25581 1.4827 4.84243 1.06754C 4.42905 0.652388 3.95662 0.474464 3.36608 0.474464C 2.59838 0.474464 2.00784 0.771007 1.59446 1.4827C 1.24013 2.01648 1.06297 2.66886 1.06297 3.43987C 1.06297 4.21087 1.24013 4.86326 1.59446 5.39704C 2.00784 6.04942 2.71649 6.34596 3.6023 6.34596C 4.07474 6.34596 4.48811 6.22735 4.84243 5.99012C 5.07865 5.69358 5.25582 5.27842 5.25582 4.86326Z"/>
<path id="path51_fill" d="M 2.06689 0.355848L 2.06689 3.02471L 2.65743 3.02471C 3.24798 3.02471 3.6023 2.96541 3.77946 2.84679C 3.95662 2.72817 4.01568 2.37232 4.01568 1.89786L 4.25189 1.89786L 4.25189 4.62603L 4.01568 4.62603C 4.01568 4.15157 3.95662 3.79572 3.77946 3.6771C 3.6023 3.55848 3.24798 3.49918 2.65743 3.49918L 2.06689 3.49918L 2.06689 5.39703C 2.06689 5.99011 2.12595 6.34596 2.24406 6.52389C 2.36217 6.70181 2.71649 6.76112 3.18892 6.76112L 3.18892 6.99835L 0 6.99835L 0 6.82043C 0.472433 6.82043 0.826761 6.76112 0.944869 6.5832C 1.06298 6.40527 1.12202 6.04942 1.12202 5.45634L 1.12202 1.60132C 1.12202 1.00824 1.06298 0.652391 0.944869 0.474466C 0.826761 0.296542 0.472433 0.237233 0 0.237233L 0 1.68564e-14L 5.61014 1.68564e-14L 5.72825 1.60132L 5.49203 1.60132L 5.43298 1.36409C 5.37392 1.00824 5.25582 0.771004 5.07866 0.652388C 4.90149 0.533772 4.54717 0.415155 4.01568 0.415155L 2.06689 0.415155L 2.06689 0.355848Z"/>
<path id="path52_fill" d="M 7.0865 3.38056C 7.0865 4.32949 6.73216 5.10049 6.02352 5.75288C 5.31487 6.40527 4.48811 6.76112 3.54324 6.76112C 2.59838 6.76112 1.71257 6.40527 1.06297 5.75288C 0.354325 5.10049 -1.80219e-06 4.27018 -1.80219e-06 3.38056C -1.80219e-06 2.43163 0.354325 1.66063 1.06297 1.00824C 1.77162 0.355848 2.59838 1.80994e-06 3.54324 1.80994e-06C 4.48811 1.80994e-06 5.37392 0.355848 6.02352 1.00824C 6.73216 1.66063 7.0865 2.43163 7.0865 3.38056ZM 3.54324 0.415157C 2.71649 0.415157 2.06689 0.711695 1.59446 1.42339C 1.18108 1.95716 1.00392 2.60956 1.00392 3.38056C 1.00392 4.15157 1.18108 4.80396 1.59446 5.33773C 2.06689 5.99012 2.71649 6.34596 3.54324 6.34596C 4.37 6.34596 5.0196 6.04943 5.49203 5.33773C 5.90541 4.80396 6.08257 4.15157 6.08257 3.38056C 6.08257 2.60956 5.90541 1.95716 5.49203 1.42339C 5.07865 0.771003 4.37 0.415157 3.54324 0.415157Z"/>
<path id="path53_fill" d="M 3.30703 3.6771L 4.31094 4.92257C 4.66527 5.33773 4.96055 5.63427 5.31487 5.8715C 5.66919 6.10873 5.96447 6.22735 6.3188 6.28666L 6.3188 6.52389L 4.54717 6.52389L 2.42122 3.73641L 1.88974 3.73641L 1.88974 5.04119C 1.88974 5.57496 1.94879 5.93081 2.06689 6.04942C 2.185 6.16804 2.48027 6.28666 2.89365 6.28666L 2.89365 6.52389L 0 6.52389L 0 6.22735C 0.472433 6.22735 0.708646 6.16804 0.826754 5.99012C 0.944862 5.8715 1.00393 5.51565 1.00393 4.98188L 1.00393 1.4827C 1.00393 0.948929 0.944862 0.593083 0.826754 0.474466C 0.708646 0.35585 0.413379 0.237233 0 0.237233L 0 1.68564e-14L 2.83459 1.68564e-14C 3.54324 1.68564e-14 4.13379 0.177925 4.54717 0.533774C 4.96055 0.889622 5.13771 1.30478 5.13771 1.83855C 5.13771 2.31301 4.96054 2.72817 4.60621 3.02471C 4.37 3.43987 3.89757 3.61779 3.30703 3.6771ZM 2.89365 3.26194C 3.30703 3.26194 3.66136 3.14333 3.89757 2.84679C 4.13379 2.60956 4.2519 2.25371 4.2519 1.83855C 4.2519 1.42339 4.13379 1.12685 3.89757 0.830314C 3.66136 0.533774 3.30703 0.415155 2.89365 0.415155L 1.94878 0.415155L 1.94878 3.26194L 2.89365 3.26194Z"/>
<path id="path54_fill" d="M 6.43691 7.29489L 6.20067 7.29489C 6.14162 7.17628 6.14163 6.99835 6.02352 6.87974C 5.96447 6.76112 5.84636 6.64251 5.78731 6.5832C 5.49204 6.87974 5.1377 7.17628 4.78338 7.29489C 4.42905 7.47282 4.01568 7.53213 3.6023 7.53213C 2.59838 7.53213 1.77163 7.17628 1.06298 6.46458C 0.354328 5.75289 -7.20875e-06 4.86326 -7.20875e-06 3.79572C -7.20875e-06 2.78748 0.354328 1.89786 1.06298 1.12686C 1.77163 0.415158 2.59838 9.0497e-07 3.6023 9.0497e-07C 4.01568 9.0497e-07 4.42905 0.0593099 4.78338 0.237234C 5.1377 0.415158 5.49204 0.652388 5.78731 1.00824C 5.84636 0.948928 5.96447 0.830312 6.02352 0.711696C 6.08257 0.59308 6.14162 0.474466 6.20067 0.296541L 6.43691 0.296541L 6.43691 3.02471L 6.20067 3.02471C 6.02351 2.25371 5.72824 1.66063 5.31486 1.18616C 4.90148 0.771006 4.31095 0.533775 3.66135 0.533775C 2.77554 0.533775 2.12595 0.88962 1.65352 1.60132C 1.24014 2.1944 1.06298 2.96541 1.06298 3.79572C 1.06298 4.68534 1.24014 5.39704 1.65352 5.99012C 2.12595 6.70181 2.77554 7.05766 3.66135 7.05766C 4.31095 7.05766 4.84243 6.82043 5.31486 6.40527C 5.7873 5.99011 6.08257 5.33773 6.20067 4.62603L 6.43691 4.62603L 6.43691 7.29489Z"/>
<path id="path55_fill" d="M 1.88973 3.26194L 1.88973 4.98188C 1.88973 5.51565 1.94878 5.8715 2.06689 5.99012C 2.18499 6.10873 2.48028 6.22735 2.89366 6.22735L 2.89366 6.46458L -7.20875e-06 6.46458L -7.20875e-06 6.22735C 0.472426 6.22735 0.708656 6.16804 0.826765 5.99012C 0.944873 5.8715 1.00392 5.51565 1.00392 4.98188L 1.00392 1.4827C 1.00392 0.948929 0.944873 0.593083 0.826765 0.474466C 0.708656 0.35585 0.413372 0.237233 -7.20875e-06 0.237233L -7.20875e-06 1.68564e-14L 2.89366 1.68564e-14L 2.89366 0.29654C 2.42123 0.29654 2.18499 0.355849 2.06689 0.533774C 1.94878 0.711698 1.88973 1.00824 1.88973 1.54201L 1.88973 2.9061L 5.49204 2.9061L 5.49204 1.54201C 5.49204 1.00824 5.43297 0.65239 5.31486 0.533774C 5.19675 0.415157 4.90149 0.29654 4.48811 0.29654L 4.48811 0.0593072L 7.38176 0.0593072L 7.38176 0.29654C 6.90932 0.29654 6.67311 0.355849 6.555 0.533774C 6.43689 0.711698 6.37785 1.00824 6.37785 1.54201L 6.37785 5.04119C 6.37785 5.57496 6.43689 5.93081 6.555 6.04942C 6.67311 6.16804 6.96838 6.28666 7.38176 6.28666L 7.38176 6.52389L 4.48811 6.52389L 4.48811 6.22735C 4.96054 6.22735 5.19675 6.16804 5.31486 5.99012C 5.43297 5.8715 5.49204 5.51565 5.49204 4.98188L 5.49204 3.26194L 1.88973 3.26194Z"/>
<path id="path56_fill" d="M 2.89365 6.46458L 3.60438e-06 6.46458L 3.60438e-06 6.22735C 0.472437 6.22735 0.708649 6.16804 0.826758 5.99011C 0.944866 5.81219 1.00391 5.51565 1.00391 4.98188L 1.00391 1.4827C 1.00391 0.948929 0.944866 0.593083 0.826758 0.474466C 0.708649 0.35585 0.413382 0.237233 3.60438e-06 0.237233L 3.60438e-06 1.68564e-14L 2.89365 1.68564e-14L 2.89365 0.29654C 2.42122 0.29654 2.18501 0.355849 2.0669 0.533774C 1.94879 0.711698 1.88972 1.00824 1.88972 1.54201L 1.88972 5.04119C 1.88972 5.57496 1.94879 5.93081 2.0669 6.04942C 2.18501 6.16804 2.48027 6.28665 2.89365 6.28665L 2.89365 6.46458Z"/>
<path id="path57_fill" d="M -7.20875e-06 6.46458L -7.20875e-06 6.22735C 0.472426 6.22735 0.708656 6.16804 0.826765 5.99011C 0.944873 5.81219 1.00392 5.51565 1.00392 4.98188L 1.00392 1.4827C 1.00392 0.948929 0.944873 0.593083 0.826765 0.474466C 0.708656 0.35585 0.413372 0.237233 -7.20875e-06 0.237233L -7.20875e-06 1.68564e-14L 2.89366 1.68564e-14L 2.89366 0.29654C 2.42123 0.29654 2.18499 0.355849 2.06689 0.533774C 1.94878 0.711698 1.88973 1.00824 1.88973 1.54201L 1.88973 4.86326C 1.88973 5.39703 1.94878 5.75288 2.06689 5.8715C 2.18499 5.99012 2.48028 6.10873 2.89366 6.10873L 4.13378 6.10873C 4.60621 6.10873 4.90149 6.04942 5.07865 5.93081C 5.19676 5.81219 5.31487 5.63427 5.37392 5.27842L 5.43298 5.04119L 5.66919 5.04119L 5.55109 6.46458L -7.20875e-06 6.46458Z"/>
<path id="path58_fill" d="M 7.20875e-06 6.46458L 7.20875e-06 6.22735C 0.47244 6.22735 0.708653 6.16804 0.826761 5.99011C 0.944869 5.81219 1.00392 5.51565 1.00392 4.98188L 1.00392 1.4827C 1.00392 0.948929 0.944869 0.593083 0.826761 0.474466C 0.708653 0.35585 0.413386 0.237233 7.20875e-06 0.237233L 7.20875e-06 1.68564e-14L 2.89366 1.68564e-14C 4.07474 1.68564e-14 4.96055 0.296539 5.61015 0.948928C 6.20069 1.54201 6.4369 2.25371 6.4369 3.20264C 6.4369 4.15157 6.14163 4.92257 5.61015 5.45634C 5.01961 6.10873 4.07474 6.40527 2.89366 6.40527L 7.20875e-06 6.40527L 7.20875e-06 6.46458ZM 1.83067 0.474466L 1.83067 4.86326C 1.83067 5.39703 1.88974 5.75288 2.00784 5.8715C 2.12595 5.99012 2.42122 6.10873 2.8346 6.10873L 2.89366 6.10873C 3.83852 6.10873 4.48812 5.81219 4.96055 5.1598C 5.25582 4.68534 5.43297 4.09226 5.43297 3.26194C 5.43297 2.49094 5.25582 1.89786 4.96055 1.42339C 4.54717 0.771006 3.83852 0.474466 2.89366 0.474466L 1.83067 0.474466Z"/>
<path id="path59_fill" d="M 3.30703 3.6771L 4.31095 4.92257C 4.66528 5.33773 4.96054 5.63427 5.31486 5.8715C 5.66919 6.10873 5.96446 6.22735 6.31879 6.28666L 6.31879 6.52389L 4.54717 6.52389L 2.42121 3.73641L 1.88973 3.73641L 1.88973 5.04119C 1.88973 5.57496 1.94878 5.93081 2.06689 6.04942C 2.18499 6.16804 2.48028 6.28666 2.89366 6.28666L 2.89366 6.52389L -7.20875e-06 6.52389L -7.20875e-06 6.22735C 0.472426 6.22735 0.708656 6.16804 0.826765 5.99012C 0.944873 5.81219 1.00392 5.51565 1.00392 4.98188L 1.00392 1.4827C 1.00392 0.948929 0.944873 0.593083 0.826765 0.474466C 0.708656 0.35585 0.413372 0.237233 -7.20875e-06 0.237233L -7.20875e-06 1.68564e-14L 2.8346 1.68564e-14C 3.54325 1.68564e-14 4.13379 0.177925 4.54717 0.533774C 4.96054 0.889622 5.13771 1.30478 5.13771 1.83855C 5.13771 2.31301 4.96055 2.72817 4.60622 3.02471C 4.2519 3.32125 3.89757 3.61779 3.30703 3.6771ZM 2.9527 3.26194C 3.36608 3.26194 3.72041 3.14333 3.95662 2.84679C 4.19284 2.60956 4.31095 2.25371 4.31095 1.83855C 4.31095 1.42339 4.19284 1.12685 3.95662 0.830314C 3.72041 0.533774 3.36608 0.415155 2.9527 0.415155L 2.00785 0.415155L 2.00785 3.26194L 2.9527 3.26194Z"/>
<path id="path60_fill" d="M 7.20875e-06 6.46458L 7.20875e-06 6.22735C 0.47244 6.22735 0.708653 6.16804 0.826761 5.99011C 0.944869 5.81219 1.00392 5.51565 1.00392 4.98188L 1.00392 1.4827C 1.00392 0.948929 0.944869 0.593083 0.826761 0.474466C 0.708653 0.35585 0.413386 0.237233 7.20875e-06 0.237233L 7.20875e-06 1.68564e-14L 4.84243 1.68564e-14L 4.90149 1.4827L 4.66528 1.4827L 4.60622 1.24547C 4.54717 0.948928 4.42906 0.711696 4.31095 0.652388C 4.13379 0.533772 3.83851 0.474466 3.36608 0.474466L 1.77163 0.474466L 1.77163 2.9061L 2.30311 2.9061C 2.8346 2.9061 3.18892 2.84679 3.30702 2.72817C 3.42513 2.60955 3.54325 2.31301 3.54325 1.89786L 3.77947 1.89786L 3.77947 4.32949L 3.54325 4.32949C 3.54325 3.85503 3.48419 3.61779 3.30702 3.49918C 3.12986 3.38056 2.8346 3.32125 2.30311 3.32125L 1.77163 3.32125L 1.77163 4.86326C 1.77163 5.39703 1.83068 5.75288 1.94879 5.8715C 2.06689 5.99012 2.36216 6.10873 2.77554 6.10873L 3.66135 6.10873C 4.13378 6.10873 4.42906 6.04942 4.60622 5.93081C 4.72433 5.81219 4.84244 5.63427 4.90149 5.27842L 4.96055 5.04119L 5.19676 5.04119L 5.1377 6.46458L 7.20875e-06 6.46458Z"/>
<path id="path61_fill" d="M 5.55109 5.1598L 5.55109 1.54201C 5.55109 1.00824 5.49203 0.65239 5.37392 0.533774C 5.25581 0.415157 4.96054 0.29654 4.54716 0.29654L 4.54716 0.0593072L 6.96839 0.0593072L 6.96839 0.29654C 6.49595 0.29654 6.25974 0.355849 6.14163 0.533774C 6.02352 0.65239 5.96446 1.00824 5.96446 1.54201L 5.96446 6.6425L 5.72825 6.6425L 1.4173 1.30478L 1.4173 5.04119C 1.4173 5.57496 1.47635 5.93081 1.59446 6.04942C 1.71257 6.16804 2.00783 6.28665 2.42121 6.28665L 2.42121 6.52389L 7.20875e-06 6.52389L 7.20875e-06 6.22735C 0.47244 6.22735 0.708653 6.16804 0.826761 5.99011C 0.944869 5.81219 1.00392 5.51565 1.00392 4.98188L 1.00392 1.4827C 1.00392 0.948929 0.944869 0.593083 0.826761 0.474466C 0.708653 0.35585 0.413386 0.237233 7.20875e-06 0.237233L 7.20875e-06 1.68564e-14L 1.5354 1.68564e-14L 5.55109 5.1598Z"/>
<path id="path62_fill" d="M 0.531483 1.06755L 0.472426 1.06755C 0.354317 1.06755 0.236224 1.00824 0.118115 0.889619C 7.20699e-06 0.771003 3.35684e-14 0.652388 3.35684e-14 0.533772C 3.35684e-14 0.415156 0.0590613 0.29654 0.118115 0.177924C 0.236224 0.0593081 0.354317 -1.80994e-06 0.472426 -1.80994e-06C 0.649588 -1.80994e-06 0.767703 0.0593081 0.885812 0.177924C 1.00392 0.29654 1.06297 0.474465 1.06297 0.711698C 1.06297 0.94893 1.00392 1.24547 0.826754 1.54201C 0.649592 1.89786 0.413386 2.13509 0.118115 2.31301L 3.35684e-14 2.1944C 0.177162 1.95717 0.354332 1.77924 0.413386 1.66063C 0.47244 1.54201 0.472429 1.30478 0.531483 1.06755Z"/>
<path id="path63_fill" d="M 0.53148 6.40527C 0.472426 6.46458 0.413379 6.52389 0.354325 6.58319C 0.295271 6.70181 0.236209 6.76112 0.236209 6.87973L -3.60438e-06 6.87973L -3.60438e-06 4.56672L 0.236209 4.56672C 0.236209 4.74465 0.295267 4.92257 0.295267 5.04119C 0.413375 5.39703 0.590534 5.69357 0.82675 5.99011C 1.18108 6.34596 1.65352 6.52389 2.18501 6.52389C 2.59838 6.52389 2.89366 6.40527 3.12988 6.16804C 3.36609 5.93081 3.48419 5.69357 3.48419 5.33773C 3.48419 5.10049 3.36609 4.86326 3.12988 4.62603C 2.95271 4.44811 2.65744 4.21087 2.24406 4.03295L 1.24014 3.49918C 0.885812 3.32125 0.649599 3.08402 0.413382 2.78748C 0.177166 2.43163 0.0590541 2.07578 0.0590541 1.71993C 0.0590541 1.24547 0.236209 0.88962 0.53148 0.59308C 0.885805 0.296539 1.29919 0.118618 1.77162 0.118618C 2.06689 0.118618 2.30312 0.177924 2.53933 0.237232C 2.7165 0.29654 2.89366 0.415157 3.07082 0.533773C 3.12987 0.474465 3.18892 0.415156 3.24797 0.296539C 3.30703 0.177923 3.36609 0.118615 3.36609 -9.04969e-07L 3.6023 -9.04969e-07L 3.6023 2.37232L 3.36609 2.37232C 3.36609 1.83855 3.24798 1.42339 3.01176 1.12685C 2.71649 0.711697 2.3031 0.533773 1.71256 0.533773C 1.41729 0.533773 1.18108 0.652389 0.944866 0.830313C 0.767703 1.00824 0.649595 1.24547 0.649595 1.54201C 0.649595 1.77924 0.767703 2.01648 0.944866 2.25371C 1.12203 2.43163 1.47636 2.60956 1.94879 2.9061L 2.9527 3.43987C 3.30703 3.61779 3.6023 3.85502 3.83851 4.21087C 4.01568 4.4481 4.07473 4.74464 4.07473 5.10049C 4.07473 5.69357 3.89756 6.10873 3.48419 6.46458C 3.07081 6.82043 2.59838 6.99835 2.06689 6.99835C 1.83067 6.99835 1.53541 6.93904 1.29919 6.87973C 1.12203 6.6425 0.82675 6.52389 0.53148 6.40527Z"/>
<path id="path64_fill" d="M 1.59446 1.18616L 1.59446 5.39703C 1.59446 5.99011 1.65352 6.34596 1.77163 6.52389C 1.88974 6.70181 2.24405 6.76112 2.71648 6.76112L 2.71648 6.99835L 7.20875e-06 6.99835L 7.20875e-06 6.82043C 0.47244 6.82043 0.82675 6.76112 0.944858 6.5832C 1.06297 6.40527 1.12203 6.04942 1.12203 5.45634L 1.12203 1.60132C 1.12203 1.00824 1.06297 0.652391 0.944858 0.474466C 0.82675 0.296542 0.47244 0.237233 7.20875e-06 0.237233L 7.20875e-06 1.68564e-14L 2.00784 1.68564e-14L 4.4881 5.75288L 6.96838 1.68564e-14L 8.79907 1.68564e-14L 8.79907 0.237233C 8.32663 0.237233 7.9723 0.296542 7.8542 0.474466C 7.73609 0.652391 7.67704 1.00824 7.67704 1.60132L 7.67704 5.45634C 7.67704 6.04942 7.73609 6.40527 7.8542 6.5832C 7.9723 6.76112 8.32663 6.82043 8.79907 6.82043L 8.79907 7.05766L 5.61015 7.05766L 5.61015 6.82043C 6.08258 6.82043 6.43689 6.76112 6.555 6.5832C 6.67311 6.40527 6.73217 6.04942 6.73217 5.45634L 6.73217 1.60132L 4.25189 7.2949L 4.07474 7.2949L 1.59446 1.18616Z"/>
<path id="path65_fill" d="M 7.20875e-06 6.46458L 7.20875e-06 6.22735C 0.47244 6.22735 0.708653 6.16804 0.826761 5.99011C 0.944869 5.81219 1.00392 5.51565 1.00392 4.98188L 1.00392 1.4827C 1.00392 0.948929 0.944869 0.593083 0.826761 0.474466C 0.708653 0.35585 0.413386 0.237233 7.20875e-06 0.237233L 7.20875e-06 1.68564e-14L 4.84243 1.68564e-14L 4.96055 1.42339L 4.72434 1.42339L 4.66528 1.18616C 4.60622 0.889621 4.48812 0.652389 4.37001 0.593081C 4.19285 0.474465 3.89757 0.415155 3.42514 0.415155L 1.83067 0.415155L 1.83067 2.84679L 2.36217 2.84679C 2.89366 2.84679 3.24797 2.78748 3.36608 2.66886C 3.48419 2.55025 3.60229 2.25371 3.60229 1.83855L 3.83852 1.83855L 3.83852 4.27018L 3.60229 4.27018C 3.60229 3.79572 3.54324 3.55849 3.36608 3.43987C 3.18892 3.32125 2.89366 3.26194 2.36217 3.26194L 1.83067 3.26194L 1.83067 4.80395C 1.83067 5.33773 1.88974 5.69358 2.00784 5.81219C 2.12595 5.93081 2.42122 6.04942 2.8346 6.04942L 3.72041 6.04942C 4.19284 6.04942 4.48812 5.99012 4.66528 5.8715C 4.78339 5.75288 4.90149 5.57496 4.96055 5.21911L 5.01961 4.98188L 5.25582 4.98188L 5.19676 6.40527L 7.20875e-06 6.40527L 7.20875e-06 6.46458Z"/>
<path id="path66_fill" d="M 6.73216 -9.0497e-07L 6.79122 1.42339L 6.55501 1.42339L 6.49595 1.18616C 6.43689 0.88962 6.31879 0.652388 6.20068 0.59308C 6.02352 0.474464 5.72824 0.415158 5.25581 0.415158L 3.83851 0.415158L 3.83851 4.92257C 3.83851 5.45634 3.89758 5.81219 4.01569 5.93081C 4.13379 6.04942 4.42906 6.16804 4.84244 6.16804L 4.84244 6.40527L 1.94879 6.40527L 1.94879 6.16804C 2.42123 6.16804 2.65744 6.10873 2.77555 5.93081C 2.89365 5.75288 2.9527 5.45634 2.9527 4.92257L 2.9527 0.415158L 1.53541 0.415158C 1.06297 0.415158 0.7677 0.474464 0.590537 0.59308C 0.472429 0.711696 0.354321 0.88962 0.295267 1.18616L 0.236209 1.42339L -3.60438e-06 1.42339L 0.0590541 -9.0497e-07L 6.73216 -9.0497e-07Z"/>
<path id="path67_fill" d="M 2.185 4.4481L 1.65352 5.63427C 1.59446 5.81219 1.5354 5.93081 1.5354 5.99012C 1.5354 6.28666 1.83068 6.40527 2.48027 6.40527L 2.48027 6.64251L -7.20875e-06 6.64251L -7.20875e-06 6.40527C 0.472426 6.40527 0.826754 6.28666 0.944862 6.10873C 1.00392 6.04942 1.12202 5.81219 1.24013 5.45634L 3.6023 -1.80994e-06L 3.72041 -1.80994e-06L 6.08258 5.45634C 6.25974 5.8715 6.37784 6.10873 6.49594 6.22735C 6.61405 6.34596 6.90934 6.40527 7.32272 6.40527L 7.32272 6.64251L 4.37001 6.64251L 4.37001 6.40527C 5.01961 6.40527 5.31486 6.28666 5.31486 5.99012C 5.31486 5.8715 5.25582 5.75288 5.19676 5.57496L 4.66528 4.3888L 2.185 4.3888L 2.185 4.4481ZM 4.60622 4.03295L 3.4842 1.42339L 2.36216 4.03295L 4.60622 4.03295Z"/>
<path id="path68_fill" d="M 2.06689 3.49918L 2.06689 5.39703C 2.06689 5.99011 2.12596 6.34596 2.24406 6.52389C 2.36217 6.70181 2.71648 6.76112 3.18891 6.76112L 3.18891 6.99835L -3.60438e-06 6.99835L -3.60438e-06 6.82043C 0.472429 6.82043 0.826758 6.76112 0.944866 6.5832C 1.06297 6.40527 1.12202 6.04942 1.12202 5.45634L 1.12202 1.60132C 1.12202 1.00824 1.06297 0.652391 0.944866 0.474466C 0.826758 0.296542 0.472429 0.237233 -3.60438e-06 0.237233L -3.60438e-06 1.68564e-14L 3.18891 1.68564e-14L 3.18891 0.237233C 2.71648 0.237233 2.36217 0.296542 2.24406 0.474466C 2.12596 0.652391 2.06689 1.00824 2.06689 1.60132L 2.06689 3.08402L 6.08258 3.08402L 6.08258 1.60132C 6.08258 1.00824 6.02352 0.652391 5.90541 0.474466C 5.7873 0.296542 5.43297 0.237233 4.96054 0.237233L 4.96054 1.68564e-14L 8.14948 1.68564e-14L 8.14948 0.237233C 7.67704 0.237233 7.32271 0.296542 7.20461 0.474466C 7.0865 0.652391 7.02743 1.00824 7.02743 1.60132L 7.02743 5.45634C 7.02743 6.04942 7.0865 6.40527 7.20461 6.5832C 7.32271 6.76112 7.67704 6.82043 8.14948 6.82043L 8.14948 7.05766L 4.96054 7.05766L 4.96054 6.82043C 5.43297 6.82043 5.7873 6.76112 5.90541 6.5832C 6.02352 6.40527 6.08258 6.04942 6.08258 5.45634L 6.08258 3.55848L 2.06689 3.55848L 2.06689 3.49918Z"/>
<path id="path69_fill" d="M 2.185 4.4481L 1.65351 5.63427C 1.59446 5.81219 1.5354 5.93081 1.5354 5.99012C 1.5354 6.28666 1.83067 6.40527 2.48027 6.40527L 2.48027 6.64251L 7.20875e-06 6.64251L 7.20875e-06 6.40527C 0.47244 6.40527 0.82675 6.28666 0.944858 6.10873C 1.00391 6.04942 1.12202 5.81219 1.24013 5.45634L 3.60229 -1.80994e-06L 3.72041 -1.80994e-06L 6.08257 5.45634C 6.25974 5.8715 6.37785 6.10873 6.49596 6.22735C 6.61407 6.34596 6.90933 6.40527 7.32271 6.40527L 7.32271 6.64251L 4.37001 6.64251L 4.37001 6.40527C 5.0196 6.40527 5.31488 6.28666 5.31488 5.99012C 5.31488 5.8715 5.25582 5.75288 5.19676 5.57496L 4.66528 4.3888L 2.185 4.3888L 2.185 4.4481ZM 4.60622 4.03295L 3.4842 1.42339L 2.36217 4.03295L 4.60622 4.03295Z"/>
<path id="path70_fill" d="M 7.20875e-06 6.40527L 7.20875e-06 6.16804C 0.47244 6.16804 0.708653 6.10873 0.826761 5.93081C 0.944869 5.75288 1.00392 5.45634 1.00392 4.92257L 1.00392 1.42339C 1.00392 0.889621 0.944869 0.533775 0.826761 0.415158C 0.708653 0.296542 0.47244 0.237232 7.20875e-06 0.237232L 7.20875e-06 -9.0497e-07L 2.89365 -9.0497e-07L 2.89365 0.237232C 2.42122 0.237232 2.18501 0.296541 2.0669 0.474466C 1.94879 0.65239 1.88973 0.948928 1.88973 1.4827L 1.88973 4.80395C 1.88973 5.33773 1.94879 5.69358 2.0669 5.81219C 2.18501 5.93081 2.48028 6.04943 2.89365 6.04943L 4.13379 6.04943C 4.60623 6.04943 4.90148 5.99012 5.07865 5.8715C 5.19675 5.75288 5.31486 5.57496 5.37392 5.21911L 5.43299 4.98188L 5.66919 4.98188L 5.55107 6.40527L 7.20875e-06 6.40527Z"/>
<path id="path71_fill" d="M 6.73218 -9.0497e-07L 6.79121 1.42339L 6.55502 1.42339L 6.49594 1.18616C 6.43689 0.88962 6.31878 0.652388 6.20067 0.59308C 6.02351 0.474464 5.72826 0.415158 5.25582 0.415158L 3.83851 0.415158L 3.83851 4.92257C 3.83851 5.45634 3.89756 5.81219 4.01566 5.93081C 4.13377 6.04942 4.42906 6.16804 4.84244 6.16804L 4.84244 6.40527L 1.94877 6.40527L 1.94877 6.16804C 2.4212 6.16804 2.65743 6.10873 2.77554 5.93081C 2.89365 5.75288 2.9527 5.45634 2.9527 4.92257L 2.9527 0.415158L 1.53542 0.415158C 1.06299 0.415158 0.767696 0.474464 0.590534 0.59308C 0.472426 0.711696 0.354317 0.88962 0.295263 1.18616L 0.236224 1.42339L -7.20875e-06 1.42339L 0.0590685 -9.0497e-07L 6.73218 -9.0497e-07Z"/>
<path id="path72_fill" d="M 1.88972 3.26194L 1.88972 4.98188C 1.88972 5.51565 1.94877 5.8715 2.06688 5.99012C 2.18499 6.10873 2.48027 6.22735 2.89365 6.22735L 2.89365 6.46458L -1.44175e-05 6.46458L -1.44175e-05 6.22735C 0.472418 6.22735 0.708649 6.16804 0.826757 5.99012C 0.944866 5.81219 1.00391 5.51565 1.00391 4.98188L 1.00391 1.4827C 1.00391 0.948929 0.944866 0.593083 0.826757 0.474466C 0.708649 0.35585 0.413364 0.237233 -1.44175e-05 0.237233L -1.44175e-05 1.68564e-14L 2.89365 1.68564e-14L 2.89365 0.29654C 2.42122 0.29654 2.18499 0.355849 2.06688 0.533774C 1.94877 0.711698 1.88972 1.00824 1.88972 1.54201L 1.88972 2.9061L 5.49205 2.9061L 5.49205 1.54201C 5.49205 1.00824 5.43296 0.65239 5.31486 0.533774C 5.19675 0.415157 4.9015 0.29654 4.48812 0.29654L 4.48812 0.0593072L 7.38175 0.0593072L 7.38175 0.29654C 6.90932 0.29654 6.67312 0.355849 6.55501 0.533774C 6.4369 0.711698 6.37786 1.00824 6.37786 1.54201L 6.37786 5.04119C 6.37786 5.57496 6.4369 5.93081 6.55501 6.04942C 6.67312 6.16804 6.96837 6.28666 7.38175 6.28666L 7.38175 6.52389L 4.48812 6.52389L 4.48812 6.22735C 4.96055 6.22735 5.19675 6.16804 5.31486 5.99012C 5.43296 5.8715 5.49205 5.51565 5.49205 4.98188L 5.49205 3.26194L 1.88972 3.26194Z"/>
<path id="path73_fill" d="M 0.53148 7.05766C 0.472426 7.11697 0.413379 7.17628 0.354325 7.2949C 0.295271 7.41351 0.236209 7.53213 0.236209 7.65074L -3.60438e-06 7.65074L -3.60438e-06 5.04119L 0.236209 5.04119C 0.236209 5.21911 0.295267 5.39704 0.295267 5.57496C 0.413375 5.99012 0.590537 6.34596 0.885808 6.5832C 1.24013 6.93904 1.77162 7.11697 2.42122 7.11697C 2.8346 7.11697 3.18891 6.99835 3.48418 6.76112C 3.77946 6.52389 3.89757 6.22735 3.89757 5.81219C 3.89757 5.57496 3.77946 5.27842 3.54324 5.04119C 3.30703 4.80395 3.01177 4.56672 2.53933 4.3888L 1.41729 3.79572C 1.06297 3.61779 0.767696 3.32125 0.53148 3.02471C 0.236209 2.66886 0.118112 2.25371 0.118112 1.83855C 0.118112 1.36408 0.295271 0.948929 0.649595 0.593081C 1.00392 0.237232 1.47635 0.0593072 2.06689 0.0593072C 2.36216 0.0593072 2.65743 0.118618 2.89364 0.177926C 3.07081 0.237234 3.30702 0.355849 3.48418 0.533774C 3.54324 0.474466 3.6023 0.355848 3.66136 0.29654C 3.72041 0.237232 3.77946 0.118616 3.77946 -1.68564e-14L 4.01569 -1.68564e-14L 4.01569 2.60956L 3.77946 2.60956C 3.77946 2.07578 3.66136 1.60132 3.42515 1.18616C 3.12987 0.711697 2.65743 0.474466 2.00783 0.474466C 1.65351 0.474466 1.41729 0.593083 1.18108 0.771007C 0.944862 0.948931 0.885808 1.24547 0.885808 1.54201C 0.885808 1.83855 1.00392 2.07578 1.24014 2.31302C 1.4173 2.49094 1.77162 2.72817 2.36216 3.02471L 3.48418 3.61779C 3.89756 3.85502 4.25189 4.09226 4.42905 4.44811C 4.60622 4.74465 4.72432 5.04119 4.72432 5.39703C 4.72432 6.04942 4.4881 6.52389 4.07473 6.93904C 3.66135 7.3542 3.12987 7.53212 2.48028 7.53212C 2.18501 7.53212 1.88973 7.47282 1.59446 7.41351C 1.18109 7.29489 0.82675 7.17628 0.53148 7.05766Z"/>
<path id="path74_fill" d="M 2.89366 6.46458L -7.20875e-06 6.46458L -7.20875e-06 6.22735C 0.472426 6.22735 0.708657 6.16804 0.826765 5.99011C 0.944873 5.81219 1.00392 5.51565 1.00392 4.98188L 1.00392 1.4827C 1.00392 0.948928 0.944873 0.593082 0.826765 0.474465C 0.708657 0.355849 0.413372 0.237232 -7.20875e-06 0.237232L -7.20875e-06 -9.04969e-07L 2.89366 -9.04969e-07L 2.89366 0.237232C 2.42123 0.237232 2.18499 0.296541 2.06689 0.474465C 1.94878 0.65239 1.88973 0.948928 1.88973 1.4827L 1.88973 4.98188C 1.88973 5.51565 1.94878 5.8715 2.06689 5.99011C 2.18499 6.10873 2.48028 6.22735 2.89366 6.22735L 2.89366 6.46458Z"/>
<path id="path75_fill" d="M 5.55109 5.10049L 5.55109 1.4827C 5.55109 0.948928 5.49204 0.593082 5.37393 0.474465C 5.25582 0.355849 4.96054 0.237232 4.54716 0.237232L 4.54716 -9.04969e-07L 6.96838 -9.04969e-07L 6.96838 0.237232C 6.49595 0.237232 6.25974 0.296541 6.14163 0.474465C 6.02352 0.593082 5.96447 0.948928 5.96447 1.4827L 5.96447 6.58319L 5.72824 6.58319L 1.4173 1.24547L 1.4173 4.98188C 1.4173 5.51565 1.47635 5.8715 1.59445 5.99011C 1.71256 6.10873 2.00785 6.22735 2.42123 6.22735L 2.42123 6.46458L 3.60438e-06 6.46458L 3.60438e-06 6.22735C 0.472437 6.22735 0.708649 6.16804 0.826758 5.99011C 0.944866 5.81219 1.00391 5.51565 1.00391 4.98188L 1.00391 1.4827C 1.00391 0.948928 0.944866 0.593082 0.826758 0.474465C 0.708649 0.355849 0.413382 0.237232 3.60438e-06 0.237232L 3.60438e-06 -9.04969e-07L 1.53541 -9.04969e-07L 5.55109 5.10049Z"/>
<path id="path76_fill" d="M 5.84636 6.46458L 5.61015 6.46458C 5.61015 6.34597 5.55109 6.22735 5.49203 6.10873C 5.43298 5.99011 5.37393 5.93081 5.25582 5.8715C 4.96055 6.16804 4.66527 6.40527 4.31095 6.52389C 3.95663 6.70181 3.60231 6.76112 3.24798 6.76112C 2.36217 6.76112 1.59445 6.40527 0.944858 5.75288C 0.295263 5.10049 7.20875e-06 4.27018 7.20875e-06 3.38056C 7.20875e-06 2.43163 0.295263 1.66063 0.944858 1.00824C 1.59445 0.355848 2.36217 9.04969e-07 3.24798 9.04969e-07C 3.60231 9.04969e-07 3.95663 0.0593099 4.31095 0.237234C 4.66527 0.415158 4.96055 0.593081 5.25582 0.948929C 5.31487 0.889621 5.37392 0.830312 5.49203 0.711696C 5.61014 0.59308 5.61013 0.474465 5.66919 0.355848L 5.90542 0.355848L 5.90542 2.72817L 5.66919 2.72817C 5.55108 2.01647 5.25581 1.4827 4.84243 1.06754C 4.42905 0.652387 3.95662 0.474463 3.36608 0.474463C 2.59838 0.474463 2.00784 0.771006 1.59446 1.4827C 1.24013 2.01648 1.06297 2.66886 1.06297 3.43987C 1.06297 4.21087 1.24013 4.86326 1.59446 5.39704C 2.00784 6.04942 2.59838 6.40527 3.36608 6.40527C 3.95662 6.40527 4.42905 6.22735 4.84243 5.81219C 5.25581 5.39703 5.49202 4.86326 5.66919 4.21087L 5.90542 4.21087L 5.90542 6.46458L 5.84636 6.46458Z"/>
<path id="path77_fill" d="M 3.60438e-06 6.46458L 3.60438e-06 6.22735C 0.472437 6.22735 0.708649 6.16804 0.826758 5.99011C 0.944866 5.81219 1.00391 5.51565 1.00391 4.98188L 1.00391 1.4827C 1.00391 0.948928 0.944866 0.593082 0.826758 0.474465C 0.708649 0.355849 0.413382 0.237232 3.60438e-06 0.237232L 3.60438e-06 -9.04969e-07L 4.84243 -9.04969e-07L 4.96055 1.42339L 4.72433 1.42339L 4.66528 1.18616C 4.60622 0.88962 4.48811 0.652388 4.37 0.59308C 4.19284 0.474464 3.89757 0.415158 3.42513 0.415158L 1.83068 0.415158L 1.83068 2.84679L 2.36217 2.84679C 2.89366 2.84679 3.24797 2.78748 3.36608 2.66886C 3.48419 2.55025 3.60231 2.25371 3.60231 1.83855L 3.83852 1.83855L 3.83852 4.27018L 3.60231 4.27018C 3.60231 3.79572 3.54324 3.55849 3.36608 3.43987C 3.18892 3.32125 2.89366 3.26194 2.36217 3.26194L 1.83068 3.26194L 1.83068 4.80395C 1.83068 5.33772 1.88973 5.69358 2.00784 5.81219C 2.12595 5.93081 2.42122 6.04943 2.83459 6.04943L 3.72041 6.04943C 4.19284 6.04943 4.48811 5.99012 4.66528 5.8715C 4.78338 5.75288 4.90149 5.57496 4.96055 5.21911L 5.0196 4.98188L 5.25582 4.98188L 5.19676 6.40527L 3.60438e-06 6.40527L 3.60438e-06 6.46458Z"/>
<path id="path78_fill" d="M -3.60438e-06 0.948929L 1.88973 9.04969e-07L 2.06689 9.04969e-07L 2.06689 6.6425C 2.06689 7.05766 2.06689 7.3542 2.12595 7.47282C 2.185 7.59143 2.24405 7.65074 2.36216 7.71005C 2.48027 7.76936 2.71649 7.82867 3.07082 7.82867L 3.07082 8.0659L 0.118112 8.0659L 0.118112 7.82867C 0.472436 7.82867 0.708642 7.76936 0.82675 7.71005C 0.944858 7.65074 1.00393 7.59143 1.06298 7.47282C 1.12204 7.3542 1.12202 7.11697 1.12202 6.6425L 1.12202 2.43163C 1.12202 1.83855 1.12204 1.4827 1.06298 1.30478C 1.06298 1.18616 1.00392 1.06754 0.944866 1.00824C 0.885812 0.948928 0.767707 0.948929 0.708653 0.948929C 0.590545 0.948929 0.354328 1.00824 0.118112 1.12686L -3.60438e-06 0.948929Z"/>
<path id="path79_fill" d="M 0.177166 8.24382L 0.177166 8.00659C 0.649599 8.00659 1.12203 7.88797 1.59446 7.65074C 2.06689 7.41351 2.42122 7.05766 2.8346 6.46458C 3.24798 5.8715 3.54325 5.27842 3.66135 4.62603C 3.07081 5.04119 2.53933 5.21911 2.00785 5.21911C 1.47636 5.21911 1.00391 4.98188 0.590534 4.56672C 0.177155 4.15157 -7.20875e-06 3.55848 -7.20875e-06 2.84679C -7.20875e-06 2.13509 0.177155 1.54201 0.590534 1.00824C 1.06297 0.355848 1.65351 1.80994e-06 2.42121 1.80994e-06C 3.07081 1.80994e-06 3.60231 0.237231 4.07474 0.771004C 4.66528 1.42339 4.90149 2.25371 4.90149 3.20263C 4.90149 4.09226 4.66527 4.86326 4.25189 5.63427C 3.83852 6.40527 3.24798 6.99835 2.48027 7.53213C 1.88973 7.94728 1.18109 8.12521 0.472436 8.12521L 0.177166 8.12521L 0.177166 8.24382ZM 3.77947 4.21087C 3.83852 3.73641 3.89757 3.32125 3.89757 3.02471C 3.89757 2.66886 3.83852 2.25371 3.72041 1.83855C 3.6023 1.42339 3.42514 1.06754 3.18893 0.830311C 2.95271 0.593079 2.71649 0.474464 2.42121 0.474464C 2.06689 0.474464 1.77162 0.65239 1.5354 0.94893C 1.29919 1.24547 1.12204 1.71993 1.12204 2.31301C 1.12204 3.14333 1.29919 3.73641 1.65352 4.21087C 1.88973 4.56672 2.18501 4.68534 2.59839 4.68534C 2.77555 4.68534 3.01175 4.62603 3.24797 4.56672C 3.48418 4.50741 3.60231 4.3888 3.77947 4.21087Z"/>
<path id="path80_fill" d="M 5.31487 5.10049L 5.31487 5.93081L 4.2519 5.93081L 4.2519 8.00659L 3.30703 8.00659L 3.30703 5.93081L -3.60438e-06 5.93081L -3.60438e-06 5.21911L 3.6023 0L 4.2519 0L 4.2519 5.10049L 5.31487 5.10049ZM 3.30703 5.10049L 3.30703 1.18616L 0.590538 5.10049L 3.30703 5.10049Z"/>
</defs>
</svg>
