<svg xmlns="http://www.w3.org/2000/svg" viewBox="0 0 97.41 45.91"><defs><style>.cls-1{fill:#dd3932;}.cls-1,.cls-2,.cls-4{fill-rule:evenodd;}.cls-2,.cls-3{fill:#231f20;}.cls-4{fill:#ca2026;}</style></defs><path class="cls-1" d="M20.79,5.51a3.46,3.46,0,0,1-.35.49,8.26,8.26,0,0,0-.85,1.71,13.35,13.35,0,0,0-.55,2c-.05.25-.1.47-.14.72l-.53,2.87a16.81,16.81,0,0,1-.54,2c-.06.18-.1.5-.35.5-.9,0-1.65-1.13-2.18-1.75S14,12.4,13.07,12.4c-.59,0-.63.15-1.26-.11a11.15,11.15,0,0,1-1-.51,10.39,10.39,0,0,1-2.16-1.72A18.15,18.15,0,0,0,5.83,7.43a2.57,2.57,0,0,0-.53-.25c.45,2,.77,4.69,1.12,6.8l.29,1.88c.12.69.48,1.37.11,2.1-.68,1.35-3.5.88-3.5,1.32s.55.54.77.68a5.56,5.56,0,0,1,.81.64c.3.3.64.57.92.89l.35.38c.29.3.56.65.86.95a1.53,1.53,0,0,1,.18.18l.08.09.07.07a5.63,5.63,0,0,0,1.19,1c.24.12.76.45.76.74,0,.49-1.69.83-2.09.93L6,26.17c-.15,0-1.07.28-1.07.44s.11.2.21.27a3.41,3.41,0,0,0,.33.17l.68.33a4.42,4.42,0,0,1,1.2.8l.66.59c.28.22.53.48.8.71l.42.34.27.22.28.22a10.56,10.56,0,0,0,2.88,1.65l.76.23a7.87,7.87,0,0,0,3,.18,5,5,0,0,0,.84-.16,12.45,12.45,0,0,1-1.13,1.49,17.26,17.26,0,0,1-1.6,1.69l-.58.54c-.24.23-.52.42-.77.65S11.33,38,10.87,38.41l-.18.15a12.4,12.4,0,0,0-1.8,1.75,8.48,8.48,0,0,0-1.24,1.93,9.46,9.46,0,0,0-.71,2.1h.92a1.11,1.11,0,0,1,.07-.26l.28-.75a10.48,10.48,0,0,1,1.62-2.48c.22-.24.41-.49.64-.72s1.07-1.12,1.37-1.37.4-.37.61-.55l.05,0,.59-.52c.54-.5,1.11-1,1.65-1.45l1.06-1h0l.05,0a14.48,14.48,0,0,0,1.21-1.35,4.16,4.16,0,0,0,.75-1.32c.16,0,.32.16.45.24s.28.19.43.3l1.66,1.18.9.53a14.45,14.45,0,0,0,1.69.79,33.14,33.14,0,0,0,5.82,1.67l1.18.27a15.67,15.67,0,0,1,1.66.46,11.94,11.94,0,0,1,1.53.62,4.52,4.52,0,0,1,.87.57,28.38,28.38,0,0,0-1.59-2.73,8.13,8.13,0,0,1-1.2-3.12,1.76,1.76,0,0,1,.31-1.2c.45,0,.82,0,1.28,0,.26,0,.4,0,.64,0l.64,0a17.5,17.5,0,0,0,1.77-.24,48.28,48.28,0,0,1,4.9-1.12,11.43,11.43,0,0,0,1.95,0c.16,0,.11-.07-.06-.22-1.15-1-3.26-2.06-2.5-3.59a2.32,2.32,0,0,1,.45-.58l.33-.31a10.85,10.85,0,0,1,1.18-1.33c.28-.22.58-.53.9-.77l1-.7c.67-.47,2-1.17,2.53-1.65a1.37,1.37,0,0,0,.22-.2c.26-.33.06-.51-.31-.64a3.71,3.71,0,0,0-.66-.15,13.2,13.2,0,0,0-1.45-.14l-.72-.06A8.19,8.19,0,0,1,41.49,20a7.59,7.59,0,0,1-2.87-1.09A1.52,1.52,0,0,1,38,18c-.14-.64.42-1-1.94-.08l-1.66.66c-.48.19-3.22,1.28-3.37,1.28-.37,0-.92.06-.92-.47a3.09,3.09,0,0,1,.42-1.23l.15-.27c.15-.27.32-.5.48-.77s.21-.33.32-.49l1.18-1.72c.07-.09.1-.16.17-.25L34,12.86l.16-.25.16-.26.47-.79A3.66,3.66,0,0,0,35,11a17.9,17.9,0,0,1-2.47-.35,3,3,0,0,1-.32-.1c-.51-.16-.64-.37-.71-.9a3.39,3.39,0,0,1,0-.78,9.14,9.14,0,0,0,0-1.73c0-.14,0-.32,0-.44s0-.29-.05-.45c-.09-.59-.19-1.1-.3-1.65s-.34-3.51-1-3l-.06.05h0L28,3.62a22.37,22.37,0,0,1-2.48,1.93A14.26,14.26,0,0,1,22.76,7c-.51.2-.51.06-1-.39-.19-.19-.76-1-1-1.08m6.78,5.33a8.73,8.73,0,0,0,.16,2c0,.17,0,.26.07.43a11.23,11.23,0,0,1,.25,3.56,4.85,4.85,0,0,1-1.82,3.12,9.9,9.9,0,0,1-2.49,1.47c-.22.09-.85.4-.94.65l0,.11c0,.06,0,.13-.05.19a7.69,7.69,0,0,1-.28.72c-.24.49-.39.83-.65,1.33-.12.22-.23.41-.35.64l-.36.64c-.45.82-1,1.68-1.44,2.51s-1.77,3.31-1.77,4.17a1,1,0,0,1-.26-.11,2,2,0,0,0-.25-.14,7.67,7.67,0,0,1,.67-2c.47-.94.88-1.72,1.41-2.61s1.06-1.76,1.48-2.56a16.46,16.46,0,0,0,.88-1.79c.45-1.12.37-.77-.09-1.93A11.6,11.6,0,0,1,21,14.78a7.72,7.72,0,0,1,.38-1.24,7.3,7.3,0,0,1,1.23-2l.14-.14a8.33,8.33,0,0,1,1.95-1.59,13.4,13.4,0,0,1,3.92-1.51c.28-.07.6-.12.89-.19l-.17.1-.2.11a3.62,3.62,0,0,0-1,.8,2.77,2.77,0,0,0-.43.75A3.29,3.29,0,0,0,27.57,10.84ZM9.36,17a5.5,5.5,0,0,1,.62-.08,7.09,7.09,0,0,1,2.37.3c2.23.62,4.83,2.15,5.79,4.39a6.46,6.46,0,0,1,.54,1.49A11.27,11.27,0,0,1,18.84,26l-.33,2.93a22.46,22.46,0,0,1-2.37-.64l-.27-.1-.29-.1A11.12,11.12,0,0,1,14,27.33a5,5,0,0,1-.45-.3,4.06,4.06,0,0,1-1.85-3.54c0-1.06.12-1.85.12-2.87a3.73,3.73,0,0,0-.74-2.33,4.61,4.61,0,0,0-1.49-1.18Zm10.4,11.31,0,0h.05l.12,0a1.1,1.1,0,0,0,.24,0,4.31,4.31,0,0,0,1.26-.4l.75-.37c.14-.06.23-.12.37-.19,1-.52,1.94-1,2.94-1.52l.38-.17a10.94,10.94,0,0,1,2.53-.79,4.88,4.88,0,0,1,1-.08c.18,0,.37,0,.53,0a4.66,4.66,0,0,1,1.65.57l.37.19.7.41c0-.1-.11-.16-.19-.22l-.15-.13a5.58,5.58,0,0,0-2.25-1.27A7.36,7.36,0,0,0,25,25.3c-1.06.53-2.14,1.17-3.15,1.78-.53.33-1.26.74-1.84,1l-.27.15c-.06,0,0,0,.07-.15l2-2.32c.38-.31.58-.53,1-.86l.53-.39c.19-.13.35-.25.55-.37s.37-.22.59-.33A10,10,0,0,1,26.47,23a8.58,8.58,0,0,1,4.24-.26,9.16,9.16,0,0,1,3,1.22l.85.57c.21.17,2.32,1.78,2.39,1.88l-.64-.06c-.18,0-.28,0-.42,0a7.87,7.87,0,0,0-3.32,1.17c-1,.59-2.1,1.29-3.15,1.81a8.91,8.91,0,0,1-3.51,1,7.07,7.07,0,0,1-2.41-.27,9.81,9.81,0,0,1-2-.77c-.33-.16-.61-.34-.91-.51Z"/><path class="cls-2" d="M76.32,15.1h-.06c0-.09-.55-.84-.65-1L74.5,12.45a1.82,1.82,0,0,0,.62-.38c.07-.06.09-.11.16-.18a1.8,1.8,0,0,0-.37-2.55C74.09,8.85,72.54,9,71.44,9c-.07,0-.09,0-.09.08v6c0,.07,0,.09.09.09h1.25V12.79c.73,0,.64-.07.84.25l.57.93a7.68,7.68,0,0,0,.79,1.19h2.76c.11,0,.22-.52.28-.7l.22-.78h2.23c.1.39.36,1.07.45,1.48h1.42c0-.17-1.17-3.32-1.35-3.87-.09-.28-.18-.5-.27-.78s-.19-.52-.28-.78l-.27-.79H78.46l-1.62,4.6c-.1.27-.51,1.43-.52,1.56m-3.13-3.4h-.5V10.06c.71,0,1.62,0,1.62.83C74.31,11.51,73.75,11.7,73.19,11.7ZM79.3,10a2.74,2.74,0,0,0,.17.64l.39,1.28a3.61,3.61,0,0,1,.19.64H78.49a2.26,2.26,0,0,0,.1-.31c0-.11.06-.2.1-.32l.53-1.78C79.26,10,79.21,10.06,79.3,10Z"/><path class="cls-2" d="M46,15.16h1.2V12.59c0-.41,0-.76,0-1.14l-.06-1.12a2.93,2.93,0,0,1,.2.59c.07.19.13.42.19.62L48.24,14c.07.21.12.4.19.62s.12.57.24.57h1.08c.08,0,.07,0,.1-.1a.66.66,0,0,0,0-.15l.1-.31.6-1.83c.14-.41.27-.81.4-1.21l.42-1.23c0,.51-.05.92-.05,1.48v3.35H52.6V9H50.87c-.11,0-.17.32-.24.54l-.87,2.64c-.08.24-.47,1.38-.48,1.5h-.06c0-.2-1.4-4.45-1.42-4.68H46Z"/><path class="cls-2" d="M54.13,15.16h1.11c.07,0,.09,0,.09-.09V12.93c0-.47,0-.88,0-1.31s-.06-.84-.06-1.29l0,.06L56,12.76c.23.67.44,1.46.65,2.13.12.36-.06.27,1.24.27.1,0,.11-.16.14-.25l1.53-4.58c0,.14,0,.2,0,.37l0,4.46h1.22V9H58.92l-1.14,3.54a7.67,7.67,0,0,1-.42,1.14L56,9.22c0-.1,0-.25-.14-.25H54.13Z"/><path class="cls-2" d="M83,9.05v6c0,.07,0,.09.09.09H84.2V12c0-.2,0-.29,0-.5s0-.79,0-1c.08.06.6,1,.69,1.15s.22.38.33.59l1.53,2.65c0,.08.13.27.21.27H88.5V9H87.3V11.9c0,.59,0,1.09,0,1.67,0,0,0,0,0-.07l-.63-1.07c-.05-.1-.11-.19-.16-.28L85,9.52c0-.11-.1-.18-.16-.29S84.7,9,84.62,9H83.09C83,9,83,9,83,9.05"/><path class="cls-2" d="M58.48,18.08v6.11h1.33V21.82c.8,0,.61-.13,1,.57L62,24.19h1.45a4.26,4.26,0,0,0-.43-.68l-1.13-1.67-.11-.16c-.05-.08-.08-.1-.09-.19a1.72,1.72,0,0,0,1.12-1.62,2,2,0,0,0-.19-.9,2.4,2.4,0,0,0-2.29-1H58.56c-.06,0-.08,0-.08.08m2,2.65h-.65V19.12c.63,0,1.62-.1,1.62.78C61.43,20.45,61,20.73,60.46,20.73Z"/><path class="cls-2" d="M64.83,12c0,.21,0,.47,0,.67A2.67,2.67,0,0,0,66.33,15a5.34,5.34,0,0,0,3.42,0c.09,0,.18,0,.18-.13V11.76c0-.07,0-.09-.08-.09h-2.4v1.12h1.17V14a6.34,6.34,0,0,1-.83.09,1.45,1.45,0,0,1-1.5-1.27,1.93,1.93,0,0,1-.06-.41,3.37,3.37,0,0,1,0-.44,2,2,0,0,1,1-1.81,2.46,2.46,0,0,1,1.73-.09c.26.07.48.2.59.22.05-.23.4-.9.41-1.08-.12,0-.23-.09-.37-.13A3.17,3.17,0,0,0,69.12,9a3.92,3.92,0,0,0-3.22.54,2.87,2.87,0,0,0-.83,1.15A4.35,4.35,0,0,0,64.83,12"/><path class="cls-2" d="M62,30a4.61,4.61,0,0,0,.26,1.91l.18.36a2.3,2.3,0,0,0,.75.8,3.33,3.33,0,0,0,1.62.44c.2,0,.32,0,.51,0A6.89,6.89,0,0,0,67,33.14V29.93H64.55V31h1.17V32.3a5.34,5.34,0,0,1-1,.06,1.26,1.26,0,0,1-.8-.29,2.16,2.16,0,0,1-.62-1.83,1.84,1.84,0,0,1,1.51-2,2.67,2.67,0,0,1,.63,0,2.39,2.39,0,0,1,.58.11c.22.07.45.19.54.2l.32-.77a1.42,1.42,0,0,0,.1-.29,4.91,4.91,0,0,0-1.68-.39,4.15,4.15,0,0,0-1,.08,2.84,2.84,0,0,0-1.44.65,2.07,2.07,0,0,0-.48.54A3.25,3.25,0,0,0,62,30"/><path class="cls-2" d="M74.42,33.39h1.34V31.05h.69a1.12,1.12,0,0,0,.16.28c.15.25,1.24,2,1.27,2.06h1.47c0-.13-1.61-2.35-1.78-2.68a1.9,1.9,0,0,0,.93-.8,1.8,1.8,0,0,0-.64-2.39,3.4,3.4,0,0,0-1.43-.29h-2ZM76,30h-.22V28.32c.48,0,1.59-.07,1.59.66,0,.34,0,.67-.44.85A2.44,2.44,0,0,1,76,30Z"/><path class="cls-2" d="M50.62,33.39h1.45l.31-1.08a1.44,1.44,0,0,0,.1-.37h2.26a5.15,5.15,0,0,0,.21.71l.21.74h1.45L54.7,28c-.05-.15-.08-.26-.14-.4l-.13-.4H52.79c-.07.3-.42,1.18-.54,1.55-.33,1-.74,2.1-1.09,3.09Zm3-5.16a5.08,5.08,0,0,0,.18.66c.12.43.52,1.59.6,1.93H52.85c0-.13.33-1.14.38-1.28l.29-1a.84.84,0,0,1,0-.17Z"/><path class="cls-2" d="M67.7,33.39h1.42l.45-1.45H71.8l.45,1.45h1.42a2.43,2.43,0,0,0-.13-.38l-.14-.39-.27-.78L71.77,28l-.14-.39-.14-.39H69.88Zm3-5.13h0c0,.25.74,2.34.76,2.56H69.9l.68-2.22A1.06,1.06,0,0,0,70.66,28.26Z"/><path class="cls-2" d="M53.65,18.08v6.11h3.57V23.1H55V21.51h2.09v-1c0-.06,0-.08-.08-.08H55V19.12h2.23V18H53.74c-.07,0-.09,0-.09.08"/><path class="cls-2" d="M78.15,24.19h3.57V23.1H79.46V21.51h2.1V20.43h-2.1V19.12h2.18c.06,0,.08,0,.08-.09v-1c0-.06,0-.08-.08-.08H78.15Z"/><path class="cls-2" d="M65.5,24.19H67c0-.13.08-.25.12-.38.24-.71.68-2.06.92-2.7.05-.13.09-.26.13-.38s.09-.27.14-.39l.65-1.94c0-.15.09-.24.13-.4H67.7l-1,3.3c0,.12-.07.19-.1.31-.13.43-.22.86-.32,1.3l0-.16c0-.06,0-.12,0-.16-.22-1-.89-2.91-1.21-4-.06-.19-.15-.43-.19-.62H63.41c0,.11.67,2,.78,2.32Z"/><path class="cls-2" d="M82.67,19.56a1.68,1.68,0,0,0,.52,1.38,4,4,0,0,0,1,.64c.45.22,1.43.59,1,1.28-.3.53-1.45.25-1.88.11l-.77-.29v1.2a4.1,4.1,0,0,0,2.7.29,1.69,1.69,0,0,0,1.34-1.6,1.71,1.71,0,0,0-1.1-1.74l-.89-.45c-.51-.28-.66-.34-.66-.85a.53.53,0,0,1,.24-.37c.42-.29,1.22,0,1.64.11a2.08,2.08,0,0,0,.32.12l.42-1c-1-.55-3.07-.76-3.73.46a1.65,1.65,0,0,0-.2.74"/><path class="cls-2" d="M48.61,19.51A1.6,1.6,0,0,0,49,20.78c.67.86,2.28,1,2.28,1.76s-1.46.61-2,.43l-.38-.15a3,3,0,0,0-.39-.14v1.23c.11,0,.22.1.35.14a2.32,2.32,0,0,0,.42.12c1,.23,2.56.14,3.05-.83a1.79,1.79,0,0,0-.14-1.94c-.69-.85-2.32-1-2.32-1.75,0-.42.36-.62.78-.62a2.64,2.64,0,0,1,.77.13l.68.23.42-1a5.19,5.19,0,0,0-.84-.3c-1-.27-2.31-.21-2.88.73a1.56,1.56,0,0,0-.21.72"/><path class="cls-2" d="M75.06,24.27a4.39,4.39,0,0,0,1.78-.3V22.85c-.33,0-2,.82-2.73-.22-.52-.7-.59-2.88.45-3.43s1.8.2,2.12.22l.42-1.06A3.79,3.79,0,0,0,74,18.15a2.46,2.46,0,0,0-.88.62,2.57,2.57,0,0,0-.56.95,4,4,0,0,0-.16.59c-.32,1.88.34,4,2.62,4"/><path class="cls-2" d="M45.63,30.27c0,2.48,1.36,3.55,3.69,3.13a3.21,3.21,0,0,0,.79-.23V32.05a3.48,3.48,0,0,1-2.25.2c-1-.45-1-2.21-.67-3.07a1.35,1.35,0,0,1,1.11-.92,2.08,2.08,0,0,1,1.13.18l.49.21.42-1.09a3.75,3.75,0,0,0-3.06-.19,2.36,2.36,0,0,0-.88.63,3.37,3.37,0,0,0-.77,2.27"/><path class="cls-2" d="M81.39,31.1v2.29H82.7V31.08c0-.12.66-1.28.74-1.44L84.35,28a1,1,0,0,0,.13-.23,2.34,2.34,0,0,0,.25-.5H83.31L82,29.74l-1.24-2.51H79.35c0,.16.62,1.15.77,1.44l.25.49c.12.24,1,1.8,1,1.94"/><path class="cls-2" d="M89.42,10.08h1.67v5c0,.07,0,.09.08.09h1.26V10.08H94.1V9H89.42Z"/><polygon class="cls-2" points="57.33 33.39 61.18 33.39 61.18 32.3 58.67 32.3 58.67 27.23 57.33 27.23 57.33 33.39"/><path class="cls-2" d="M69.79,24.19h1.34V18.08c0-.06,0-.08-.08-.08H69.79Z"/><rect class="cls-3" x="43.15" y="8.97" width="1.31" height="6.19"/><rect class="cls-3" x="62.27" y="8.97" width="1.31" height="6.19"/><path class="cls-4" d="M22.07,17c0,1.18.07,1.72.14,2.84,0,.48.23,1.89.23,2.18.08,0,0,0,.11,0a3.43,3.43,0,0,0,.3-.92,9.22,9.22,0,0,0,.09-1.64l-.14-2.84A12.62,12.62,0,0,1,23,14.75a5.35,5.35,0,0,1,1.72-3.09l0,0,.47-.39c.08-.07.24-.17.28-.25a8.27,8.27,0,0,0-1.28,1h0a6.87,6.87,0,0,0-1.11,1.29,7,7,0,0,0-1,3.72m3.4-6c.1,0,.07,0,.12-.08C25.49,11,25.52,10.93,25.47,11Zm.14-.11c-.07,0,0,0,0,0S25.69,10.89,25.61,10.89Zm0,0h0Zm0,0h0Z"/><path class="cls-4" d="M18.45,28.87c-.05-.21-.14-.43-.19-.64-.48-1.95-.49-3.68-1.37-5.46a4.86,4.86,0,0,0-.33-.54L16,21.52A6.73,6.73,0,0,0,13.66,20l.49.34a3,3,0,0,1,.48.39l.22.2c.08.08.11.14.19.22a5.89,5.89,0,0,1,.75,1,7.22,7.22,0,0,1,.46.82,11.11,11.11,0,0,1,.95,3.34,10.55,10.55,0,0,0,.64,1.92,2.69,2.69,0,0,0,.16.29.86.86,0,0,0,.45.41M13.6,20s.11,0,0,0S13.55,19.93,13.6,20Z"/></svg>
